<svg xmlns="http://www.w3.org/2000/svg" xml:space="preserve" id="Layer_1" x="0" y="0" style="enable-background:new 0 0 565 624" version="1.1" viewBox="0 0 565 624"><style>.st0{fill:#1d3c4d}.st1{fill:#d1d3d4}.st3{fill:#f68b28}.st4{fill:#f8a592}.st5{fill:#231e5c}.st6{fill:#a49ccc}</style><switch><g><path d="m430.4 612-8.4-1.2c1.1-80.9 2.1-197.5.2-204.4 0 0 .1.4.6.9l6.8-3.9c1.1 1.2 1.8 2 2 36.4.1 17.7.1 42.2-.1 72.7-.4 52-1.1 99-1.1 99.5zM499.9 395.8l-4.5-3.8c16.4-19.4 25.5-56.4 26.1-107 .5-38.6-4.1-71.6-4.1-72l5.8-.8c0 .3 4.7 33.8 4.2 72.8-.3 23-2.3 43.3-5.9 60.6-4.6 21.8-11.8 38.7-21.6 50.2z" class="st0"/><path d="M457.2 118.7c2.4 0 93-9.8 94.6 2.3 1.6 12.2 4.9 106.9-11.3 110.2-16.2 3.2-94.8-11.3-94.8-11.3l11.5-101.2zM341.1 402.2c3.5-.7-8.9 12.2 0 16.2 8.9 4.1 143.4 1.6 153.9-3.2 10.5-4.9 23.5-13 18.6-23.5-4.9-10.5-87.7-24.3-87.7-24.3l-75.1 20.3c0-.1-13.7 15.3-9.7 14.5z" class="st1"/><path d="M481.4 605.9H371.6c-1.8 0-3.2 1.4-3.2 3.2v6c0 .3.2.6.6.6h115.1c.3 0 .6-.2.6-.6v-6c-.1-1.8-1.5-3.2-3.3-3.2z" class="st0"/><path d="M437 597.7h-20.3c-1.4 0-2.5 1.1-2.5 2.5v8.1c0 1.4 1.1 2.5 2.5 2.5H437c1.4 0 2.5-1.1 2.5-2.5v-8.1c0-1.3-1.2-2.5-2.5-2.5z" class="st0"/><path d="M374.1 369.8c2.7-1.3 74.4-51.6 74.4-51.6l-87.7-8.6S223.6 328.4 203.6 345c-1.4 1.2-2.8 2.4-4 3.5-9.8 8.9-11.5 23.7-4.1 34.6 13.5 19.9 5.1 17.8 28 50.4 27.2 38.6 90.9 115.2 90.9 115.2 7.7 9.5 18.2 22.6 18.3 24.4.2 2.7.6 28.3-2.6 31.1-3.1 2.7-8.2 6.2-7.2 8 1.5 2.8 9.6 2.7 20.9 2.1 3.3-.2 13.5-23.5 14.8-27.3 1.9-5.6 6.5-18.3 4.8-22.2-.8-1.9-4.9-5.8-10.6-9.5-3.6-2.3-13.5-15-20.6-24.5 0 0-65.4-122.3-72.1-127.1-6.7-4.8-33.2-35-33.2-35s44.1 16.7 46.1 16.7c2.1-.2 98.4-14.2 101.1-15.6z" style="fill:#f6948c"/><path d="M353.7 555.6s-16.5 45-23.4 47.4c-1.8.6-12.7 4.1-14.3 8-.5 1.2 0 5.1 0 5.1h33s5.1-10.7 7-20.3c0 0 13.6-31.7 12.8-33.9-2.5-6.7-15.1-6.3-15.1-6.3z" class="st3"/><path d="M457.2 318.7s-75.9-7.4-102 0c-26.1 7.4-131.1 39.5-138.4 47.5-7.4 8-102.3 199.1-102.4 199.2-5.2 10.1-10.4 19.7-12.5 22-2.9 3.2-5.7 6.4-9 8.4-1.3.8-5.5 3.1-6.5 3.6-15.3 7.4-19.2 9.7-24 13.2-2.9 2.1-3.4 2.1.2 2l58.3-2.4s6.6 1.3 9.2-3.5c2.6-4.8.9-10.3-.2-15.4-.7-3.5 0-8.3 4.2-15.4 9.3-15.7 80.3-97.9 95.1-123.9 14.8-26.1 19-42.7 19.6-50.5 44.1 0 173.4-.9 196-22 22.5-20.8 12.4-62.8 12.4-62.8z" class="st4"/><path d="M92.8 595.8c17.6 4.5 30.2 1.6 37.5-1.3 1.9 5.3 4.8 11.8 3.5 15.7-1.6 4.7-3.9 5.8-6 5.8-16.1.4-59 1-71.3 1.2-1.7 0-2.7-2-1.6-3.3 3.2-3.7 36.6-17.3 37.9-18.1z" class="st3"/><path d="M360.5 309.4s-137.2 19-157.3 35.7c-.2.2-1.8 1.6-2.4 2.3 2.3-1.3 5.7-2.6 5.7-2.6s31.6-2 57.2 37.1c5 1.8 8.6 3 9.1 3 2 0 98.3-14 101-15.4 2.7-1.3 74.4-51.6 74.4-51.6l-87.7-8.5z" class="st5"/><path d="M457.2 318.7s-75.9-7.4-102 0c-19.3 5.4-81.9 24.5-116 37.2 12.1 8.3 25.5 22.7 36.2 47.8 56.8.1 155.3-1 174.3-18.8 22.5-21 7.5-66.2 7.5-66.2z" class="st5"/><path d="m232 237.5 80.1-17.7s29-37.2 56.8-69.2c8.2 8.1 12.7 20.5 21 28.6l-61.1 67.6c-2.2 2.4-5.3 3.8-8.6 3.8l-84.9.3-29 2.3v-18.6l25.7 2.9z" class="st4"/><path d="M382.1 139.3c-14-3.7-70.1 80.5-70.1 80.5s7.6 3.5 21.1 22l21.6-23.9s42.9-40.6 51.1-54.7c8.3-14.1-9.7-20.2-23.7-23.9z" class="st6"/><path d="M351.4 41.7c.3-.7.5-1.1.5-1.1v-.3c1-2.5 2.1-5 3.3-7.4 8-16.3 27.9-25.5 46-25.5 5.9 0 11.3.8 16.2 2.2 7.4 3.3 25.6 14.9 30.3 49.3 1.7 12.5-.9 24.4-6.6 34.5 4.9 3.1 11.3 9.3 15.9 21.8 8.5 23.1 51.2 28.2 55.5 58.9 4.3 30.7-40.1 86.2-87.1 50.4-35.7-27.3-29.9-79.3-25.1-102.6-11.1 1.5-23.1-.6-34.6-7.5-14.7-8.9-20.6-20.8-22.2-32.5.4-13.7 2.8-27.2 7.9-40.2z" class="st0"/><path d="M409.6 129.1s28.4-5.6 41.4 5.2-2.8 107.3-2.8 123.3 8.9 61.1 8.9 61.1-86.2 15.1-99.9-8.9c0 0-3.9-91.4-3.3-102.9.6-11.5 4.3-45.6 16.9-63.5 3.6-5.1 38.8-14.3 38.8-14.3z" style="fill:#d7d3e9"/><path d="M394.3 121.5c29.1 0 49.8-26.3 50.7-27.5.9-1.1.7-2.7-.5-3.6-1.1-.9-2.7-.7-3.6.5-.2.3-20.1 25.5-46.6 25.5-1.4 0-2.6 1.1-2.6 2.6 0 1.3 1.2 2.5 2.6 2.5z" style="fill:#60c8d2"/><path d="M409.8 85.1s.1.8.4 2.3c1.3 6.9 6.3 30 9.6 36.3 4.1 7.7-13.9 32.1-31.2 29.1-5.1-.9 4.3-22.4 3.9-24.7-.9-4.4-2.1-10.3-3.3-16.4-.7-3.4-1.4-6.9-2-10.2-1.8-9.3-3.4-17-3.4-17l26 .6z" class="st4"/><path d="M410.2 87.4c-.3-1.4-.4-2.3-.4-2.3l-25.9-.6s1.5 7.6 3.4 17c.6 3.3 1.3 6.7 2 10.2 4-.6 8.2-2.5 12.4-6.2 4.6-4 7.6-8.8 9.4-13.9-.5-1.7-.7-3.1-.9-4.2z" style="fill:#f37559"/><path d="m282.7 237.5 80.1-17.7s29-37.2 56.8-69.2c8.2 8.1 12.7 20.5 21 28.6l-61.1 67.6c-2.2 2.4-5.3 3.8-8.6 3.8l-84.9.3-29 2.3v-18.6l25.7 2.9z" style="fill:#f9afa2"/><path d="M118.2 146.4h132.1c3.5 0 6.6 2.1 8 5.3l40.7 99.2h72.8c2 0 3.7 1.6 3.7 3.7 0 2-1.6 3.7-3.7 3.7H164.4c-5.7 0-10.9-3.3-13.2-8.5l-40.9-91.2c-2.6-5.8 1.6-12.2 7.9-12.2z" class="st5"/><ellipse cx="196.3" cy="202.7" rx="7.2" ry="8.2" style="fill:#f7f8f8" transform="rotate(168.696 196.332 202.694)"/><path d="M387.4 22.1s14-1.6 22.7 9.4c8.8 11 18.2 45-3.6 63.5-21.7 18.5-43.2-2.4-46.4-24.6-3.2-22.2-4.4-49.1 27.3-48.3z" class="st4"/><path d="M385.8 18.4s18.7 32.4 32 33.9S432.9 71 432.9 71s-4.8-39.6-18-47.3c-13.2-7.6-29.1-5.3-29.1-5.3z" class="st0"/><path d="M414.3 60.4c-1.1 5.7 1.1 11 4.9 11.8 3.8.8 7.7-3.3 8.8-9 1.1-5.7-1.1-11-4.9-11.8-3.8-.8-7.7 3.3-8.8 9z" class="st4"/><path d="M443.6 129.8c-14-3.7-59.7 63.5-59.7 63.5-12.4 15.4-21.1 26.5-21.1 26.5s7.6 3.5 21.1 22l21.6-23.9s42.9-40.6 51.1-54.7c8.2-14.1 1-29.7-13-33.4z" class="st6"/><path d="M262.6 606H152.7c-1.8 0-3.2 1.4-3.2 3.2v6c0 .3.2.6.6.6h115.1c.3 0 .6-.2.6-.6v-6c-.1-1.7-1.5-3.2-3.2-3.2zM201.6 264.5h12.6v341h-12.6z" class="st0"/><path d="M218.1 597.8h-20.3c-1.4 0-2.5 1.1-2.5 2.5v8.1c0 1.4 1.1 2.5 2.5 2.5h20.3c1.4 0 2.5-1.1 2.5-2.5v-8.1c0-1.3-1.1-2.5-2.5-2.5zM11.2 258.2H404v12.7H11.2z" class="st0"/></g></switch></svg>