<svg width="109" height="123" viewBox="0 0 109 123" fill="none" xmlns="http://www.w3.org/2000/svg">
<path d="M54.4252 122.248C77.3633 122.248 95.9583 121.723 95.9583 121.075C95.9583 120.427 77.3633 119.902 54.4252 119.902C31.4871 119.902 12.8921 120.427 12.8921 121.075C12.8921 121.723 31.4871 122.248 54.4252 122.248Z" fill="#D8DFEA"/>
<path d="M108.56 12.0688V23.4671C108.56 41.9791 93.5557 56.9913 75.0538 56.9913H70.3628L75.5697 51.6207C90.8551 51.3457 103.199 38.8212 103.199 23.4671V14.7509H83.0952L83.7654 9.38712H105.88C107.36 9.38664 108.56 10.5869 108.56 12.0688Z" fill="#E8A615"/>
<path d="M71.703 89.2881V95.2084H36.8567V89.2881C36.8567 88.8055 37.1179 88.3562 37.5401 88.1216L40.1805 86.6331C44.7506 84.0586 47.5786 79.2244 47.5786 73.9743V67.7187H60.981V73.9743C60.981 79.2241 63.809 84.0584 68.3792 86.6331L71.0195 88.1216C71.4417 88.3562 71.703 88.8055 71.703 89.2881Z" fill="#E8A615"/>
<path d="M71.703 89.2881V95.2084H68.3526V89.2881C68.3526 88.8055 68.0913 88.3562 67.6691 88.1216L65.0287 86.6331C60.4586 84.0586 57.6306 79.2244 57.6306 73.9743V67.7187H60.9813V73.9743C60.9813 79.2241 63.8093 84.0584 68.3795 86.6331L71.0198 88.1216C71.4418 88.3562 71.703 88.8055 71.703 89.2881Z" fill="#B7791D"/>
<path d="M65.002 62.4889V66.3777C65.002 68.2282 63.501 69.7301 61.6512 69.7301H46.9086C45.0591 69.7301 43.5579 68.2282 43.5579 66.3777V62.4889H65.002Z" fill="#E8A615"/>
<path d="M60.9813 69.7303H47.5789V71.7017H60.9813V69.7303Z" fill="#B7791D"/>
<path d="M77.0643 93.8677V117.335H31.4961V93.8677C31.4961 93.1302 32.0993 92.5267 32.8363 92.5267H75.7241C76.4613 92.5267 77.0643 93.1302 77.0643 93.8677Z" fill="#343B49"/>
<path d="M77.0639 93.8677V117.335H74.3835V93.8677C74.3835 93.1302 73.7802 92.5267 73.0432 92.5267H75.7237C76.461 92.5267 77.0639 93.1302 77.0639 93.8677Z" fill="#262D38"/>
<path d="M81.0845 116.664V119.346C81.0845 120.083 80.4813 120.687 79.7443 120.687H28.8151C28.0781 120.687 27.4749 120.083 27.4749 119.346V116.664C27.4749 115.927 28.0781 115.323 28.8151 115.323H79.7443C80.4816 115.323 81.0845 115.927 81.0845 116.664Z" fill="#262D38"/>
<path d="M81.0847 116.664V119.346C81.0847 120.083 80.4815 120.687 79.7444 120.687H77.064C77.801 120.687 78.4042 120.083 78.4042 119.346V116.664C78.4042 115.927 77.801 115.323 77.064 115.323H79.7444C80.4817 115.323 81.0847 115.927 81.0847 116.664Z" fill="#171C23"/>
<path d="M70.3628 99.2315V108.618C70.3628 109.356 69.7596 109.959 69.0226 109.959H39.5373C38.8002 109.959 38.197 109.356 38.197 108.618V99.2315C38.197 98.494 38.8002 97.8905 39.5373 97.8905H69.0226C69.7599 97.8905 70.3628 98.494 70.3628 99.2315Z" fill="#E8A615"/>
<path d="M65.0022 62.4889V66.3777C65.0022 68.2282 63.5012 69.7301 61.6514 69.7301H58.9709C60.8205 69.7301 62.3217 68.2282 62.3217 66.3777V62.4889H65.0022Z" fill="#B7791D"/>
<path d="M40.2073 56.9911H33.5061C15.0042 56.9911 0 41.9789 0 23.4668V12.0688C0 10.5869 1.19959 9.38687 2.68048 9.38687H24.7946V14.7507H5.36097V23.4668C5.36097 38.821 17.7047 51.3455 32.9902 51.6204L40.2073 56.9911Z" fill="#E8A615"/>
<path d="M87.1159 4.02283V6.70473C87.1159 39.2901 72.4134 65.7072 54.2799 65.7072C36.1464 65.7072 21.4438 39.2904 21.4438 6.70473V4.02283H87.1159Z" fill="#E8A615"/>
<path d="M21.7457 14.7507H19.0652C18.9312 12.9873 18.8441 11.1972 18.7971 9.38687H21.4776C21.5246 11.197 21.6117 12.9873 21.7457 14.7507Z" fill="#B7791D"/>
<path d="M37.0979 56.9911H34.4174C32.923 55.3417 31.5023 53.4777 30.1821 51.426C31.107 51.54 32.0383 51.6004 32.9901 51.6204C34.2767 53.5983 35.6505 55.3952 37.0979 56.9911Z" fill="#B7791D"/>
<path d="M65.0017 62.4889V63.8299C61.6378 65.9152 58.0324 67.0482 54.2798 67.0482C50.5272 67.0482 46.9218 65.9152 43.5579 63.8299V62.4889C46.9218 64.5742 50.5272 65.7072 54.2798 65.7072C58.0324 65.7072 61.6378 64.5742 65.0017 62.4889Z" fill="#B7791D"/>
<path d="M87.116 4.02283V6.70473C87.116 38.2711 73.318 64.0512 55.9688 65.6336C72.829 64.0312 79.0745 38.2579 79.0745 6.70473V4.02283H87.116Z" fill="#B7791D"/>
<path d="M90.4663 3.35238C90.4663 4.27773 90.0911 5.11577 89.4879 5.72582C88.878 6.32928 88.0405 6.70475 87.1156 6.70475H21.4437C19.5942 6.70475 18.093 5.20285 18.093 3.35238C18.093 2.42702 18.4683 1.58899 19.0715 0.978926C19.6813 0.375475 20.5189 0 21.4437 0H87.1158C88.9654 0 90.4663 1.5019 90.4663 3.35238Z" fill="#E8A615"/>
<path d="M87.1159 6.70471C87.1159 7.60316 87.1025 8.495 87.0824 9.38661H21.4774C21.4573 8.49477 21.4438 7.60316 21.4438 6.70471H87.1159Z" fill="#B7791D"/>
<path d="M90.4666 3.35238C90.4666 4.27773 90.0913 5.11577 89.4881 5.72582C88.8783 6.32928 88.0407 6.70475 87.1158 6.70475H79.7444C80.6693 6.70475 81.5068 6.32928 82.1167 5.72582C82.7199 5.11577 83.0951 4.27749 83.0951 3.35238C83.0951 1.5019 81.5942 0 79.7444 0H87.1158C88.9656 0 90.4666 1.5019 90.4666 3.35238Z" fill="#B7791D"/>
<path d="M70.363 99.2315V108.618C70.363 109.356 69.7597 109.959 69.0227 109.959H42.4189C47.8335 109.852 65.6722 108.699 65.6722 97.8903H69.023C69.76 97.8905 70.363 98.494 70.363 99.2315Z" fill="#B7791D"/>
<path d="M39.5371 105.266V99.7799C39.5371 99.4769 39.7825 99.2315 40.0853 99.2315H52.102C52.102 99.2315 42.5527 100.237 39.5371 105.266Z" fill="#FFCC66"/>
<path d="M33.0037 99.902V94.4161C33.0037 94.1131 33.2491 93.8677 33.5519 93.8677H45.5685C45.5685 93.8677 36.019 94.8733 33.0037 99.902Z" fill="#4E5868"/>
<path d="M54.2798 63.6958C47.0023 63.6958 26.8182 48.3351 24.3723 12.0685H32.3333C34.3369 56.4412 54.2798 63.6958 54.2798 63.6958Z" fill="#FFCC66"/>
<path d="M40.207 89.8448C40.207 89.8448 49.5887 83.8106 49.5887 75.0941V89.8448H40.207Z" fill="#FFCC66"/>
<path d="M22.7843 1.34091V3.35234H19.4336C19.4336 2.24597 20.3316 1.34091 21.4441 1.34091H22.7843Z" fill="#FFCC66"/>
<path d="M89.0929 9.38666C89.046 11.197 88.9589 12.9871 88.8182 14.7505H83.0955L83.7657 9.38666H89.0929Z" fill="#B7791D"/>
<path d="M77.6604 51.5064C76.347 53.5244 74.9464 55.3617 73.4721 56.991H70.3628L72.7351 54.5506L75.5697 51.6206C76.2734 51.6069 76.9703 51.5668 77.6604 51.5064Z" fill="#B7791D"/>
</svg>
