<svg width="528" height="224" viewBox="0 0 528 224" fill="none" xmlns="http://www.w3.org/2000/svg">
<g filter="url(#filter0_d_19_553)">
<rect x="4" width="520" height="216" rx="10" fill="url(#paint0_linear_19_553)"/>
</g>
<path d="M58.6 42.656V51.776C56.3067 53.4293 53.64 54.256 50.6 54.256C48.7333 54.256 47.0427 53.968 45.528 53.392C44.024 52.8053 42.7387 51.9947 41.672 50.96C40.6053 49.9147 39.784 48.672 39.208 47.232C38.632 45.792 38.344 44.208 38.344 42.48C38.344 40.7413 38.6213 39.152 39.176 37.712C39.7307 36.2613 40.5253 35.0187 41.56 33.984C42.5947 32.9387 43.8427 32.1333 45.304 31.568C46.7653 30.992 48.408 30.704 50.232 30.704C51.16 30.704 52.0187 30.7787 52.808 30.928C53.608 31.0667 54.3493 31.264 55.032 31.52C55.7147 31.776 56.344 32.0853 56.92 32.448C57.496 32.8107 58.024 33.216 58.504 33.664L57.432 35.376C57.2613 35.6427 57.0427 35.808 56.776 35.872C56.5093 35.936 56.2213 35.872 55.912 35.68C55.6027 35.4987 55.272 35.3067 54.92 35.104C54.5787 34.9013 54.184 34.7147 53.736 34.544C53.288 34.3627 52.7707 34.2187 52.184 34.112C51.5973 33.9947 50.904 33.936 50.104 33.936C48.888 33.936 47.7893 34.1387 46.808 34.544C45.8373 34.9387 45.0053 35.5093 44.312 36.256C43.6187 36.992 43.0853 37.888 42.712 38.944C42.3387 40 42.152 41.1787 42.152 42.48C42.152 43.856 42.3493 45.088 42.744 46.176C43.1387 47.2533 43.6987 48.1707 44.424 48.928C45.1493 49.6747 46.024 50.2453 47.048 50.64C48.0827 51.0347 49.2347 51.232 50.504 51.232C51.4533 51.232 52.296 51.1307 53.032 50.928C53.7787 50.7253 54.5093 50.4427 55.224 50.08V45.504H52.008C51.7627 45.504 51.5707 45.44 51.432 45.312C51.2933 45.1733 51.224 44.9973 51.224 44.784V42.656H58.6ZM72.8938 44C72.8938 43.424 72.8084 42.8907 72.6378 42.4C72.4778 41.8987 72.2378 41.4667 71.9178 41.104C71.5978 40.7307 71.1978 40.4427 70.7178 40.24C70.2484 40.0267 69.7044 39.92 69.0858 39.92C67.8378 39.92 66.8564 40.2773 66.1418 40.992C65.4271 41.7067 64.9738 42.7093 64.7818 44H72.8938ZM64.6858 46.112C64.7284 47.04 64.8724 47.8453 65.1178 48.528C65.3631 49.2 65.6884 49.76 66.0938 50.208C66.5098 50.656 67.0004 50.992 67.5658 51.216C68.1418 51.4293 68.7818 51.536 69.4858 51.536C70.1578 51.536 70.7391 51.4613 71.2298 51.312C71.7204 51.152 72.1471 50.9813 72.5098 50.8C72.8724 50.608 73.1818 50.4373 73.4378 50.288C73.6938 50.128 73.9284 50.048 74.1418 50.048C74.4191 50.048 74.6324 50.1547 74.7818 50.368L75.7578 51.632C75.3524 52.112 74.8938 52.5173 74.3818 52.848C73.8698 53.1787 73.3258 53.4507 72.7498 53.664C72.1738 53.8667 71.5818 54.0107 70.9738 54.096C70.3658 54.192 69.7738 54.24 69.1978 54.24C68.0671 54.24 67.0164 54.0533 66.0458 53.68C65.0858 53.296 64.2484 52.736 63.5338 52C62.8298 51.264 62.2751 50.352 61.8698 49.264C61.4751 48.176 61.2778 46.9227 61.2778 45.504C61.2778 44.3733 61.4538 43.3173 61.8058 42.336C62.1684 41.3547 62.6804 40.5013 63.3418 39.776C64.0138 39.0507 64.8244 38.48 65.7738 38.064C66.7338 37.6373 67.8164 37.424 69.0218 37.424C70.0244 37.424 70.9524 37.5893 71.8058 37.92C72.6591 38.24 73.3951 38.7147 74.0138 39.344C74.6324 39.9733 75.1124 40.7467 75.4538 41.664C75.8058 42.5707 75.9818 43.6053 75.9818 44.768C75.9818 45.3013 75.9231 45.6587 75.8058 45.84C75.6884 46.0213 75.4751 46.112 75.1658 46.112H64.6858ZM84.2655 54.256C82.9108 54.256 81.8655 53.8773 81.1295 53.12C80.4042 52.352 80.0415 51.2747 80.0415 49.888V40.384H78.2495C78.0575 40.384 77.8922 40.3253 77.7535 40.208C77.6148 40.08 77.5455 39.8933 77.5455 39.648V38.256L80.1855 37.872L80.9375 33.152C80.9908 32.9707 81.0815 32.8267 81.2095 32.72C81.3375 32.6027 81.5082 32.544 81.7215 32.544H83.4815V37.904H88.0095V40.384H83.4815V49.648C83.4815 50.2347 83.6255 50.6827 83.9135 50.992C84.2015 51.3013 84.5855 51.456 85.0655 51.456C85.3322 51.456 85.5615 51.424 85.7535 51.36C85.9455 51.2853 86.1108 51.2107 86.2495 51.136C86.3882 51.0507 86.5055 50.976 86.6015 50.912C86.7082 50.8373 86.8095 50.8 86.9055 50.8C87.0975 50.8 87.2522 50.9067 87.3695 51.12L88.3935 52.8C87.8602 53.2693 87.2308 53.632 86.5055 53.888C85.7802 54.1333 85.0335 54.256 84.2655 54.256ZM107.41 46.864C106.183 46.9067 105.148 47.008 104.306 47.168C103.463 47.3173 102.78 47.5147 102.258 47.76C101.735 47.9947 101.356 48.2773 101.122 48.608C100.898 48.9387 100.786 49.3013 100.786 49.696C100.786 50.08 100.844 50.4107 100.962 50.688C101.09 50.9547 101.26 51.1787 101.474 51.36C101.698 51.5307 101.954 51.6587 102.242 51.744C102.54 51.8187 102.866 51.856 103.218 51.856C104.114 51.856 104.882 51.6907 105.522 51.36C106.172 51.0187 106.802 50.528 107.41 49.888V46.864ZM98.2898 39.952C100.135 38.2347 102.332 37.376 104.882 37.376C105.82 37.376 106.652 37.5307 107.378 37.84C108.114 38.1387 108.727 38.5653 109.218 39.12C109.719 39.6747 110.098 40.336 110.354 41.104C110.62 41.8613 110.754 42.704 110.754 43.632V54H109.218C108.887 54 108.636 53.952 108.466 53.856C108.295 53.7493 108.151 53.5413 108.034 53.232L107.698 51.904C107.282 52.2773 106.871 52.6133 106.466 52.912C106.06 53.2 105.639 53.4453 105.202 53.648C104.775 53.8507 104.311 54 103.81 54.096C103.319 54.2027 102.775 54.256 102.178 54.256C101.516 54.256 100.898 54.1653 100.322 53.984C99.7564 53.8027 99.2658 53.5307 98.8498 53.168C98.4338 52.7947 98.1031 52.336 97.8578 51.792C97.6231 51.248 97.5058 50.608 97.5058 49.872C97.5058 49.2427 97.6711 48.6293 98.0018 48.032C98.3431 47.4347 98.8978 46.9013 99.6658 46.432C100.444 45.952 101.463 45.5573 102.722 45.248C103.991 44.9387 105.554 44.7627 107.41 44.72V43.632C107.41 42.4587 107.159 41.584 106.658 41.008C106.156 40.432 105.42 40.144 104.45 40.144C103.788 40.144 103.234 40.2293 102.786 40.4C102.338 40.56 101.948 40.736 101.618 40.928C101.287 41.12 100.994 41.3013 100.738 41.472C100.482 41.632 100.21 41.712 99.9218 41.712C99.6871 41.712 99.4844 41.6533 99.3138 41.536C99.1538 41.408 99.0204 41.2533 98.9138 41.072L98.2898 39.952ZM124.528 40.64C124.442 40.7893 124.346 40.896 124.24 40.96C124.133 41.024 124 41.056 123.84 41.056C123.658 41.056 123.461 41.0027 123.248 40.896C123.034 40.7787 122.784 40.6507 122.496 40.512C122.208 40.3733 121.866 40.2507 121.472 40.144C121.088 40.0267 120.634 39.968 120.112 39.968C119.685 39.968 119.296 40.0213 118.944 40.128C118.602 40.224 118.309 40.368 118.064 40.56C117.829 40.7413 117.648 40.96 117.52 41.216C117.392 41.4613 117.328 41.728 117.328 42.016C117.328 42.4 117.445 42.72 117.68 42.976C117.914 43.232 118.224 43.456 118.608 43.648C118.992 43.8293 119.429 43.9947 119.92 44.144C120.41 44.2933 120.912 44.4533 121.424 44.624C121.936 44.7947 122.437 44.992 122.928 45.216C123.418 45.44 123.856 45.7173 124.24 46.048C124.624 46.368 124.933 46.7627 125.168 47.232C125.402 47.6907 125.52 48.2507 125.52 48.912C125.52 49.68 125.381 50.3893 125.104 51.04C124.826 51.6907 124.421 52.256 123.888 52.736C123.354 53.216 122.688 53.5893 121.888 53.856C121.098 54.1227 120.192 54.256 119.168 54.256C118.602 54.256 118.053 54.2027 117.52 54.096C116.997 54 116.496 53.8667 116.016 53.696C115.546 53.5147 115.104 53.3013 114.688 53.056C114.282 52.8107 113.92 52.544 113.6 52.256L114.4 50.944C114.496 50.784 114.613 50.6613 114.752 50.576C114.901 50.48 115.082 50.432 115.296 50.432C115.52 50.432 115.738 50.5067 115.952 50.656C116.176 50.7947 116.432 50.9493 116.72 51.12C117.018 51.2907 117.376 51.4507 117.792 51.6C118.208 51.7387 118.725 51.808 119.344 51.808C119.856 51.808 120.298 51.7493 120.672 51.632C121.045 51.504 121.354 51.3333 121.6 51.12C121.845 50.9067 122.026 50.6667 122.144 50.4C122.261 50.1227 122.32 49.8293 122.32 49.52C122.32 49.104 122.202 48.7627 121.968 48.496C121.733 48.2293 121.418 48 121.024 47.808C120.64 47.616 120.197 47.4453 119.696 47.296C119.205 47.1467 118.704 46.9867 118.192 46.816C117.68 46.6453 117.173 46.448 116.672 46.224C116.181 46 115.738 45.7173 115.344 45.376C114.96 45.024 114.65 44.6027 114.416 44.112C114.181 43.6107 114.064 43.0027 114.064 42.288C114.064 41.6373 114.192 41.0187 114.448 40.432C114.714 39.8453 115.098 39.328 115.6 38.88C116.112 38.432 116.736 38.08 117.472 37.824C118.218 37.5573 119.077 37.424 120.048 37.424C121.146 37.424 122.144 37.6 123.04 37.952C123.936 38.304 124.688 38.784 125.296 39.392L124.528 40.64ZM138.496 40.64C138.411 40.7893 138.315 40.896 138.208 40.96C138.102 41.024 137.968 41.056 137.808 41.056C137.627 41.056 137.43 41.0027 137.216 40.896C137.003 40.7787 136.752 40.6507 136.464 40.512C136.176 40.3733 135.835 40.2507 135.44 40.144C135.056 40.0267 134.603 39.968 134.08 39.968C133.654 39.968 133.264 40.0213 132.912 40.128C132.571 40.224 132.278 40.368 132.032 40.56C131.798 40.7413 131.616 40.96 131.488 41.216C131.36 41.4613 131.296 41.728 131.296 42.016C131.296 42.4 131.414 42.72 131.648 42.976C131.883 43.232 132.192 43.456 132.576 43.648C132.96 43.8293 133.398 43.9947 133.888 44.144C134.379 44.2933 134.88 44.4533 135.392 44.624C135.904 44.7947 136.406 44.992 136.896 45.216C137.387 45.44 137.824 45.7173 138.208 46.048C138.592 46.368 138.902 46.7627 139.136 47.232C139.371 47.6907 139.488 48.2507 139.488 48.912C139.488 49.68 139.35 50.3893 139.072 51.04C138.795 51.6907 138.39 52.256 137.856 52.736C137.323 53.216 136.656 53.5893 135.856 53.856C135.067 54.1227 134.16 54.256 133.136 54.256C132.571 54.256 132.022 54.2027 131.488 54.096C130.966 54 130.464 53.8667 129.984 53.696C129.515 53.5147 129.072 53.3013 128.656 53.056C128.251 52.8107 127.888 52.544 127.568 52.256L128.368 50.944C128.464 50.784 128.582 50.6613 128.72 50.576C128.87 50.48 129.051 50.432 129.264 50.432C129.488 50.432 129.707 50.5067 129.92 50.656C130.144 50.7947 130.4 50.9493 130.688 51.12C130.987 51.2907 131.344 51.4507 131.76 51.6C132.176 51.7387 132.694 51.808 133.312 51.808C133.824 51.808 134.267 51.7493 134.64 51.632C135.014 51.504 135.323 51.3333 135.568 51.12C135.814 50.9067 135.995 50.6667 136.112 50.4C136.23 50.1227 136.288 49.8293 136.288 49.52C136.288 49.104 136.171 48.7627 135.936 48.496C135.702 48.2293 135.387 48 134.992 47.808C134.608 47.616 134.166 47.4453 133.664 47.296C133.174 47.1467 132.672 46.9867 132.16 46.816C131.648 46.6453 131.142 46.448 130.64 46.224C130.15 46 129.707 45.7173 129.312 45.376C128.928 45.024 128.619 44.6027 128.384 44.112C128.15 43.6107 128.032 43.0027 128.032 42.288C128.032 41.6373 128.16 41.0187 128.416 40.432C128.683 39.8453 129.067 39.328 129.568 38.88C130.08 38.432 130.704 38.08 131.44 37.824C132.187 37.5573 133.046 37.424 134.016 37.424C135.115 37.424 136.112 37.6 137.008 37.952C137.904 38.304 138.656 38.784 139.264 39.392L138.496 40.64ZM156.481 37.68V54H154.401C153.942 54 153.649 53.7813 153.521 53.344L153.265 51.824C152.924 52.1867 152.561 52.5173 152.177 52.816C151.804 53.1147 151.404 53.3707 150.977 53.584C150.55 53.7973 150.092 53.9627 149.601 54.08C149.121 54.1973 148.604 54.256 148.049 54.256C147.153 54.256 146.364 54.1067 145.681 53.808C144.998 53.5093 144.422 53.088 143.953 52.544C143.494 52 143.148 51.3493 142.913 50.592C142.678 49.824 142.561 48.9813 142.561 48.064V37.68H146.001V48.064C146.001 49.1627 146.252 50.016 146.753 50.624C147.265 51.232 148.038 51.536 149.073 51.536C149.83 51.536 150.534 51.3653 151.185 51.024C151.846 50.672 152.465 50.192 153.041 49.584V37.68H156.481ZM163.907 40.704C164.419 39.6693 165.037 38.8587 165.763 38.272C166.488 37.6747 167.357 37.376 168.371 37.376C168.723 37.376 169.053 37.4187 169.363 37.504C169.672 37.5787 169.949 37.696 170.195 37.856L169.955 40.448C169.912 40.6293 169.843 40.7573 169.747 40.832C169.661 40.896 169.544 40.928 169.395 40.928C169.235 40.928 169.005 40.9013 168.707 40.848C168.408 40.784 168.093 40.752 167.763 40.752C167.283 40.752 166.856 40.8213 166.483 40.96C166.12 41.0987 165.789 41.3013 165.491 41.568C165.203 41.8347 164.947 42.16 164.723 42.544C164.499 42.928 164.291 43.3653 164.099 43.856V54H160.659V37.68H162.659C163.021 37.68 163.272 37.7493 163.411 37.888C163.549 38.016 163.645 38.2453 163.699 38.576L163.907 40.704ZM182.613 44C182.613 43.424 182.527 42.8907 182.357 42.4C182.197 41.8987 181.957 41.4667 181.637 41.104C181.317 40.7307 180.917 40.4427 180.437 40.24C179.967 40.0267 179.423 39.92 178.805 39.92C177.557 39.92 176.575 40.2773 175.861 40.992C175.146 41.7067 174.693 42.7093 174.501 44H182.613ZM174.405 46.112C174.447 47.04 174.591 47.8453 174.837 48.528C175.082 49.2 175.407 49.76 175.813 50.208C176.229 50.656 176.719 50.992 177.285 51.216C177.861 51.4293 178.501 51.536 179.205 51.536C179.877 51.536 180.458 51.4613 180.949 51.312C181.439 51.152 181.866 50.9813 182.229 50.8C182.591 50.608 182.901 50.4373 183.157 50.288C183.413 50.128 183.647 50.048 183.861 50.048C184.138 50.048 184.351 50.1547 184.501 50.368L185.477 51.632C185.071 52.112 184.613 52.5173 184.101 52.848C183.589 53.1787 183.045 53.4507 182.469 53.664C181.893 53.8667 181.301 54.0107 180.693 54.096C180.085 54.192 179.493 54.24 178.917 54.24C177.786 54.24 176.735 54.0533 175.765 53.68C174.805 53.296 173.967 52.736 173.253 52C172.549 51.264 171.994 50.352 171.589 49.264C171.194 48.176 170.997 46.9227 170.997 45.504C170.997 44.3733 171.173 43.3173 171.525 42.336C171.887 41.3547 172.399 40.5013 173.061 39.776C173.733 39.0507 174.543 38.48 175.493 38.064C176.453 37.6373 177.535 37.424 178.741 37.424C179.743 37.424 180.671 37.5893 181.525 37.92C182.378 38.24 183.114 38.7147 183.733 39.344C184.351 39.9733 184.831 40.7467 185.173 41.664C185.525 42.5707 185.701 43.6053 185.701 44.768C185.701 45.3013 185.642 45.6587 185.525 45.84C185.407 46.0213 185.194 46.112 184.885 46.112H174.405ZM199.325 41.696C198.845 41.0773 198.317 40.6453 197.741 40.4C197.165 40.1547 196.541 40.032 195.869 40.032C194.525 40.032 193.474 40.528 192.717 41.52C191.959 42.5013 191.581 43.9573 191.581 45.888C191.581 46.8907 191.666 47.7493 191.837 48.464C192.007 49.168 192.253 49.744 192.573 50.192C192.893 50.64 193.282 50.9653 193.741 51.168C194.199 51.3707 194.717 51.472 195.293 51.472C196.167 51.472 196.919 51.2853 197.549 50.912C198.189 50.528 198.781 49.9893 199.325 49.296V41.696ZM202.765 30.32V54H200.685C200.226 54 199.933 53.7813 199.805 53.344L199.501 51.568C198.818 52.368 198.039 53.0133 197.165 53.504C196.301 53.9947 195.293 54.24 194.141 54.24C193.223 54.24 192.391 54.0587 191.645 53.696C190.898 53.3227 190.258 52.784 189.725 52.08C189.191 51.376 188.775 50.5067 188.477 49.472C188.189 48.4267 188.045 47.232 188.045 45.888C188.045 44.672 188.205 43.5467 188.525 42.512C188.855 41.4773 189.325 40.5813 189.933 39.824C190.541 39.056 191.277 38.4587 192.141 38.032C193.015 37.5947 193.991 37.376 195.069 37.376C196.029 37.376 196.845 37.5307 197.517 37.84C198.189 38.1387 198.791 38.56 199.325 39.104V30.32H202.765ZM218.524 37.68V54.848C218.524 55.5307 218.433 56.1707 218.252 56.768C218.07 57.376 217.782 57.904 217.388 58.352C216.993 58.8 216.481 59.152 215.852 59.408C215.233 59.664 214.481 59.792 213.596 59.792C213.222 59.792 212.886 59.7653 212.588 59.712C212.289 59.6587 211.985 59.584 211.676 59.488L211.804 57.616C211.836 57.4027 211.926 57.28 212.076 57.248C212.214 57.216 212.486 57.2 212.892 57.2C213.702 57.2 214.268 57.0187 214.588 56.656C214.918 56.304 215.084 55.7013 215.084 54.848V37.68H218.524ZM219.084 32.752C219.084 33.0613 219.02 33.3547 218.892 33.632C218.774 33.9093 218.609 34.1547 218.396 34.368C218.182 34.5707 217.937 34.736 217.66 34.864C217.382 34.9813 217.084 35.04 216.764 35.04C216.454 35.04 216.161 34.9813 215.884 34.864C215.617 34.736 215.377 34.5707 215.164 34.368C214.961 34.1547 214.801 33.9093 214.684 33.632C214.566 33.3547 214.508 33.0613 214.508 32.752C214.508 32.432 214.566 32.1333 214.684 31.856C214.801 31.5787 214.961 31.3387 215.164 31.136C215.377 30.9227 215.617 30.7573 215.884 30.64C216.161 30.512 216.454 30.448 216.764 30.448C217.084 30.448 217.382 30.512 217.66 30.64C217.937 30.7573 218.182 30.9227 218.396 31.136C218.609 31.3387 218.774 31.5787 218.892 31.856C219.02 32.1333 219.084 32.432 219.084 32.752ZM229.902 37.424C231.107 37.424 232.195 37.6213 233.166 38.016C234.147 38.4107 234.979 38.9707 235.662 39.696C236.355 40.4213 236.889 41.3013 237.262 42.336C237.635 43.3707 237.822 44.5333 237.822 45.824C237.822 47.1147 237.635 48.2773 237.262 49.312C236.889 50.3467 236.355 51.232 235.662 51.968C234.979 52.6933 234.147 53.2533 233.166 53.648C232.195 54.0427 231.107 54.24 229.902 54.24C228.686 54.24 227.587 54.0427 226.606 53.648C225.635 53.2533 224.803 52.6933 224.11 51.968C223.417 51.232 222.883 50.3467 222.51 49.312C222.137 48.2773 221.95 47.1147 221.95 45.824C221.95 44.5333 222.137 43.3707 222.51 42.336C222.883 41.3013 223.417 40.4213 224.11 39.696C224.803 38.9707 225.635 38.4107 226.606 38.016C227.587 37.6213 228.686 37.424 229.902 37.424ZM229.902 51.552C231.374 51.552 232.467 51.0613 233.182 50.08C233.907 49.088 234.27 47.6747 234.27 45.84C234.27 44.0053 233.907 42.592 233.182 41.6C232.467 40.5973 231.374 40.096 229.902 40.096C228.409 40.096 227.299 40.5973 226.574 41.6C225.849 42.592 225.486 44.0053 225.486 45.84C225.486 47.6747 225.849 49.088 226.574 50.08C227.299 51.0613 228.409 51.552 229.902 51.552ZM244.567 49.904C245.047 50.5227 245.57 50.96 246.135 51.216C246.711 51.4613 247.335 51.584 248.007 51.584C249.362 51.584 250.418 51.0933 251.175 50.112C251.933 49.1307 252.311 47.6107 252.311 45.552C252.311 43.6747 251.981 42.304 251.319 41.44C250.669 40.576 249.735 40.144 248.519 40.144C247.677 40.144 246.941 40.336 246.311 40.72C245.693 41.0933 245.111 41.632 244.567 42.336V49.904ZM244.567 39.84C245.239 39.104 245.991 38.5173 246.823 38.08C247.655 37.6427 248.605 37.424 249.671 37.424C250.621 37.424 251.474 37.6107 252.231 37.984C252.999 38.3467 253.65 38.8747 254.183 39.568C254.717 40.2613 255.127 41.104 255.415 42.096C255.703 43.0773 255.847 44.1867 255.847 45.424C255.847 46.7467 255.682 47.952 255.351 49.04C255.031 50.1173 254.567 51.0453 253.959 51.824C253.351 52.592 252.615 53.1893 251.751 53.616C250.887 54.032 249.922 54.24 248.855 54.24C248.333 54.24 247.858 54.1867 247.431 54.08C247.005 53.984 246.61 53.84 246.247 53.648C245.885 53.456 245.549 53.2267 245.239 52.96C244.941 52.6933 244.653 52.3893 244.375 52.048L244.231 53.312C244.178 53.5573 244.082 53.7333 243.943 53.84C243.805 53.9467 243.613 54 243.367 54H241.127V30.32H244.567V39.84ZM268.934 40.64C268.848 40.7893 268.752 40.896 268.646 40.96C268.539 41.024 268.406 41.056 268.246 41.056C268.064 41.056 267.867 41.0027 267.654 40.896C267.44 40.7787 267.19 40.6507 266.902 40.512C266.614 40.3733 266.272 40.2507 265.878 40.144C265.494 40.0267 265.04 39.968 264.518 39.968C264.091 39.968 263.702 40.0213 263.35 40.128C263.008 40.224 262.715 40.368 262.47 40.56C262.235 40.7413 262.054 40.96 261.926 41.216C261.798 41.4613 261.734 41.728 261.734 42.016C261.734 42.4 261.851 42.72 262.086 42.976C262.32 43.232 262.63 43.456 263.014 43.648C263.398 43.8293 263.835 43.9947 264.326 44.144C264.816 44.2933 265.318 44.4533 265.83 44.624C266.342 44.7947 266.843 44.992 267.334 45.216C267.824 45.44 268.262 45.7173 268.646 46.048C269.03 46.368 269.339 46.7627 269.574 47.232C269.808 47.6907 269.926 48.2507 269.926 48.912C269.926 49.68 269.787 50.3893 269.51 51.04C269.232 51.6907 268.827 52.256 268.294 52.736C267.76 53.216 267.094 53.5893 266.294 53.856C265.504 54.1227 264.598 54.256 263.574 54.256C263.008 54.256 262.459 54.2027 261.926 54.096C261.403 54 260.902 53.8667 260.422 53.696C259.952 53.5147 259.51 53.3013 259.094 53.056C258.688 52.8107 258.326 52.544 258.006 52.256L258.806 50.944C258.902 50.784 259.019 50.6613 259.158 50.576C259.307 50.48 259.488 50.432 259.702 50.432C259.926 50.432 260.144 50.5067 260.358 50.656C260.582 50.7947 260.838 50.9493 261.126 51.12C261.424 51.2907 261.782 51.4507 262.198 51.6C262.614 51.7387 263.131 51.808 263.75 51.808C264.262 51.808 264.704 51.7493 265.078 51.632C265.451 51.504 265.76 51.3333 266.006 51.12C266.251 50.9067 266.432 50.6667 266.55 50.4C266.667 50.1227 266.726 49.8293 266.726 49.52C266.726 49.104 266.608 48.7627 266.374 48.496C266.139 48.2293 265.824 48 265.43 47.808C265.046 47.616 264.603 47.4453 264.102 47.296C263.611 47.1467 263.11 46.9867 262.598 46.816C262.086 46.6453 261.579 46.448 261.078 46.224C260.587 46 260.144 45.7173 259.75 45.376C259.366 45.024 259.056 44.6027 258.822 44.112C258.587 43.6107 258.47 43.0027 258.47 42.288C258.47 41.6373 258.598 41.0187 258.854 40.432C259.12 39.8453 259.504 39.328 260.006 38.88C260.518 38.432 261.142 38.08 261.878 37.824C262.624 37.5573 263.483 37.424 264.454 37.424C265.552 37.424 266.55 37.6 267.446 37.952C268.342 38.304 269.094 38.784 269.702 39.392L268.934 40.64ZM284.711 37.68V54H281.271V37.68H284.711ZM285.287 32.752C285.287 33.0613 285.223 33.3547 285.095 33.632C284.978 33.9093 284.813 34.1547 284.599 34.368C284.386 34.5707 284.135 34.736 283.847 34.864C283.57 34.9813 283.271 35.04 282.951 35.04C282.642 35.04 282.349 34.9813 282.071 34.864C281.805 34.736 281.57 34.5707 281.367 34.368C281.165 34.1547 280.999 33.9093 280.871 33.632C280.754 33.3547 280.695 33.0613 280.695 32.752C280.695 32.432 280.754 32.1333 280.871 31.856C280.999 31.5787 281.165 31.3387 281.367 31.136C281.57 30.9227 281.805 30.7573 282.071 30.64C282.349 30.512 282.642 30.448 282.951 30.448C283.271 30.448 283.57 30.512 283.847 30.64C284.135 30.7573 284.386 30.9227 284.599 31.136C284.813 31.3387 284.978 31.5787 285.095 31.856C285.223 32.1333 285.287 32.432 285.287 32.752ZM292.25 39.84C292.602 39.4773 292.964 39.152 293.338 38.864C293.722 38.5653 294.127 38.3093 294.554 38.096C294.98 37.8827 295.434 37.7173 295.914 37.6C296.394 37.4827 296.916 37.424 297.482 37.424C298.378 37.424 299.162 37.5733 299.834 37.872C300.516 38.1707 301.087 38.592 301.546 39.136C302.015 39.68 302.367 40.336 302.602 41.104C302.836 41.8613 302.954 42.6987 302.954 43.616V54H299.53V43.616C299.53 42.5173 299.274 41.664 298.762 41.056C298.26 40.448 297.492 40.144 296.458 40.144C295.69 40.144 294.975 40.32 294.314 40.672C293.663 41.024 293.05 41.504 292.474 42.112V54H289.034V37.68H291.114C291.583 37.68 291.882 37.8987 292.01 38.336L292.25 39.84ZM319.34 54H315.58V30.96H319.34V54ZM327.125 39.84C327.477 39.4773 327.839 39.152 328.213 38.864C328.597 38.5653 329.002 38.3093 329.429 38.096C329.855 37.8827 330.309 37.7173 330.789 37.6C331.269 37.4827 331.791 37.424 332.357 37.424C333.253 37.424 334.037 37.5733 334.709 37.872C335.391 38.1707 335.962 38.592 336.421 39.136C336.89 39.68 337.242 40.336 337.477 41.104C337.711 41.8613 337.829 42.6987 337.829 43.616V54H334.405V43.616C334.405 42.5173 334.149 41.664 333.637 41.056C333.135 40.448 332.367 40.144 331.333 40.144C330.565 40.144 329.85 40.32 329.189 40.672C328.538 41.024 327.925 41.504 327.349 42.112V54H323.909V37.68H325.989C326.458 37.68 326.757 37.8987 326.885 38.336L327.125 39.84ZM352.262 41.696C351.782 41.0773 351.254 40.6453 350.678 40.4C350.102 40.1547 349.478 40.032 348.806 40.032C347.462 40.032 346.411 40.528 345.654 41.52C344.897 42.5013 344.518 43.9573 344.518 45.888C344.518 46.8907 344.603 47.7493 344.774 48.464C344.945 49.168 345.19 49.744 345.51 50.192C345.83 50.64 346.219 50.9653 346.678 51.168C347.137 51.3707 347.654 51.472 348.23 51.472C349.105 51.472 349.857 51.2853 350.486 50.912C351.126 50.528 351.718 49.9893 352.262 49.296V41.696ZM355.702 30.32V54H353.622C353.163 54 352.87 53.7813 352.742 53.344L352.438 51.568C351.755 52.368 350.977 53.0133 350.102 53.504C349.238 53.9947 348.23 54.24 347.078 54.24C346.161 54.24 345.329 54.0587 344.582 53.696C343.835 53.3227 343.195 52.784 342.662 52.08C342.129 51.376 341.713 50.5067 341.414 49.472C341.126 48.4267 340.982 47.232 340.982 45.888C340.982 44.672 341.142 43.5467 341.462 42.512C341.793 41.4773 342.262 40.5813 342.87 39.824C343.478 39.056 344.214 38.4587 345.078 38.032C345.953 37.5947 346.929 37.376 348.006 37.376C348.966 37.376 349.782 37.5307 350.454 37.84C351.126 38.1387 351.729 38.56 352.262 39.104V30.32H355.702ZM363.493 37.68V54H360.053V37.68H363.493ZM364.069 32.752C364.069 33.0613 364.005 33.3547 363.877 33.632C363.759 33.9093 363.594 34.1547 363.381 34.368C363.167 34.5707 362.917 34.736 362.629 34.864C362.351 34.9813 362.053 35.04 361.733 35.04C361.423 35.04 361.13 34.9813 360.853 34.864C360.586 34.736 360.351 34.5707 360.149 34.368C359.946 34.1547 359.781 33.9093 359.653 33.632C359.535 33.3547 359.477 33.0613 359.477 32.752C359.477 32.432 359.535 32.1333 359.653 31.856C359.781 31.5787 359.946 31.3387 360.149 31.136C360.351 30.9227 360.586 30.7573 360.853 30.64C361.13 30.512 361.423 30.448 361.733 30.448C362.053 30.448 362.351 30.512 362.629 30.64C362.917 30.7573 363.167 30.9227 363.381 31.136C363.594 31.3387 363.759 31.5787 363.877 31.856C364.005 32.1333 364.069 32.432 364.069 32.752ZM376.535 46.864C375.308 46.9067 374.273 47.008 373.431 47.168C372.588 47.3173 371.905 47.5147 371.383 47.76C370.86 47.9947 370.481 48.2773 370.247 48.608C370.023 48.9387 369.911 49.3013 369.911 49.696C369.911 50.08 369.969 50.4107 370.087 50.688C370.215 50.9547 370.385 51.1787 370.599 51.36C370.823 51.5307 371.079 51.6587 371.367 51.744C371.665 51.8187 371.991 51.856 372.343 51.856C373.239 51.856 374.007 51.6907 374.647 51.36C375.297 51.0187 375.927 50.528 376.535 49.888V46.864ZM367.415 39.952C369.26 38.2347 371.457 37.376 374.007 37.376C374.945 37.376 375.777 37.5307 376.503 37.84C377.239 38.1387 377.852 38.5653 378.343 39.12C378.844 39.6747 379.223 40.336 379.479 41.104C379.745 41.8613 379.879 42.704 379.879 43.632V54H378.343C378.012 54 377.761 53.952 377.591 53.856C377.42 53.7493 377.276 53.5413 377.159 53.232L376.823 51.904C376.407 52.2773 375.996 52.6133 375.591 52.912C375.185 53.2 374.764 53.4453 374.327 53.648C373.9 53.8507 373.436 54 372.935 54.096C372.444 54.2027 371.9 54.256 371.303 54.256C370.641 54.256 370.023 54.1653 369.447 53.984C368.881 53.8027 368.391 53.5307 367.975 53.168C367.559 52.7947 367.228 52.336 366.983 51.792C366.748 51.248 366.631 50.608 366.631 49.872C366.631 49.2427 366.796 48.6293 367.127 48.032C367.468 47.4347 368.023 46.9013 368.791 46.432C369.569 45.952 370.588 45.5573 371.847 45.248C373.116 44.9387 374.679 44.7627 376.535 44.72V43.632C376.535 42.4587 376.284 41.584 375.783 41.008C375.281 40.432 374.545 40.144 373.575 40.144C372.913 40.144 372.359 40.2293 371.911 40.4C371.463 40.56 371.073 40.736 370.743 40.928C370.412 41.12 370.119 41.3013 369.863 41.472C369.607 41.632 369.335 41.712 369.047 41.712C368.812 41.712 368.609 41.6533 368.439 41.536C368.279 41.408 368.145 41.2533 368.039 41.072L367.415 39.952ZM386.191 30.96V35.568L385.887 38.064C385.823 38.4693 385.706 38.7893 385.535 39.024C385.364 39.248 385.082 39.36 384.687 39.36C384.346 39.36 384.084 39.248 383.903 39.024C383.722 38.7893 383.594 38.4693 383.519 38.064L383.215 35.568V30.96H386.191ZM399.528 40.64C399.442 40.7893 399.346 40.896 399.24 40.96C399.133 41.024 399 41.056 398.84 41.056C398.658 41.056 398.461 41.0027 398.248 40.896C398.034 40.7787 397.784 40.6507 397.496 40.512C397.208 40.3733 396.866 40.2507 396.472 40.144C396.088 40.0267 395.634 39.968 395.112 39.968C394.685 39.968 394.296 40.0213 393.944 40.128C393.602 40.224 393.309 40.368 393.064 40.56C392.829 40.7413 392.648 40.96 392.52 41.216C392.392 41.4613 392.328 41.728 392.328 42.016C392.328 42.4 392.445 42.72 392.68 42.976C392.914 43.232 393.224 43.456 393.608 43.648C393.992 43.8293 394.429 43.9947 394.92 44.144C395.41 44.2933 395.912 44.4533 396.424 44.624C396.936 44.7947 397.437 44.992 397.928 45.216C398.418 45.44 398.856 45.7173 399.24 46.048C399.624 46.368 399.933 46.7627 400.168 47.232C400.402 47.6907 400.52 48.2507 400.52 48.912C400.52 49.68 400.381 50.3893 400.104 51.04C399.826 51.6907 399.421 52.256 398.888 52.736C398.354 53.216 397.688 53.5893 396.888 53.856C396.098 54.1227 395.192 54.256 394.168 54.256C393.602 54.256 393.053 54.2027 392.52 54.096C391.997 54 391.496 53.8667 391.016 53.696C390.546 53.5147 390.104 53.3013 389.688 53.056C389.282 52.8107 388.92 52.544 388.6 52.256L389.4 50.944C389.496 50.784 389.613 50.6613 389.752 50.576C389.901 50.48 390.082 50.432 390.296 50.432C390.52 50.432 390.738 50.5067 390.952 50.656C391.176 50.7947 391.432 50.9493 391.72 51.12C392.018 51.2907 392.376 51.4507 392.792 51.6C393.208 51.7387 393.725 51.808 394.344 51.808C394.856 51.808 395.298 51.7493 395.672 51.632C396.045 51.504 396.354 51.3333 396.6 51.12C396.845 50.9067 397.026 50.6667 397.144 50.4C397.261 50.1227 397.32 49.8293 397.32 49.52C397.32 49.104 397.202 48.7627 396.968 48.496C396.733 48.2293 396.418 48 396.024 47.808C395.64 47.616 395.197 47.4453 394.696 47.296C394.205 47.1467 393.704 46.9867 393.192 46.816C392.68 46.6453 392.173 46.448 391.672 46.224C391.181 46 390.738 45.7173 390.344 45.376C389.96 45.024 389.65 44.6027 389.416 44.112C389.181 43.6107 389.064 43.0027 389.064 42.288C389.064 41.6373 389.192 41.0187 389.448 40.432C389.714 39.8453 390.098 39.328 390.6 38.88C391.112 38.432 391.736 38.08 392.472 37.824C393.218 37.5573 394.077 37.424 395.048 37.424C396.146 37.424 397.144 37.6 398.04 37.952C398.936 38.304 399.688 38.784 400.296 39.392L399.528 40.64ZM416.953 54.256C415.598 54.256 414.553 53.8773 413.817 53.12C413.092 52.352 412.729 51.2747 412.729 49.888V40.384H410.937C410.745 40.384 410.58 40.3253 410.441 40.208C410.302 40.08 410.233 39.8933 410.233 39.648V38.256L412.873 37.872L413.625 33.152C413.678 32.9707 413.769 32.8267 413.897 32.72C414.025 32.6027 414.196 32.544 414.409 32.544H416.169V37.904H420.697V40.384H416.169V49.648C416.169 50.2347 416.313 50.6827 416.601 50.992C416.889 51.3013 417.273 51.456 417.753 51.456C418.02 51.456 418.249 51.424 418.441 51.36C418.633 51.2853 418.798 51.2107 418.937 51.136C419.076 51.0507 419.193 50.976 419.289 50.912C419.396 50.8373 419.497 50.8 419.593 50.8C419.785 50.8 419.94 50.9067 420.057 51.12L421.081 52.8C420.548 53.2693 419.918 53.632 419.193 53.888C418.468 54.1333 417.721 54.256 416.953 54.256ZM430.34 37.424C431.545 37.424 432.633 37.6213 433.604 38.016C434.585 38.4107 435.417 38.9707 436.1 39.696C436.793 40.4213 437.326 41.3013 437.7 42.336C438.073 43.3707 438.26 44.5333 438.26 45.824C438.26 47.1147 438.073 48.2773 437.7 49.312C437.326 50.3467 436.793 51.232 436.1 51.968C435.417 52.6933 434.585 53.2533 433.604 53.648C432.633 54.0427 431.545 54.24 430.34 54.24C429.124 54.24 428.025 54.0427 427.044 53.648C426.073 53.2533 425.241 52.6933 424.548 51.968C423.854 51.232 423.321 50.3467 422.948 49.312C422.574 48.2773 422.388 47.1147 422.388 45.824C422.388 44.5333 422.574 43.3707 422.948 42.336C423.321 41.3013 423.854 40.4213 424.548 39.696C425.241 38.9707 426.073 38.4107 427.044 38.016C428.025 37.6213 429.124 37.424 430.34 37.424ZM430.34 51.552C431.812 51.552 432.905 51.0613 433.62 50.08C434.345 49.088 434.708 47.6747 434.708 45.84C434.708 44.0053 434.345 42.592 433.62 41.6C432.905 40.5973 431.812 40.096 430.34 40.096C428.846 40.096 427.737 40.5973 427.012 41.6C426.286 42.592 425.924 44.0053 425.924 45.84C425.924 47.6747 426.286 49.088 427.012 50.08C427.737 51.0613 428.846 51.552 430.34 51.552ZM445.005 49.904C445.485 50.5227 446.007 50.96 446.573 51.216C447.149 51.4613 447.783 51.584 448.477 51.584C449.821 51.584 450.866 51.0933 451.613 50.112C452.37 49.1307 452.749 47.6693 452.749 45.728C452.749 44.7253 452.663 43.872 452.493 43.168C452.322 42.4533 452.077 41.872 451.757 41.424C451.437 40.976 451.047 40.6507 450.589 40.448C450.13 40.2453 449.613 40.144 449.037 40.144C448.162 40.144 447.405 40.336 446.765 40.72C446.135 41.0933 445.549 41.632 445.005 42.336V49.904ZM444.829 40.048C445.511 39.248 446.285 38.6027 447.149 38.112C448.023 37.6213 449.037 37.376 450.189 37.376C451.106 37.376 451.938 37.5627 452.685 37.936C453.431 38.2987 454.071 38.832 454.605 39.536C455.138 40.24 455.549 41.1147 455.837 42.16C456.135 43.1947 456.285 44.384 456.285 45.728C456.285 46.9333 456.119 48.0587 455.789 49.104C455.469 50.1387 455.005 51.04 454.397 51.808C453.789 52.5653 453.053 53.1627 452.189 53.6C451.325 54.0267 450.349 54.24 449.261 54.24C448.301 54.24 447.485 54.0853 446.813 53.776C446.151 53.4667 445.549 53.04 445.005 52.496V59.424H441.565V37.68H443.645C444.114 37.68 444.413 37.8987 444.541 38.336L444.829 40.048ZM42.536 87.904C43.016 88.5227 43.5387 88.96 44.104 89.216C44.68 89.4613 45.3147 89.584 46.008 89.584C47.352 89.584 48.3973 89.0933 49.144 88.112C49.9013 87.1307 50.28 85.6693 50.28 83.728C50.28 82.7253 50.1947 81.872 50.024 81.168C49.8533 80.4533 49.608 79.872 49.288 79.424C48.968 78.976 48.5787 78.6507 48.12 78.448C47.6613 78.2453 47.144 78.144 46.568 78.144C45.6933 78.144 44.936 78.336 44.296 78.72C43.6667 79.0933 43.08 79.632 42.536 80.336V87.904ZM42.36 78.048C43.0427 77.248 43.816 76.6027 44.68 76.112C45.5547 75.6213 46.568 75.376 47.72 75.376C48.6373 75.376 49.4693 75.5627 50.216 75.936C50.9627 76.2987 51.6027 76.832 52.136 77.536C52.6693 78.24 53.08 79.1147 53.368 80.16C53.6667 81.1947 53.816 82.384 53.816 83.728C53.816 84.9333 53.6507 86.0587 53.32 87.104C53 88.1387 52.536 89.04 51.928 89.808C51.32 90.5653 50.584 91.1627 49.72 91.6C48.856 92.0267 47.88 92.24 46.792 92.24C45.832 92.24 45.016 92.0853 44.344 91.776C43.6827 91.4667 43.08 91.04 42.536 90.496V97.424H39.096V75.68H41.176C41.6453 75.68 41.944 75.8987 42.072 76.336L42.36 78.048ZM60.4065 78.704C60.9185 77.6693 61.5372 76.8587 62.2625 76.272C62.9878 75.6747 63.8572 75.376 64.8705 75.376C65.2225 75.376 65.5532 75.4187 65.8625 75.504C66.1718 75.5787 66.4492 75.696 66.6945 75.856L66.4545 78.448C66.4118 78.6293 66.3425 78.7573 66.2465 78.832C66.1612 78.896 66.0438 78.928 65.8945 78.928C65.7345 78.928 65.5052 78.9013 65.2065 78.848C64.9078 78.784 64.5932 78.752 64.2625 78.752C63.7825 78.752 63.3558 78.8213 62.9825 78.96C62.6198 79.0987 62.2892 79.3013 61.9905 79.568C61.7025 79.8347 61.4465 80.16 61.2225 80.544C60.9985 80.928 60.7905 81.3653 60.5985 81.856V92H57.1585V75.68H59.1585C59.5212 75.68 59.7718 75.7493 59.9105 75.888C60.0492 76.016 60.1452 76.2453 60.1985 76.576L60.4065 78.704ZM72.555 75.68V92H69.115V75.68H72.555ZM73.131 70.752C73.131 71.0613 73.067 71.3547 72.939 71.632C72.8217 71.9093 72.6563 72.1547 72.443 72.368C72.2297 72.5707 71.979 72.736 71.691 72.864C71.4137 72.9813 71.115 73.04 70.795 73.04C70.4857 73.04 70.1923 72.9813 69.915 72.864C69.6483 72.736 69.4137 72.5707 69.211 72.368C69.0083 72.1547 68.843 71.9093 68.715 71.632C68.5977 71.3547 68.539 71.0613 68.539 70.752C68.539 70.432 68.5977 70.1333 68.715 69.856C68.843 69.5787 69.0083 69.3387 69.211 69.136C69.4137 68.9227 69.6483 68.7573 69.915 68.64C70.1923 68.512 70.4857 68.448 70.795 68.448C71.115 68.448 71.4137 68.512 71.691 68.64C71.979 68.7573 72.2297 68.9227 72.443 69.136C72.6563 69.3387 72.8217 69.5787 72.939 69.856C73.067 70.1333 73.131 70.432 73.131 70.752ZM91.2453 75.68L84.6853 92H81.5813L75.0213 75.68H77.8533C78.1199 75.68 78.3386 75.7493 78.5093 75.888C78.6906 76.016 78.8079 76.1707 78.8613 76.352L82.4773 85.856C82.6266 86.304 82.7599 86.7467 82.8773 87.184C82.9946 87.6213 83.0959 88.064 83.1813 88.512C83.2666 88.064 83.3679 87.6267 83.4853 87.2C83.6133 86.7627 83.7519 86.3147 83.9013 85.856L87.5813 76.352C87.6453 76.16 87.7626 76 87.9333 75.872C88.1039 75.744 88.3119 75.68 88.5573 75.68H91.2453ZM101.941 84.864C100.714 84.9067 99.6797 85.008 98.837 85.168C97.9943 85.3173 97.3117 85.5147 96.789 85.76C96.2663 85.9947 95.8877 86.2773 95.653 86.608C95.429 86.9387 95.317 87.3013 95.317 87.696C95.317 88.08 95.3757 88.4107 95.493 88.688C95.621 88.9547 95.7917 89.1787 96.005 89.36C96.229 89.5307 96.485 89.6587 96.773 89.744C97.0717 89.8187 97.397 89.856 97.749 89.856C98.645 89.856 99.413 89.6907 100.053 89.36C100.704 89.0187 101.333 88.528 101.941 87.888V84.864ZM92.821 77.952C94.6663 76.2347 96.8637 75.376 99.413 75.376C100.352 75.376 101.184 75.5307 101.909 75.84C102.645 76.1387 103.258 76.5653 103.749 77.12C104.25 77.6747 104.629 78.336 104.885 79.104C105.152 79.8613 105.285 80.704 105.285 81.632V92H103.749C103.418 92 103.168 91.952 102.997 91.856C102.826 91.7493 102.682 91.5413 102.565 91.232L102.229 89.904C101.813 90.2773 101.402 90.6133 100.997 90.912C100.592 91.2 100.17 91.4453 99.733 91.648C99.3063 91.8507 98.8423 92 98.341 92.096C97.8503 92.2027 97.3063 92.256 96.709 92.256C96.0477 92.256 95.429 92.1653 94.853 91.984C94.2877 91.8027 93.797 91.5307 93.381 91.168C92.965 90.7947 92.6343 90.336 92.389 89.792C92.1543 89.248 92.037 88.608 92.037 87.872C92.037 87.2427 92.2023 86.6293 92.533 86.032C92.8743 85.4347 93.429 84.9013 94.197 84.432C94.9757 83.952 95.9943 83.5573 97.253 83.248C98.5223 82.9387 100.085 82.7627 101.941 82.72V81.632C101.941 80.4587 101.69 79.584 101.189 79.008C100.688 78.432 99.9517 78.144 98.981 78.144C98.3197 78.144 97.765 78.2293 97.317 78.4C96.869 78.56 96.4797 78.736 96.149 78.928C95.8183 79.12 95.525 79.3013 95.269 79.472C95.013 79.632 94.741 79.712 94.453 79.712C94.2183 79.712 94.0157 79.6533 93.845 79.536C93.685 79.408 93.5517 79.2533 93.445 79.072L92.821 77.952ZM114.328 92.256C112.973 92.256 111.928 91.8773 111.192 91.12C110.467 90.352 110.104 89.2747 110.104 87.888V78.384H108.312C108.12 78.384 107.955 78.3253 107.816 78.208C107.677 78.08 107.608 77.8933 107.608 77.648V76.256L110.248 75.872L111 71.152C111.053 70.9707 111.144 70.8267 111.272 70.72C111.4 70.6027 111.571 70.544 111.784 70.544H113.544V75.904H118.072V78.384H113.544V87.648C113.544 88.2347 113.688 88.6827 113.976 88.992C114.264 89.3013 114.648 89.456 115.128 89.456C115.395 89.456 115.624 89.424 115.816 89.36C116.008 89.2853 116.173 89.2107 116.312 89.136C116.451 89.0507 116.568 88.976 116.664 88.912C116.771 88.8373 116.872 88.8 116.968 88.8C117.16 88.8 117.315 88.9067 117.432 89.12L118.456 90.8C117.923 91.2693 117.293 91.632 116.568 91.888C115.843 92.1333 115.096 92.256 114.328 92.256ZM131.363 82C131.363 81.424 131.277 80.8907 131.107 80.4C130.947 79.8987 130.707 79.4667 130.387 79.104C130.067 78.7307 129.667 78.4427 129.187 78.24C128.717 78.0267 128.173 77.92 127.555 77.92C126.307 77.92 125.325 78.2773 124.611 78.992C123.896 79.7067 123.443 80.7093 123.251 82H131.363ZM123.155 84.112C123.197 85.04 123.341 85.8453 123.587 86.528C123.832 87.2 124.157 87.76 124.563 88.208C124.979 88.656 125.469 88.992 126.035 89.216C126.611 89.4293 127.251 89.536 127.955 89.536C128.627 89.536 129.208 89.4613 129.699 89.312C130.189 89.152 130.616 88.9813 130.979 88.8C131.341 88.608 131.651 88.4373 131.907 88.288C132.163 88.128 132.397 88.048 132.611 88.048C132.888 88.048 133.101 88.1547 133.251 88.368L134.227 89.632C133.821 90.112 133.363 90.5173 132.851 90.848C132.339 91.1787 131.795 91.4507 131.219 91.664C130.643 91.8667 130.051 92.0107 129.443 92.096C128.835 92.192 128.243 92.24 127.667 92.24C126.536 92.24 125.485 92.0533 124.515 91.68C123.555 91.296 122.717 90.736 122.003 90C121.299 89.264 120.744 88.352 120.339 87.264C119.944 86.176 119.747 84.9227 119.747 83.504C119.747 82.3733 119.923 81.3173 120.275 80.336C120.637 79.3547 121.149 78.5013 121.811 77.776C122.483 77.0507 123.293 76.48 124.243 76.064C125.203 75.6373 126.285 75.424 127.491 75.424C128.493 75.424 129.421 75.5893 130.275 75.92C131.128 76.24 131.864 76.7147 132.483 77.344C133.101 77.9733 133.581 78.7467 133.923 79.664C134.275 80.5707 134.451 81.6053 134.451 82.768C134.451 83.3013 134.392 83.6587 134.275 83.84C134.157 84.0213 133.944 84.112 133.635 84.112H123.155ZM149.067 87.904C149.547 88.5227 150.07 88.96 150.635 89.216C151.211 89.4613 151.835 89.584 152.507 89.584C153.862 89.584 154.918 89.0933 155.675 88.112C156.433 87.1307 156.811 85.6107 156.811 83.552C156.811 81.6747 156.481 80.304 155.819 79.44C155.169 78.576 154.235 78.144 153.019 78.144C152.177 78.144 151.441 78.336 150.811 78.72C150.193 79.0933 149.611 79.632 149.067 80.336V87.904ZM149.067 77.84C149.739 77.104 150.491 76.5173 151.323 76.08C152.155 75.6427 153.105 75.424 154.171 75.424C155.121 75.424 155.974 75.6107 156.731 75.984C157.499 76.3467 158.15 76.8747 158.683 77.568C159.217 78.2613 159.627 79.104 159.915 80.096C160.203 81.0773 160.347 82.1867 160.347 83.424C160.347 84.7467 160.182 85.952 159.851 87.04C159.531 88.1173 159.067 89.0453 158.459 89.824C157.851 90.592 157.115 91.1893 156.251 91.616C155.387 92.032 154.422 92.24 153.355 92.24C152.833 92.24 152.358 92.1867 151.931 92.08C151.505 91.984 151.11 91.84 150.747 91.648C150.385 91.456 150.049 91.2267 149.739 90.96C149.441 90.6933 149.153 90.3893 148.875 90.048L148.731 91.312C148.678 91.5573 148.582 91.7333 148.443 91.84C148.305 91.9467 148.113 92 147.867 92H145.627V68.32H149.067V77.84ZM172.41 84.864C171.183 84.9067 170.148 85.008 169.306 85.168C168.463 85.3173 167.78 85.5147 167.258 85.76C166.735 85.9947 166.356 86.2773 166.122 86.608C165.898 86.9387 165.786 87.3013 165.786 87.696C165.786 88.08 165.844 88.4107 165.962 88.688C166.09 88.9547 166.26 89.1787 166.474 89.36C166.698 89.5307 166.954 89.6587 167.242 89.744C167.54 89.8187 167.866 89.856 168.218 89.856C169.114 89.856 169.882 89.6907 170.522 89.36C171.172 89.0187 171.802 88.528 172.41 87.888V84.864ZM163.29 77.952C165.135 76.2347 167.332 75.376 169.882 75.376C170.82 75.376 171.652 75.5307 172.378 75.84C173.114 76.1387 173.727 76.5653 174.218 77.12C174.719 77.6747 175.098 78.336 175.354 79.104C175.62 79.8613 175.754 80.704 175.754 81.632V92H174.218C173.887 92 173.636 91.952 173.466 91.856C173.295 91.7493 173.151 91.5413 173.034 91.232L172.698 89.904C172.282 90.2773 171.871 90.6133 171.466 90.912C171.06 91.2 170.639 91.4453 170.202 91.648C169.775 91.8507 169.311 92 168.81 92.096C168.319 92.2027 167.775 92.256 167.178 92.256C166.516 92.256 165.898 92.1653 165.322 91.984C164.756 91.8027 164.266 91.5307 163.85 91.168C163.434 90.7947 163.103 90.336 162.858 89.792C162.623 89.248 162.506 88.608 162.506 87.872C162.506 87.2427 162.671 86.6293 163.002 86.032C163.343 85.4347 163.898 84.9013 164.666 84.432C165.444 83.952 166.463 83.5573 167.722 83.248C168.991 82.9387 170.554 82.7627 172.41 82.72V81.632C172.41 80.4587 172.159 79.584 171.658 79.008C171.156 78.432 170.42 78.144 169.45 78.144C168.788 78.144 168.234 78.2293 167.786 78.4C167.338 78.56 166.948 78.736 166.618 78.928C166.287 79.12 165.994 79.3013 165.738 79.472C165.482 79.632 165.21 79.712 164.922 79.712C164.687 79.712 164.484 79.6533 164.314 79.536C164.154 79.408 164.02 79.2533 163.914 79.072L163.29 77.952ZM183 77.84C183.352 77.4773 183.714 77.152 184.088 76.864C184.472 76.5653 184.877 76.3093 185.304 76.096C185.73 75.8827 186.184 75.7173 186.664 75.6C187.144 75.4827 187.666 75.424 188.232 75.424C189.128 75.424 189.912 75.5733 190.584 75.872C191.266 76.1707 191.837 76.592 192.296 77.136C192.765 77.68 193.117 78.336 193.352 79.104C193.586 79.8613 193.704 80.6987 193.704 81.616V92H190.28V81.616C190.28 80.5173 190.024 79.664 189.512 79.056C189.01 78.448 188.242 78.144 187.208 78.144C186.44 78.144 185.725 78.32 185.064 78.672C184.413 79.024 183.8 79.504 183.224 80.112V92H179.784V75.68H181.864C182.333 75.68 182.632 75.8987 182.76 76.336L183 77.84ZM201.161 68.32V82.048H201.897C202.132 82.048 202.324 82.016 202.473 81.952C202.622 81.888 202.777 81.7547 202.937 81.552L207.513 76.32C207.673 76.1067 207.849 75.9467 208.041 75.84C208.233 75.7333 208.478 75.68 208.777 75.68H211.897L206.393 81.888C206.073 82.304 205.721 82.6347 205.337 82.88C205.55 83.0293 205.737 83.2 205.897 83.392C206.057 83.5733 206.212 83.7813 206.361 84.016L212.233 92H209.161C208.884 92 208.644 91.9573 208.441 91.872C208.249 91.776 208.078 91.6053 207.929 91.36L203.209 84.96C203.049 84.7147 202.889 84.56 202.729 84.496C202.569 84.4213 202.329 84.384 202.009 84.384H201.161V92H197.721V68.32H201.161ZM224.184 78.64C224.098 78.7893 224.002 78.896 223.896 78.96C223.789 79.024 223.656 79.056 223.496 79.056C223.314 79.056 223.117 79.0027 222.904 78.896C222.69 78.7787 222.44 78.6507 222.152 78.512C221.864 78.3733 221.522 78.2507 221.128 78.144C220.744 78.0267 220.29 77.968 219.768 77.968C219.341 77.968 218.952 78.0213 218.6 78.128C218.258 78.224 217.965 78.368 217.72 78.56C217.485 78.7413 217.304 78.96 217.176 79.216C217.048 79.4613 216.984 79.728 216.984 80.016C216.984 80.4 217.101 80.72 217.336 80.976C217.57 81.232 217.88 81.456 218.264 81.648C218.648 81.8293 219.085 81.9947 219.576 82.144C220.066 82.2933 220.568 82.4533 221.08 82.624C221.592 82.7947 222.093 82.992 222.584 83.216C223.074 83.44 223.512 83.7173 223.896 84.048C224.28 84.368 224.589 84.7627 224.824 85.232C225.058 85.6907 225.176 86.2507 225.176 86.912C225.176 87.68 225.037 88.3893 224.76 89.04C224.482 89.6907 224.077 90.256 223.544 90.736C223.01 91.216 222.344 91.5893 221.544 91.856C220.754 92.1227 219.848 92.256 218.824 92.256C218.258 92.256 217.709 92.2027 217.176 92.096C216.653 92 216.152 91.8667 215.672 91.696C215.202 91.5147 214.76 91.3013 214.344 91.056C213.938 90.8107 213.576 90.544 213.256 90.256L214.056 88.944C214.152 88.784 214.269 88.6613 214.408 88.576C214.557 88.48 214.738 88.432 214.952 88.432C215.176 88.432 215.394 88.5067 215.608 88.656C215.832 88.7947 216.088 88.9493 216.376 89.12C216.674 89.2907 217.032 89.4507 217.448 89.6C217.864 89.7387 218.381 89.808 219 89.808C219.512 89.808 219.954 89.7493 220.328 89.632C220.701 89.504 221.01 89.3333 221.256 89.12C221.501 88.9067 221.682 88.6667 221.8 88.4C221.917 88.1227 221.976 87.8293 221.976 87.52C221.976 87.104 221.858 86.7627 221.624 86.496C221.389 86.2293 221.074 86 220.68 85.808C220.296 85.616 219.853 85.4453 219.352 85.296C218.861 85.1467 218.36 84.9867 217.848 84.816C217.336 84.6453 216.829 84.448 216.328 84.224C215.837 84 215.394 83.7173 215 83.376C214.616 83.024 214.306 82.6027 214.072 82.112C213.837 81.6107 213.72 81.0027 213.72 80.288C213.72 79.6373 213.848 79.0187 214.104 78.432C214.37 77.8453 214.754 77.328 215.256 76.88C215.768 76.432 216.392 76.08 217.128 75.824C217.874 75.5573 218.733 75.424 219.704 75.424C220.802 75.424 221.8 75.6 222.696 75.952C223.592 76.304 224.344 76.784 224.952 77.392L224.184 78.64Z" fill="white"/>
<path d="M501.063 212.214H468.178V157.276H501.063V212.214Z" fill="#B2B2B2"/>
<path d="M468.309 212.214H435.424V157.276H468.309V212.214Z" fill="#D1D1D1"/>
<path d="M465.355 105.326L461.394 124.29L473.764 125.882C473.764 125.882 474.837 106.175 473.764 106.069C472.692 105.973 465.355 105.326 465.355 105.326Z" fill="#A8754B"/>
<path d="M476.928 86.2769C476.928 86.2769 464.569 88.0182 462.35 106.823C462.35 106.823 466.289 111.059 471.311 109.753L476.928 86.2769Z" fill="#FFD686"/>
<path d="M482.29 85.629C482.29 85.629 494.331 84.4398 498.568 92.9237C502.815 101.408 490.435 110.242 494.682 129.683L467.988 128.271V111.123C467.988 111.123 463.125 104.03 470.016 96.4276C470.016 96.4276 470.43 84.8752 482.29 85.629Z" fill="#FFD686"/>
<path d="M442.579 132.434C442.579 132.434 433.925 129.227 431.6 137.626C429.274 146.014 419.633 200.857 419.633 200.857H427.363L431.908 179.058C431.908 179.058 438.321 171.912 440.285 156.738L467.255 153.521L442.579 132.434Z" fill="#B5845B"/>
<path d="M460.269 152.502C460.269 152.502 455.681 152.374 447.537 149.784C439.393 147.182 433.585 149.932 436.792 159.106C439.999 168.27 456.202 210.742 456.202 210.742L462.339 208.905L457.041 181.404C457.041 181.404 455.798 167.76 450.043 159.765C450.043 159.765 462.148 160.37 466.289 159.733C470.409 159.106 460.269 152.502 460.269 152.502Z" fill="#A8754B"/>
<path d="M494.682 129.684C494.682 129.684 504.472 141.99 492.696 154.073C492.696 154.073 486.633 161.134 459.908 160.03C459.908 160.03 452.9 136.373 437.992 130.013L468.848 125.882L494.682 129.684Z" fill="#0C2C40"/>
<path d="M481.632 54.2102C481.632 54.2102 478.447 41.2456 489.479 41.1712C497.644 41.1181 500.076 50.8761 490.063 57.4063L481.632 54.2102Z" fill="#190D08"/>
<path d="M490.435 59.7636C490.435 59.7636 492.431 54.6669 486.739 52.0867C481.048 49.5065 479.232 55.6119 479.232 55.6119L490.435 59.7636Z" fill="#FD6C75"/>
<path d="M468.816 71.3585C468.816 71.3585 460.598 66.4955 469.485 56.7268C475.038 50.6214 484.764 50.9612 490.18 57.0135C495.595 63.0658 490.488 73.737 490.488 73.737L486.803 67.6104L483.575 62.8534L478.956 61.0059L475.336 61.2607L472.267 61.6536L469.793 62.6942L468.816 71.3585Z" fill="#27160C"/>
<path d="M475.529 75.288L484.765 74.1017L486.635 88.657L477.398 89.8434L475.529 75.288Z" fill="#B5845B"/>
<path d="M485.731 78.4302C485.731 78.4302 484.733 83.7286 480.475 84.801C479.147 85.1302 477.703 84.7479 476.896 83.6543C476.673 83.357 476.514 83.0172 476.461 82.6349C476.259 81.1059 480.294 78.4302 480.294 78.4302H485.731Z" fill="#A8754B"/>
<path d="M479.222 82.1996L479.7 82.1359C484.998 81.4563 488.746 76.6039 488.067 71.3054L487.525 67.1007C486.846 61.8023 481.993 58.0541 476.695 58.7336L476.217 58.7973C470.918 59.4769 467.17 64.3294 467.85 69.6278L468.391 73.8325C469.071 79.131 473.923 82.8792 479.222 82.1996Z" fill="#B5845B"/>
<path d="M487.026 70.2542C487.026 70.2542 480.379 68.0881 480.549 60.6236C480.549 60.6236 480.124 55.0597 485.943 60.2095C491.762 65.3592 487.026 70.2542 487.026 70.2542Z" fill="#27160C"/>
<path d="M485.561 72.2929C485.794 74.0767 487.419 75.3403 489.213 75.1067C490.997 74.8731 492.261 73.2485 492.027 71.4647C491.794 69.6808 490.169 68.4173 488.375 68.6509C486.591 68.8738 485.327 70.5091 485.561 72.2929Z" fill="#B5845B"/>
<path d="M483.427 66.5166L483.724 68.8738C484.403 72.1973 485.805 71.1885 486.315 69.7551L483.427 66.5166Z" fill="#27160C"/>
<path d="M466.83 65.3169C466.83 65.3169 473.615 70.403 483.565 62.8641C490.424 57.6719 480.05 55.8031 480.05 55.8031L470.377 57.7993L466.83 65.3169Z" fill="#27160C"/>
<path d="M486.623 88.6448C486.623 88.6448 480.815 99.008 476.695 95.8226C472.246 92.3824 482.29 85.6293 482.29 85.6293L486.623 88.6448Z" fill="#B5845B"/>
<path d="M484.053 109.753C484.053 109.753 480.464 116.368 478.011 121.561L451.848 120.053C451.848 120.053 446.656 115.806 442.589 119.395L446.603 124.215L479.36 131.467C480.613 131.743 481.919 131.382 482.843 130.512C485.741 127.772 492.048 121.391 495.106 114.882L484.053 109.753Z" fill="#B5845B"/>
<path d="M411.436 99.5494H443.588C444.649 99.5494 445.562 100.293 445.775 101.323L451.827 129.726C452.124 131.117 451.063 132.434 449.64 132.434H416.947C415.874 132.434 414.951 131.669 414.749 130.618L409.227 102.215C408.973 100.834 410.034 99.5494 411.436 99.5494Z" fill="#B2B2B2"/>
<path d="M409.588 99.5494H441.74C442.802 99.5494 443.715 100.293 443.927 101.323L449.98 129.726C450.277 131.117 449.215 132.434 447.792 132.434H415.099C414.027 132.434 413.103 131.669 412.901 130.618L407.38 102.215C407.125 100.834 408.176 99.5494 409.588 99.5494Z" fill="#D1D1D1"/>
<path d="M450.978 130.013H472.947C473.615 130.013 474.157 130.554 474.157 131.223C474.157 131.892 473.615 132.434 472.947 132.434H450.553L450.978 130.013Z" fill="#B2B2B2"/>
<path d="M429.497 115.254C429.497 117.186 427.926 118.758 425.993 118.758C424.061 118.758 422.489 117.186 422.489 115.254C422.489 113.321 424.061 111.75 425.993 111.75C427.926 111.75 429.497 113.311 429.497 115.254Z" fill="white"/>
<path d="M495.106 88.7934C495.542 88.9846 509.951 96.0669 495.775 118.014C495.775 118.014 486.718 118.163 481.473 111.421C481.462 111.421 483.204 83.5693 495.106 88.7934Z" fill="#FFD686"/>
<path d="M464.006 207.705C463.815 207.132 463.189 206.92 462.764 207.291C461.936 208.024 460.449 208.926 458.262 208.703C455.979 208.48 455.129 207.132 454.8 206.166C454.63 205.656 454.142 205.401 453.707 205.614L439.882 212.558C439.043 212.982 438.385 213.768 438.066 214.745C437.758 215.669 438.374 216.656 439.245 216.635L463.125 215.977C464.07 215.956 464.781 215.032 464.707 213.959L464.314 208.693C464.303 208.608 464.293 208.523 464.261 208.438L464.006 207.705Z" fill="#FD6C75"/>
<path d="M429.147 198.616C429.104 198.011 428.563 197.639 428.064 197.894C427.076 198.382 425.409 198.86 423.349 198.075C421.215 197.257 420.737 195.739 420.674 194.719C420.642 194.188 420.238 193.806 419.761 193.902L404.598 196.992C403.674 197.183 402.835 197.767 402.262 198.627C401.72 199.434 402.06 200.549 402.899 200.75L426.121 206.367C427.034 206.59 427.968 205.889 428.17 204.828L429.168 199.646C429.189 199.561 429.189 199.476 429.189 199.381L429.147 198.616Z" fill="#FD6C75"/>
<rect x="37" y="129" width="150" height="51" rx="10" fill="url(#paint1_linear_19_553)"/>
<path d="M67.8085 160.666C67.9795 160.666 68.128 160.734 68.254 160.869L69.5095 162.232C68.7175 163.186 67.7455 163.924 66.5935 164.446C65.4415 164.96 64.0645 165.216 62.4625 165.216C61.0405 165.216 59.7535 164.973 58.6015 164.487C57.4585 163.992 56.482 163.308 55.672 162.435C54.862 161.553 54.2365 160.504 53.7955 159.289C53.3635 158.074 53.1475 156.738 53.1475 155.28C53.1475 153.822 53.377 152.485 53.836 151.27C54.304 150.046 54.9565 148.998 55.7935 148.125C56.6395 147.243 57.6475 146.559 58.8175 146.073C59.9965 145.587 61.2925 145.344 62.7055 145.344C64.1095 145.344 65.347 145.573 66.418 146.032C67.498 146.482 68.434 147.085 69.226 147.841L68.1865 149.313C68.1145 149.412 68.029 149.497 67.93 149.569C67.831 149.641 67.696 149.677 67.525 149.677C67.345 149.677 67.138 149.596 66.904 149.435C66.679 149.263 66.3865 149.079 66.0265 148.881C65.6755 148.674 65.23 148.489 64.69 148.327C64.159 148.156 63.493 148.071 62.692 148.071C61.765 148.071 60.9145 148.233 60.1405 148.557C59.3665 148.881 58.7005 149.353 58.1425 149.974C57.5845 150.595 57.148 151.351 56.833 152.242C56.527 153.133 56.374 154.146 56.374 155.28C56.374 156.423 56.536 157.444 56.86 158.344C57.184 159.235 57.6295 159.991 58.1965 160.612C58.7635 161.224 59.4295 161.692 60.1945 162.016C60.9595 162.34 61.783 162.502 62.665 162.502C63.205 162.502 63.6865 162.475 64.1095 162.421C64.5415 162.358 64.9375 162.264 65.2975 162.138C65.6575 162.003 65.995 161.836 66.31 161.638C66.634 161.44 66.9535 161.197 67.2685 160.909C67.4485 160.747 67.6285 160.666 67.8085 160.666ZM74.6547 145.02V165H71.7522V145.02H74.6547ZM81.2613 151.23V165H78.3588V151.23H81.2613ZM81.7473 147.072C81.7473 147.333 81.6933 147.58 81.5853 147.814C81.4863 148.048 81.3468 148.255 81.1668 148.435C80.9868 148.606 80.7753 148.746 80.5323 148.854C80.2983 148.953 80.0463 149.002 79.7763 149.002C79.5153 149.002 79.2678 148.953 79.0338 148.854C78.8088 148.746 78.6108 148.606 78.4398 148.435C78.2688 148.255 78.1293 148.048 78.0213 147.814C77.9223 147.58 77.8728 147.333 77.8728 147.072C77.8728 146.802 77.9223 146.55 78.0213 146.316C78.1293 146.082 78.2688 145.879 78.4398 145.708C78.6108 145.528 78.8088 145.389 79.0338 145.29C79.2678 145.182 79.5153 145.128 79.7763 145.128C80.0463 145.128 80.2983 145.182 80.5323 145.29C80.7753 145.389 80.9868 145.528 81.1668 145.708C81.3468 145.879 81.4863 146.082 81.5853 146.316C81.6933 146.55 81.7473 146.802 81.7473 147.072ZM94.6416 153.93C94.5516 154.047 94.4661 154.137 94.3851 154.2C94.3041 154.263 94.1871 154.294 94.0341 154.294C93.8811 154.294 93.7191 154.24 93.5481 154.132C93.3861 154.024 93.1881 153.907 92.9541 153.781C92.7291 153.646 92.4546 153.525 92.1306 153.417C91.8066 153.309 91.4016 153.255 90.9156 153.255C90.2856 153.255 89.7321 153.367 89.2551 153.592C88.7871 153.817 88.3911 154.141 88.0671 154.564C87.7521 154.978 87.5136 155.487 87.3516 156.09C87.1986 156.684 87.1221 157.354 87.1221 158.101C87.1221 158.875 87.2076 159.564 87.3786 160.167C87.5496 160.77 87.7926 161.278 88.1076 161.692C88.4316 162.106 88.8186 162.421 89.2686 162.637C89.7276 162.853 90.2406 162.961 90.8076 162.961C91.3656 162.961 91.8201 162.894 92.1711 162.759C92.5221 162.624 92.8146 162.475 93.0486 162.313C93.2826 162.151 93.4806 162.003 93.6426 161.868C93.8136 161.733 93.9936 161.665 94.1826 161.665C94.4166 161.665 94.5966 161.755 94.7226 161.935L95.5461 163.002C95.2131 163.407 94.8441 163.749 94.4391 164.028C94.0341 164.307 93.6066 164.536 93.1566 164.716C92.7066 164.887 92.2386 165.009 91.7526 165.081C91.2666 165.162 90.7761 165.203 90.2811 165.203C89.4261 165.203 88.6251 165.045 87.8781 164.73C87.1401 164.406 86.4921 163.942 85.9341 163.339C85.3851 162.727 84.9486 161.985 84.6246 161.112C84.3096 160.23 84.1521 159.226 84.1521 158.101C84.1521 157.084 84.2961 156.144 84.5841 155.28C84.8721 154.407 85.2906 153.655 85.8396 153.025C86.3976 152.395 87.0861 151.905 87.9051 151.554C88.7241 151.194 89.6691 151.014 90.7401 151.014C91.7391 151.014 92.6166 151.176 93.3726 151.5C94.1376 151.824 94.8171 152.283 95.4111 152.877L94.6416 153.93ZM100.783 145.02V156.603H101.404C101.602 156.603 101.764 156.576 101.89 156.522C102.016 156.468 102.147 156.355 102.282 156.184L106.143 151.77C106.278 151.59 106.426 151.455 106.588 151.365C106.75 151.275 106.957 151.23 107.209 151.23H109.842L105.198 156.468C104.928 156.819 104.631 157.098 104.307 157.305C104.487 157.431 104.644 157.575 104.779 157.737C104.914 157.89 105.045 158.065 105.171 158.263L110.125 165H107.533C107.299 165 107.097 164.964 106.926 164.892C106.764 164.811 106.62 164.667 106.494 164.46L102.511 159.06C102.376 158.853 102.241 158.722 102.106 158.668C101.971 158.605 101.769 158.574 101.499 158.574H100.783V165H97.8808V145.02H100.783ZM121.613 152.863C122.18 152.305 122.801 151.86 123.476 151.527C124.151 151.185 124.939 151.014 125.839 151.014C126.595 151.014 127.256 151.14 127.823 151.392C128.399 151.644 128.881 151.999 129.268 152.458C129.664 152.917 129.961 153.471 130.159 154.119C130.357 154.758 130.456 155.464 130.456 156.238V165H127.567V156.238C127.567 155.311 127.351 154.591 126.919 154.078C126.496 153.565 125.848 153.309 124.975 153.309C124.327 153.309 123.724 153.457 123.166 153.754C122.617 154.051 122.099 154.456 121.613 154.969V165H118.711V145.02H121.613V152.863ZM142.877 156.562C142.877 156.076 142.805 155.626 142.661 155.212C142.526 154.789 142.324 154.425 142.054 154.119C141.784 153.804 141.446 153.561 141.041 153.39C140.645 153.21 140.186 153.12 139.664 153.12C138.611 153.12 137.783 153.421 137.18 154.024C136.577 154.627 136.195 155.473 136.033 156.562H142.877ZM135.952 158.344C135.988 159.127 136.109 159.807 136.316 160.383C136.523 160.95 136.798 161.422 137.14 161.8C137.491 162.178 137.905 162.462 138.382 162.651C138.868 162.831 139.408 162.921 140.002 162.921C140.569 162.921 141.059 162.858 141.473 162.732C141.887 162.597 142.247 162.453 142.553 162.3C142.859 162.138 143.12 161.994 143.336 161.868C143.552 161.733 143.75 161.665 143.93 161.665C144.164 161.665 144.344 161.755 144.47 161.935L145.294 163.002C144.952 163.407 144.565 163.749 144.133 164.028C143.701 164.307 143.242 164.536 142.756 164.716C142.27 164.887 141.77 165.009 141.257 165.081C140.744 165.162 140.245 165.203 139.759 165.203C138.805 165.203 137.918 165.045 137.099 164.73C136.289 164.406 135.583 163.933 134.98 163.312C134.386 162.691 133.918 161.922 133.576 161.004C133.243 160.086 133.076 159.028 133.076 157.831C133.076 156.877 133.225 155.986 133.522 155.158C133.828 154.33 134.26 153.61 134.818 152.998C135.385 152.386 136.069 151.905 136.87 151.554C137.68 151.194 138.593 151.014 139.61 151.014C140.456 151.014 141.239 151.153 141.959 151.433C142.679 151.702 143.3 152.103 143.822 152.634C144.344 153.165 144.749 153.817 145.037 154.591C145.334 155.356 145.483 156.229 145.483 157.21C145.483 157.66 145.433 157.962 145.334 158.115C145.235 158.268 145.055 158.344 144.794 158.344H135.952ZM150.93 153.781C151.362 152.908 151.884 152.224 152.496 151.729C153.108 151.225 153.841 150.973 154.696 150.973C154.993 150.973 155.272 151.009 155.533 151.081C155.794 151.144 156.028 151.243 156.235 151.378L156.033 153.565C155.997 153.718 155.938 153.826 155.857 153.889C155.785 153.943 155.686 153.97 155.56 153.97C155.425 153.97 155.232 153.948 154.98 153.903C154.728 153.849 154.462 153.822 154.183 153.822C153.778 153.822 153.418 153.88 153.103 153.997C152.797 154.114 152.518 154.285 152.266 154.51C152.023 154.735 151.807 155.01 151.618 155.334C151.429 155.658 151.254 156.027 151.092 156.441V165H148.189V151.23H149.877C150.183 151.23 150.394 151.288 150.511 151.405C150.628 151.513 150.709 151.707 150.754 151.986L150.93 153.781ZM166.713 156.562C166.713 156.076 166.641 155.626 166.497 155.212C166.362 154.789 166.16 154.425 165.89 154.119C165.62 153.804 165.282 153.561 164.877 153.39C164.481 153.21 164.022 153.12 163.5 153.12C162.447 153.12 161.619 153.421 161.016 154.024C160.413 154.627 160.031 155.473 159.869 156.562H166.713ZM159.788 158.344C159.824 159.127 159.945 159.807 160.152 160.383C160.359 160.95 160.634 161.422 160.976 161.8C161.327 162.178 161.741 162.462 162.218 162.651C162.704 162.831 163.244 162.921 163.838 162.921C164.405 162.921 164.895 162.858 165.309 162.732C165.723 162.597 166.083 162.453 166.389 162.3C166.695 162.138 166.956 161.994 167.172 161.868C167.388 161.733 167.586 161.665 167.766 161.665C168 161.665 168.18 161.755 168.306 161.935L169.13 163.002C168.788 163.407 168.401 163.749 167.969 164.028C167.537 164.307 167.078 164.536 166.592 164.716C166.106 164.887 165.606 165.009 165.093 165.081C164.58 165.162 164.081 165.203 163.595 165.203C162.641 165.203 161.754 165.045 160.935 164.73C160.125 164.406 159.419 163.933 158.816 163.312C158.222 162.691 157.754 161.922 157.412 161.004C157.079 160.086 156.912 159.028 156.912 157.831C156.912 156.877 157.061 155.986 157.358 155.158C157.664 154.33 158.096 153.61 158.654 152.998C159.221 152.386 159.905 151.905 160.706 151.554C161.516 151.194 162.429 151.014 163.446 151.014C164.292 151.014 165.075 151.153 165.795 151.433C166.515 151.702 167.136 152.103 167.658 152.634C168.18 153.165 168.585 153.817 168.873 154.591C169.17 155.356 169.319 156.229 169.319 157.21C169.319 157.66 169.269 157.962 169.17 158.115C169.071 158.268 168.891 158.344 168.63 158.344H159.788Z" fill="#0381EF"/>
<defs>
<filter id="filter0_d_19_553" x="0" y="0" width="528" height="224" filterUnits="userSpaceOnUse" color-interpolation-filters="sRGB">
<feFlood flood-opacity="0" result="BackgroundImageFix"/>
<feColorMatrix in="SourceAlpha" type="matrix" values="0 0 0 0 0 0 0 0 0 0 0 0 0 0 0 0 0 0 127 0" result="hardAlpha"/>
<feOffset dy="4"/>
<feGaussianBlur stdDeviation="2"/>
<feComposite in2="hardAlpha" operator="out"/>
<feColorMatrix type="matrix" values="0 0 0 0 0 0 0 0 0 0 0 0 0 0 0 0 0 0 0.25 0"/>
<feBlend mode="normal" in2="BackgroundImageFix" result="effect1_dropShadow_19_553"/>
<feBlend mode="normal" in="SourceGraphic" in2="effect1_dropShadow_19_553" result="shape"/>
</filter>
<linearGradient id="paint0_linear_19_553" x1="264" y1="0" x2="264" y2="216" gradientUnits="userSpaceOnUse">
<stop stop-color="#0381EF"/>
<stop offset="1" stop-color="#003B6F"/>
</linearGradient>
<linearGradient id="paint1_linear_19_553" x1="112" y1="129" x2="112" y2="180" gradientUnits="userSpaceOnUse">
<stop stop-color="white"/>
<stop offset="1" stop-color="#D9D9D9"/>
</linearGradient>
</defs>
</svg>
