<?xml version="1.0" encoding="utf-8"?>
<!-- Generator: Adobe Illustrator 19.0.0, SVG Export Plug-In . SVG Version: 6.00 Build 0)  -->
<svg version="1.1" xmlns="http://www.w3.org/2000/svg" xmlns:xlink="http://www.w3.org/1999/xlink" x="0px" y="0px"
	 viewBox="0 0 339.7 398.7" style="enable-background:new 0 0 339.7 398.7;" xml:space="preserve">
<style type="text/css">
	.st0{fill:#36A871;}
	.st1{fill:none;stroke:#FFFFFF;stroke-width:0.7248;stroke-linecap:round;stroke-miterlimit:10;}
	.st2{fill:#48BE97;}
	.st3{fill:#65A4DA;}
	.st4{fill:#7DBBF1;}
	.st5{fill:#FE5456;}
	.st6{fill:none;stroke:#7DBBF1;stroke-width:0.8477;stroke-linecap:round;stroke-linejoin:round;stroke-miterlimit:10;}
	.st7{fill:#021946;}
	.st8{opacity:0.36;fill:#021946;}
	.st9{fill:#1B84C1;}
	.st10{opacity:0.36;fill:#1B84C1;}
	.st11{fill:#E08D68;}
	.st12{fill:#F4A484;}
	.st13{fill:#24292D;}
	.st14{fill:#FFFFFF;}
	.st15{fill:none;stroke:#E08D68;stroke-width:0.5651;stroke-linecap:round;stroke-linejoin:round;stroke-miterlimit:10;}
	.st16{fill:#DADEEA;}
</style>
<g id="BACKGROUND">
</g>
<g id="OBJECTS">
	<g>
		<path class="st0" d="M274.9,389.9c3.4-12.6-13.1-37.5-0.3-43.9c8-4,12.3,0.1,12.3,0.1s-9.5-25.1,6.2-26.9c5.5-0.6,7.1,4.2,7.1,4.2
			s2.2-7.4,8-12.1c11.1-8.8,25.6-5.6,17.8,12.8c-4.3,10.1-7.6,11.5-7.6,11.5s7.7-1.5,9.4,5.5c2.2,9.4-16.3,25.1-16.3,25.1
			s6.6,0.6,7.5,5.6c1.9,11-21.4,18-21.4,18H274.9z"/>
		<path class="st1" d="M321.1,313.2c-21.3,17.3-22.1,52.5-32.9,72.8"/>
	</g>
	<g>
		<path class="st2" d="M265.2,389.9c-7.7-12.7-24.5-49.9-12.2-57.6c7.7-4.9,12,3.5,12,3.5s-14.8-40.7,0.2-40.8
			c8.7-0.1,12.6,11.5,12.6,11.5s3-11.9,7.1-19.1c9.5-16.5,31.9-9.9,24,16.3c-2,6.6-8,15.1-8,15.1s13.9-0.8,13.5,11.2
			c-0.3,11.4-19.6,22.1-19.6,22.1s12.8-2.8,15.1,7.1c3.2,13.4-25,30.9-25,30.9H265.2z"/>
		<path class="st1" d="M298.2,294c-10.7,36.4-26.5,41.8-26.7,93.2"/>
	</g>
	<g>
		<path class="st3" d="M136.1,389.9c-13,0-12.4,0-14.7,0c-10.2,0-26.2-28.7-26.2-39.8c0-11.1,15.9-40.4,26.2-40.4
			c5.1,0,1.6,0,14.7,0c13.1,0,23.4,4.1,30.7,12.1c7,7.7,10.6,17.2,10.6,28.3c0,11.2-3.6,20.6-10.7,28.2
			C159.3,386,149,389.9,136.1,389.9z M97.1,275.1l0.2-11.5c0.4-19.9,3.1-35.4,8.2-47.5c5.2-12.2,15.2-24.9,30.5-39.1l0.2-0.2
			l35.4-30.9c12.9-12.4,19.2-25,19.2-38.6c0-12.9-3.7-22.5-11.3-29.5c-7.8-7.1-19.8-10.7-35.9-10.7c-15.9,0-28.7,3.4-37.9,10.2
			c-8.4,6.2-12.3,13.9-12.3,24.3V113H20.5l0.2-11.5c0.4-28.5,12.5-51.7,36-69.2c22.5-16.7,51.8-25.2,87.1-25.2
			c36.8,0,66.1,8.7,87.2,25.9c21.8,17.8,32.8,42.3,32.8,72.8c0,30.1-16.1,59.6-47.8,87.8l-0.2,0.2l-29.4,24.6
			c-10.8,10.3-16.1,25.1-16.1,45.2v11.3H97.1z"/>
		<path class="st4" d="M121.3,389.9c-13,0-23.3-3.9-30.5-11.7c-7-7.5-10.5-17-10.5-28.1c0-11.1,3.5-20.6,10.3-28.2
			c7.2-8.1,17.5-12.1,30.6-12.1c13.1,0,23.4,4.1,30.7,12.1c7,7.7,10.6,17.2,10.6,28.3c0,11.2-3.6,20.6-10.7,28.2
			C144.6,386,134.3,389.9,121.3,389.9z M82.3,275.1l0.2-11.5c0.4-19.9,3.1-35.4,8.2-47.5c5.2-12.2,15.2-24.9,30.5-39.1l0.2-0.2
			l35.4-30.9c12.9-12.4,19.2-25,19.2-38.6c0-12.9-3.7-22.5-11.3-29.5c-7.8-7.1-19.8-10.7-35.9-10.7c-15.9,0-28.7,3.4-37.9,10.2
			c-8.4,6.2-12.3,13.9-12.3,24.3V113H5.7l0.2-11.5c0.4-28.5,12.5-51.7,36-69.2C64.3,15.7,93.6,7.2,128.9,7.2
			c36.8,0,66.1,8.7,87.2,25.9c21.8,17.8,32.8,42.3,32.8,72.8c0,30.1-16.1,59.6-47.8,87.8l-0.2,0.2l-29.4,24.6
			c-10.8,10.3-16.1,25.1-16.1,45.2v11.3H82.3z"/>
	</g>
	<g>
		<g>
			<path class="st5" d="M232.9,374.3c-0.4,4.8,1.2,15.4,0,15.6h-35.1c0,0-0.4-5.4,3.8-6.5c5.6-1.5,12.3-2.7,14.9-4.9
				c1.2-1.1,1.9-4.2,1.9-4.2H232.9z"/>
			<path class="st6" d="M207.3,382c0,0,4.5-0.4,6.1,2.1"/>
			<path class="st6" d="M211.4,380.8c0,0,4.5-0.4,6.1,2.1"/>
		</g>
		<g>
			<path class="st5" d="M253.4,374.3c0.4,6.8-0.7,15.1,1.2,15.6h23.4c0,0,0.3-3.8-2.8-7c-1.3-1.3-4.3-2.8-5.7-4.2
				c-1.2-1.2-1.4-4.5-1.4-4.5H253.4z"/>
			<path class="st6" d="M267.4,382.8c0,0,3-3.5,6.7-0.7"/>
			<path class="st6" d="M263.7,381c0,0,4.5-3.7,7.9-0.8"/>
		</g>
		<path class="st7" d="M211.2,230.7c-1.1,10.8,6.4,145,6.4,145h15.7c0,0,4.9-95.2,4.2-109.1c-0.7-13.9,2.3-27.1,1.5-35.5
			C238.1,222.7,213.1,212.6,211.2,230.7z"/>
		<path class="st7" d="M233.5,231.5c0,48.4,19.6,144.2,19.6,144.2h16.1c0,0-8.1-109-8.4-123c-0.2-10-1.3-17-2.3-25.5
			C256.8,213,233.5,213.3,233.5,231.5z"/>
		<path class="st8" d="M259.5,235.2c-2.7,1.2-10.8,4.3-20.6,4.4c-0.9,0-1.8,0-2.8-0.1c-0.8,0-1.7-0.1-2.5-0.1
			c-11.8-0.6-18.3-0.4-20.4,0.2c-0.8,0.2-1.5,0.9-2.2,1.7c-0.1-5.3-0.1-9.1,0-10.5c1.4-13.8,16.1-11.3,23.5-5.6
			c1.2-2.9,3.1-5,5.5-6.3l11.2-0.8c3.7,1.4,6.6,4.6,7.2,9.3C258.8,230.1,259.2,232.7,259.5,235.2z"/>
		<path class="st9" d="M218.2,154.1c-11.5,10.8-10.8,39.4-10.8,39.4s10.6,7,16.9,4.3c0,0,4.8-29.4,2.2-38.5
			C225,153.9,220.4,152.1,218.2,154.1z"/>
		<path class="st9" d="M250.4,149.8c0,0,16,5.1,16.5,8.2c0.5,3.1-8.4,44.5-8.4,54.9s1.1,20.7,1.1,20.7s-13.5,3.8-26.4,3.5
			c-12.9-0.2-22.5-2.6-22.5-2.6s0.7-12.7,1-21.2s0.4-33,0.4-42.1c0-7.9,3.7-14.4,6.1-17.2c2-2.3,15.2-4.8,15.2-4.8L250.4,149.8z"/>
		<path class="st10" d="M258.5,212.9c0,2.9,0.1,5.8,0.2,8.4c-2.6-5.1-7.4-9.7-9.8-10.5c-3.1-1-29.5-11.8-31.6-11.3
			c-1.1,0.2-3.4-0.1-5.4-0.4c0-3,0.1-6.2,0.1-9.4l13.8-38.6c3.8-1,7.6-1.7,7.6-1.7c-1.1,0.9-2.7,6-3.9,8.6
			c-1.2,2.6-7.5,29.3-7.5,29.3l21.5,2.1c2.7-20.5,8.5-28.8,8.5-28.8l12.8,10.8C262.4,185.4,258.5,206,258.5,212.9z"/>
		<path class="st11" d="M248.8,143.6l1.5,6.2c0,0-6.6,11-14.4,9.9c-7.8-1.1-2.5-10.4-2.5-10.4l-0.3-4.1l14.4-8.5L248.8,143.6z"/>
		<path class="st12" d="M226,120.1c-0.4,2.1-0.8,8.8-0.4,14c0.4,5,1.7,12.4,4.6,13c2.9,0.6,15.2-1.7,15.8-8.8
			c2.1-1.7,10.1-11.4,7.3-16.3C248.2,113.4,227.3,113.4,226,120.1z"/>
		<ellipse class="st13" cx="235.5" cy="130.6" rx="0.9" ry="1.3"/>
		<ellipse class="st13" cx="228" cy="130.1" rx="0.9" ry="1.3"/>
		<g>
			<path class="st13" d="M233.9,128c0.4-0.8,1.4-1.3,2.4-1.3c0.5,0,1,0.1,1.4,0.4c0.4,0.3,0.7,0.6,0.9,1c-0.4-0.2-0.8-0.3-1.2-0.4
				c-0.4-0.1-0.7-0.2-1.1-0.2C235.6,127.5,234.8,127.7,233.9,128z"/>
		</g>
		<g>
			<path class="st13" d="M230.8,127.5c-0.9-0.3-1.6-0.5-2.3-0.5c-0.4,0-0.7,0.1-1.1,0.2c-0.4,0.1-0.7,0.3-1.2,0.4
				c0.2-0.4,0.5-0.8,0.9-1c0.4-0.3,0.9-0.4,1.4-0.4C229.4,126.2,230.4,126.7,230.8,127.5z"/>
		</g>
		<g>
			<path class="st11" d="M230.9,132.1c0,0.8-0.3,1.6-0.6,2.3l-0.9,2.2c-0.1,0.4-0.3,0.7-0.4,1.1c-0.1,0.2-0.1,0.4-0.1,0.5
				c0,0,0,0,0,0.1c0,0,0,0,0,0c0,0,0.1,0.1,0.1,0.1c0.5,0.4,1.3,0.7,1.9,1.1l0,0.1c-0.4,0-0.8,0-1.2-0.1c-0.4-0.1-0.8-0.2-1.2-0.5
				c-0.1-0.1-0.2-0.2-0.3-0.3c0,0-0.1-0.2-0.1-0.3c0-0.1,0-0.2,0-0.2c0-0.3,0.1-0.5,0.2-0.7c0.2-0.4,0.4-0.7,0.5-1.1l1.1-2.1
				C230.3,133.6,230.7,132.9,230.9,132.1L230.9,132.1z"/>
		</g>
		<path class="st14" d="M227.9,141.2c0,0,2.3-0.8,4.6,0.3c0,0-3.9,0.6-4.3,0.2C227.8,141.3,227.9,141.2,227.9,141.2z"/>
		<path class="st13" d="M225.5,122.7c0.6,1.3,11.9,1.3,18.1,1.1c0,0-1.8,5.7,0.8,10.1c0,0,1.8,2.3,1.5,4.2c-0.2,1.8,2.7,5.9,2.8,4.5
			c0.5-4.4,6.7-17,5-23.1c-1.4-5.1-4.6-4.9-4.6-4.9c-2.6-4.1-8.9-1.9-21.7-4.7C222.4,108.9,224.4,120.3,225.5,122.7z"/>
		<path class="st12" d="M243.8,132.1c1.3-3.2,5.7-3,5.8-0.2c0,4.5-2.7,5.8-3.6,6.4C245,138.8,243,134,243.8,132.1z"/>
		<g>
			<path class="st12" d="M210.5,196.6c1.9,0.7,2.5,0.8,3.3,0.9c1.9,0,3.2-0.1,3.2-0.1s28.6,10,31.3,9.9c2-0.1,6.4-1.4,8.3-4.6
				c1.8-3.1,5.8-15.3,7.3-20.8c2.8-10.2-10.9-11.9-14.5-1.9c-2.4,6.6-3,13.4-3.3,13c-0.7-1.1-24.5-3.6-25-4.4
				c-1-1.7-4.4-2.5-5.3-2.5c-1.1,0-1.5-0.2-2-0.3c-1.3-0.3-2.4,1-1.2,1.6c1,0.4,2.7,1.2,2.7,1.2s-6.1-2.2-7.3-2.6s-2.5,1.3-0.9,2.2
				c1.6,0.9,1.9,1.1,1.9,1.1s-1.1-0.8-2.2-0.5c-0.7,0.2-0.3,2.2,0.5,2.4c0.1,0,0.4,0.1,0.4,0.1s-1.6,1.6,0.6,2.4
				c0.2,0.1,0.4,0.1,0.4,0.1s-1.3,1.1-0.3,1.8C209.6,196,210.5,196.6,210.5,196.6z"/>
		</g>
		<g>
			<path class="st12" d="M230.3,153.8c-0.7,2.9-1.9,2.2-2.3,3.1c-0.4,0.9-8,29.8-8.3,31.1c-0.9,4.3-6.3,7.6-9.4,6.2
				c-3.4-1.5-4.6-6.3-3.9-9c0.6-2.6,14.4-30.5,14.4-30.5s1-8.7,1.6-9c1.5-0.9,4.4-1.9,4.7-1.9c1-0.2,5.9,0,5.8,0
				c0,0-0.1,1.1-0.9,1.6c-0.3,0.2-4.1,0.6-4.1,0.6s3.5,0.2,3.6,0.5c0.2,0.3,0.6,4.3,0.4,4.7C231.4,152.7,230.3,153.5,230.3,153.8z"
				/>
			<line class="st15" x1="224.7" y1="146.6" x2="226.4" y2="146.2"/>
			<path class="st15" d="M225,148.1c0,0,4.9,0.1,5.1,0.2c0.1,0.1,0.5,2.3,0.9,2.6s0.5,0.3,0.5,0.3"/>
			<path class="st15" d="M224.2,150c0,0,4,0.4,4.3,0.6c0.2,0.1,0.7,2.4,1.5,2.4c0.8,0,1-0.8,1-0.8"/>
			<line class="st15" x1="224.5" y1="152" x2="227.7" y2="152.5"/>
			<path class="st15" d="M226.6,153.5c-0.8,0.1-0.4,1.4,0,1.5c0.4,0.1,1.8,0.1,2.1,0c0.3-0.1,0.8-0.9,0.9-1.5c0-0.3-0.4-1.5-0.4-1.5
				"/>
			<path class="st15" d="M228.5,156.2c0,0-1.8,1.1-4.5,0.6"/>
			<path class="st15" d="M227.6,157.3c0,0-0.8,0.5-2.6-0.1"/>
			<path class="st15" d="M227.5,143.6c0,0,5.1,0.1,5.3,0.1c0.2,0-0.2,1.5-0.9,1.6c-0.6,0.2-4.1,0.6-4.1,0.6s3.6,0.2,3.6,0.5
				c0.1,0.3,0.3,1.8,0.3,1.8"/>
		</g>
		<path class="st9" d="M266.9,157.9c5.3,5.7-6.3,37-6.3,37s-9-0.6-15.5-3.3c0,0,5-27.2,7-31.1C254.6,155.7,262.8,153.5,266.9,157.9z
			"/>
		<path class="st15" d="M219.8,187.3c-0.8,3.3-3.6,7.9-8.5,7.1c-4.1-0.7-4.9-5.9-4.9-5.9"/>
	</g>
	<g>
		<circle class="st16" cx="287.9" cy="89.5" r="36.5"/>
		<circle class="st14" cx="305" cy="89.5" r="4.7"/>
		<circle class="st14" cx="287.9" cy="89.5" r="4.7"/>
		<circle class="st14" cx="270.8" cy="89.5" r="4.7"/>
		<path class="st16" d="M289.5,123.3c0,0-3.7,9.2-18.7,9.7c0,0,6.4-4.6,6.4-12.1L289.5,123.3z"/>
	</g>
</g>
</svg>
