<svg width="998" height="157" viewBox="0 0 998 157" fill="none" xmlns="http://www.w3.org/2000/svg">
<g filter="url(#filter0_d_19_552)">
<rect x="4" y="59" width="990" height="90" rx="10" fill="url(#paint0_linear_19_552)"/>
</g>
<path d="M267.85 87.656V96.776C265.557 98.4293 262.89 99.256 259.85 99.256C257.983 99.256 256.293 98.968 254.778 98.392C253.274 97.8053 251.989 96.9947 250.922 95.96C249.855 94.9147 249.034 93.672 248.458 92.232C247.882 90.792 247.594 89.208 247.594 87.48C247.594 85.7413 247.871 84.152 248.426 82.712C248.981 81.2613 249.775 80.0187 250.81 78.984C251.845 77.9387 253.093 77.1333 254.554 76.568C256.015 75.992 257.658 75.704 259.482 75.704C260.41 75.704 261.269 75.7787 262.058 75.928C262.858 76.0667 263.599 76.264 264.282 76.52C264.965 76.776 265.594 77.0853 266.17 77.448C266.746 77.8107 267.274 78.216 267.754 78.664L266.682 80.376C266.511 80.6427 266.293 80.808 266.026 80.872C265.759 80.936 265.471 80.872 265.162 80.68C264.853 80.4987 264.522 80.3067 264.17 80.104C263.829 79.9013 263.434 79.7147 262.986 79.544C262.538 79.3627 262.021 79.2187 261.434 79.112C260.847 78.9947 260.154 78.936 259.354 78.936C258.138 78.936 257.039 79.1387 256.058 79.544C255.087 79.9387 254.255 80.5093 253.562 81.256C252.869 81.992 252.335 82.888 251.962 83.944C251.589 85 251.402 86.1787 251.402 87.48C251.402 88.856 251.599 90.088 251.994 91.176C252.389 92.2533 252.949 93.1707 253.674 93.928C254.399 94.6747 255.274 95.2453 256.298 95.64C257.333 96.0347 258.485 96.232 259.754 96.232C260.703 96.232 261.546 96.1307 262.282 95.928C263.029 95.7253 263.759 95.4427 264.474 95.08V90.504H261.258C261.013 90.504 260.821 90.44 260.682 90.312C260.543 90.1733 260.474 89.9973 260.474 89.784V87.656H267.85ZM282.144 89C282.144 88.424 282.058 87.8907 281.888 87.4C281.728 86.8987 281.488 86.4667 281.168 86.104C280.848 85.7307 280.448 85.4427 279.968 85.24C279.498 85.0267 278.954 84.92 278.336 84.92C277.088 84.92 276.106 85.2773 275.392 85.992C274.677 86.7067 274.224 87.7093 274.032 89H282.144ZM273.936 91.112C273.978 92.04 274.122 92.8453 274.368 93.528C274.613 94.2 274.938 94.76 275.344 95.208C275.76 95.656 276.25 95.992 276.816 96.216C277.392 96.4293 278.032 96.536 278.736 96.536C279.408 96.536 279.989 96.4613 280.48 96.312C280.97 96.152 281.397 95.9813 281.76 95.8C282.122 95.608 282.432 95.4373 282.688 95.288C282.944 95.128 283.178 95.048 283.392 95.048C283.669 95.048 283.882 95.1547 284.032 95.368L285.008 96.632C284.602 97.112 284.144 97.5173 283.632 97.848C283.12 98.1787 282.576 98.4507 282 98.664C281.424 98.8667 280.832 99.0107 280.224 99.096C279.616 99.192 279.024 99.24 278.448 99.24C277.317 99.24 276.266 99.0533 275.296 98.68C274.336 98.296 273.498 97.736 272.784 97C272.08 96.264 271.525 95.352 271.12 94.264C270.725 93.176 270.528 91.9227 270.528 90.504C270.528 89.3733 270.704 88.3173 271.056 87.336C271.418 86.3547 271.93 85.5013 272.592 84.776C273.264 84.0507 274.074 83.48 275.024 83.064C275.984 82.6373 277.066 82.424 278.272 82.424C279.274 82.424 280.202 82.5893 281.056 82.92C281.909 83.24 282.645 83.7147 283.264 84.344C283.882 84.9733 284.362 85.7467 284.704 86.664C285.056 87.5707 285.232 88.6053 285.232 89.768C285.232 90.3013 285.173 90.6587 285.056 90.84C284.938 91.0213 284.725 91.112 284.416 91.112H273.936ZM293.516 99.256C292.161 99.256 291.116 98.8773 290.38 98.12C289.654 97.352 289.292 96.2747 289.292 94.888V85.384H287.5C287.308 85.384 287.142 85.3253 287.004 85.208C286.865 85.08 286.796 84.8933 286.796 84.648V83.256L289.436 82.872L290.188 78.152C290.241 77.9707 290.332 77.8267 290.46 77.72C290.588 77.6027 290.758 77.544 290.972 77.544H292.732V82.904H297.26V85.384H292.732V94.648C292.732 95.2347 292.876 95.6827 293.164 95.992C293.452 96.3013 293.836 96.456 294.316 96.456C294.582 96.456 294.812 96.424 295.003 96.36C295.196 96.2853 295.361 96.2107 295.5 96.136C295.638 96.0507 295.756 95.976 295.852 95.912C295.958 95.8373 296.06 95.8 296.156 95.8C296.348 95.8 296.502 95.9067 296.62 96.12L297.644 97.8C297.11 98.2693 296.481 98.632 295.756 98.888C295.03 99.1333 294.284 99.256 293.516 99.256ZM316.66 91.864C315.433 91.9067 314.398 92.008 313.556 92.168C312.713 92.3173 312.03 92.5147 311.508 92.76C310.985 92.9947 310.606 93.2773 310.372 93.608C310.148 93.9387 310.036 94.3013 310.036 94.696C310.036 95.08 310.094 95.4107 310.212 95.688C310.34 95.9547 310.51 96.1787 310.724 96.36C310.948 96.5307 311.204 96.6587 311.492 96.744C311.79 96.8187 312.116 96.856 312.468 96.856C313.364 96.856 314.132 96.6907 314.772 96.36C315.422 96.0187 316.052 95.528 316.66 94.888V91.864ZM307.54 84.952C309.385 83.2347 311.582 82.376 314.132 82.376C315.07 82.376 315.902 82.5307 316.628 82.84C317.364 83.1387 317.977 83.5653 318.468 84.12C318.969 84.6747 319.348 85.336 319.604 86.104C319.87 86.8613 320.004 87.704 320.004 88.632V99H318.468C318.137 99 317.886 98.952 317.716 98.856C317.545 98.7493 317.401 98.5413 317.284 98.232L316.948 96.904C316.532 97.2773 316.121 97.6133 315.716 97.912C315.31 98.2 314.889 98.4453 314.452 98.648C314.025 98.8507 313.561 99 313.06 99.096C312.569 99.2027 312.025 99.256 311.428 99.256C310.766 99.256 310.148 99.1653 309.572 98.984C309.006 98.8027 308.516 98.5307 308.1 98.168C307.684 97.7947 307.353 97.336 307.108 96.792C306.873 96.248 306.756 95.608 306.756 94.872C306.756 94.2427 306.921 93.6293 307.252 93.032C307.593 92.4347 308.148 91.9013 308.916 91.432C309.694 90.952 310.713 90.5573 311.972 90.248C313.241 89.9387 314.804 89.7627 316.66 89.72V88.632C316.66 87.4587 316.409 86.584 315.908 86.008C315.406 85.432 314.67 85.144 313.7 85.144C313.038 85.144 312.484 85.2293 312.036 85.4C311.588 85.56 311.198 85.736 310.868 85.928C310.537 86.12 310.244 86.3013 309.988 86.472C309.732 86.632 309.46 86.712 309.172 86.712C308.937 86.712 308.734 86.6533 308.564 86.536C308.404 86.408 308.27 86.2533 308.164 86.072L307.54 84.952ZM333.778 85.64C333.692 85.7893 333.596 85.896 333.49 85.96C333.383 86.024 333.25 86.056 333.09 86.056C332.908 86.056 332.711 86.0027 332.498 85.896C332.284 85.7787 332.034 85.6507 331.746 85.512C331.458 85.3733 331.116 85.2507 330.722 85.144C330.338 85.0267 329.884 84.968 329.362 84.968C328.935 84.968 328.546 85.0213 328.194 85.128C327.852 85.224 327.559 85.368 327.314 85.56C327.079 85.7413 326.898 85.96 326.77 86.216C326.642 86.4613 326.578 86.728 326.578 87.016C326.578 87.4 326.695 87.72 326.93 87.976C327.164 88.232 327.474 88.456 327.858 88.648C328.242 88.8293 328.679 88.9947 329.17 89.144C329.66 89.2933 330.162 89.4533 330.674 89.624C331.186 89.7947 331.687 89.992 332.178 90.216C332.668 90.44 333.106 90.7173 333.49 91.048C333.874 91.368 334.183 91.7627 334.418 92.232C334.652 92.6907 334.77 93.2507 334.77 93.912C334.77 94.68 334.631 95.3893 334.354 96.04C334.076 96.6907 333.671 97.256 333.138 97.736C332.604 98.216 331.938 98.5893 331.138 98.856C330.348 99.1227 329.442 99.256 328.418 99.256C327.852 99.256 327.303 99.2027 326.77 99.096C326.247 99 325.746 98.8667 325.266 98.696C324.796 98.5147 324.354 98.3013 323.938 98.056C323.532 97.8107 323.17 97.544 322.85 97.256L323.65 95.944C323.746 95.784 323.863 95.6613 324.002 95.576C324.151 95.48 324.332 95.432 324.546 95.432C324.77 95.432 324.988 95.5067 325.202 95.656C325.426 95.7947 325.682 95.9493 325.97 96.12C326.268 96.2907 326.626 96.4507 327.042 96.6C327.458 96.7387 327.975 96.808 328.594 96.808C329.106 96.808 329.548 96.7493 329.922 96.632C330.295 96.504 330.604 96.3333 330.85 96.12C331.095 95.9067 331.276 95.6667 331.394 95.4C331.511 95.1227 331.57 94.8293 331.57 94.52C331.57 94.104 331.452 93.7627 331.218 93.496C330.983 93.2293 330.668 93 330.274 92.808C329.89 92.616 329.447 92.4453 328.946 92.296C328.455 92.1467 327.954 91.9867 327.442 91.816C326.93 91.6453 326.423 91.448 325.922 91.224C325.431 91 324.988 90.7173 324.594 90.376C324.21 90.024 323.9 89.6027 323.666 89.112C323.431 88.6107 323.314 88.0027 323.314 87.288C323.314 86.6373 323.442 86.0187 323.698 85.432C323.964 84.8453 324.348 84.328 324.85 83.88C325.362 83.432 325.986 83.08 326.722 82.824C327.468 82.5573 328.327 82.424 329.298 82.424C330.396 82.424 331.394 82.6 332.29 82.952C333.186 83.304 333.938 83.784 334.546 84.392L333.778 85.64ZM347.746 85.64C347.661 85.7893 347.565 85.896 347.458 85.96C347.352 86.024 347.218 86.056 347.058 86.056C346.877 86.056 346.68 86.0027 346.466 85.896C346.253 85.7787 346.002 85.6507 345.714 85.512C345.426 85.3733 345.085 85.2507 344.69 85.144C344.306 85.0267 343.853 84.968 343.33 84.968C342.904 84.968 342.514 85.0213 342.162 85.128C341.821 85.224 341.528 85.368 341.282 85.56C341.048 85.7413 340.866 85.96 340.738 86.216C340.61 86.4613 340.546 86.728 340.546 87.016C340.546 87.4 340.664 87.72 340.898 87.976C341.133 88.232 341.442 88.456 341.826 88.648C342.21 88.8293 342.648 88.9947 343.138 89.144C343.629 89.2933 344.13 89.4533 344.642 89.624C345.154 89.7947 345.656 89.992 346.146 90.216C346.637 90.44 347.074 90.7173 347.458 91.048C347.842 91.368 348.152 91.7627 348.386 92.232C348.621 92.6907 348.738 93.2507 348.738 93.912C348.738 94.68 348.6 95.3893 348.322 96.04C348.045 96.6907 347.64 97.256 347.106 97.736C346.573 98.216 345.906 98.5893 345.106 98.856C344.317 99.1227 343.41 99.256 342.386 99.256C341.821 99.256 341.272 99.2027 340.738 99.096C340.216 99 339.714 98.8667 339.234 98.696C338.765 98.5147 338.322 98.3013 337.906 98.056C337.501 97.8107 337.138 97.544 336.818 97.256L337.618 95.944C337.714 95.784 337.832 95.6613 337.97 95.576C338.12 95.48 338.301 95.432 338.514 95.432C338.738 95.432 338.957 95.5067 339.17 95.656C339.394 95.7947 339.65 95.9493 339.938 96.12C340.237 96.2907 340.594 96.4507 341.01 96.6C341.426 96.7387 341.944 96.808 342.562 96.808C343.074 96.808 343.517 96.7493 343.89 96.632C344.264 96.504 344.573 96.3333 344.818 96.12C345.064 95.9067 345.245 95.6667 345.362 95.4C345.48 95.1227 345.538 94.8293 345.538 94.52C345.538 94.104 345.421 93.7627 345.186 93.496C344.952 93.2293 344.637 93 344.242 92.808C343.858 92.616 343.416 92.4453 342.914 92.296C342.424 92.1467 341.922 91.9867 341.41 91.816C340.898 91.6453 340.392 91.448 339.89 91.224C339.4 91 338.957 90.7173 338.562 90.376C338.178 90.024 337.869 89.6027 337.634 89.112C337.4 88.6107 337.282 88.0027 337.282 87.288C337.282 86.6373 337.41 86.0187 337.666 85.432C337.933 84.8453 338.317 84.328 338.818 83.88C339.33 83.432 339.954 83.08 340.69 82.824C341.437 82.5573 342.296 82.424 343.266 82.424C344.365 82.424 345.362 82.6 346.258 82.952C347.154 83.304 347.906 83.784 348.514 84.392L347.746 85.64ZM365.731 82.68V99H363.651C363.192 99 362.899 98.7813 362.771 98.344L362.515 96.824C362.174 97.1867 361.811 97.5173 361.427 97.816C361.054 98.1147 360.654 98.3707 360.227 98.584C359.8 98.7973 359.342 98.9627 358.851 99.08C358.371 99.1973 357.854 99.256 357.299 99.256C356.403 99.256 355.614 99.1067 354.931 98.808C354.248 98.5093 353.672 98.088 353.203 97.544C352.744 97 352.398 96.3493 352.163 95.592C351.928 94.824 351.811 93.9813 351.811 93.064V82.68H355.251V93.064C355.251 94.1627 355.502 95.016 356.003 95.624C356.515 96.232 357.288 96.536 358.323 96.536C359.08 96.536 359.784 96.3653 360.435 96.024C361.096 95.672 361.715 95.192 362.291 94.584V82.68H365.731ZM373.157 85.704C373.669 84.6693 374.287 83.8587 375.013 83.272C375.738 82.6747 376.607 82.376 377.621 82.376C377.973 82.376 378.303 82.4187 378.613 82.504C378.922 82.5787 379.199 82.696 379.445 82.856L379.205 85.448C379.162 85.6293 379.093 85.7573 378.997 85.832C378.911 85.896 378.794 85.928 378.645 85.928C378.485 85.928 378.255 85.9013 377.957 85.848C377.658 85.784 377.343 85.752 377.013 85.752C376.533 85.752 376.106 85.8213 375.733 85.96C375.37 86.0987 375.039 86.3013 374.741 86.568C374.453 86.8347 374.197 87.16 373.973 87.544C373.749 87.928 373.541 88.3653 373.349 88.856V99H369.909V82.68H371.909C372.271 82.68 372.522 82.7493 372.661 82.888C372.799 83.016 372.895 83.2453 372.949 83.576L373.157 85.704ZM391.863 89C391.863 88.424 391.777 87.8907 391.607 87.4C391.447 86.8987 391.207 86.4667 390.887 86.104C390.567 85.7307 390.167 85.4427 389.687 85.24C389.217 85.0267 388.673 84.92 388.055 84.92C386.807 84.92 385.825 85.2773 385.111 85.992C384.396 86.7067 383.943 87.7093 383.751 89H391.863ZM383.655 91.112C383.697 92.04 383.841 92.8453 384.087 93.528C384.332 94.2 384.657 94.76 385.063 95.208C385.479 95.656 385.969 95.992 386.535 96.216C387.111 96.4293 387.751 96.536 388.455 96.536C389.127 96.536 389.708 96.4613 390.199 96.312C390.689 96.152 391.116 95.9813 391.479 95.8C391.841 95.608 392.151 95.4373 392.407 95.288C392.663 95.128 392.897 95.048 393.111 95.048C393.388 95.048 393.601 95.1547 393.751 95.368L394.727 96.632C394.321 97.112 393.863 97.5173 393.351 97.848C392.839 98.1787 392.295 98.4507 391.719 98.664C391.143 98.8667 390.551 99.0107 389.943 99.096C389.335 99.192 388.743 99.24 388.167 99.24C387.036 99.24 385.985 99.0533 385.015 98.68C384.055 98.296 383.217 97.736 382.503 97C381.799 96.264 381.244 95.352 380.839 94.264C380.444 93.176 380.247 91.9227 380.247 90.504C380.247 89.3733 380.423 88.3173 380.775 87.336C381.137 86.3547 381.649 85.5013 382.311 84.776C382.983 84.0507 383.793 83.48 384.743 83.064C385.703 82.6373 386.785 82.424 387.991 82.424C388.993 82.424 389.921 82.5893 390.775 82.92C391.628 83.24 392.364 83.7147 392.983 84.344C393.601 84.9733 394.081 85.7467 394.423 86.664C394.775 87.5707 394.951 88.6053 394.951 89.768C394.951 90.3013 394.892 90.6587 394.775 90.84C394.657 91.0213 394.444 91.112 394.135 91.112H383.655ZM408.575 86.696C408.095 86.0773 407.567 85.6453 406.991 85.4C406.415 85.1547 405.791 85.032 405.119 85.032C403.775 85.032 402.724 85.528 401.967 86.52C401.209 87.5013 400.831 88.9573 400.831 90.888C400.831 91.8907 400.916 92.7493 401.087 93.464C401.257 94.168 401.503 94.744 401.823 95.192C402.143 95.64 402.532 95.9653 402.991 96.168C403.449 96.3707 403.967 96.472 404.543 96.472C405.417 96.472 406.169 96.2853 406.799 95.912C407.439 95.528 408.031 94.9893 408.575 94.296V86.696ZM412.015 75.32V99H409.935C409.476 99 409.183 98.7813 409.055 98.344L408.751 96.568C408.068 97.368 407.289 98.0133 406.415 98.504C405.551 98.9947 404.543 99.24 403.391 99.24C402.473 99.24 401.641 99.0587 400.895 98.696C400.148 98.3227 399.508 97.784 398.975 97.08C398.441 96.376 398.025 95.5067 397.727 94.472C397.439 93.4267 397.295 92.232 397.295 90.888C397.295 89.672 397.455 88.5467 397.775 87.512C398.105 86.4773 398.575 85.5813 399.183 84.824C399.791 84.056 400.527 83.4587 401.391 83.032C402.265 82.5947 403.241 82.376 404.319 82.376C405.279 82.376 406.095 82.5307 406.767 82.84C407.439 83.1387 408.041 83.56 408.575 84.104V75.32H412.015ZM427.774 82.68V99.848C427.774 100.531 427.683 101.171 427.502 101.768C427.32 102.376 427.032 102.904 426.638 103.352C426.243 103.8 425.731 104.152 425.102 104.408C424.483 104.664 423.731 104.792 422.846 104.792C422.472 104.792 422.136 104.765 421.838 104.712C421.539 104.659 421.235 104.584 420.926 104.488L421.054 102.616C421.086 102.403 421.176 102.28 421.326 102.248C421.464 102.216 421.736 102.2 422.142 102.2C422.952 102.2 423.518 102.019 423.838 101.656C424.168 101.304 424.334 100.701 424.334 99.848V82.68H427.774ZM428.334 77.752C428.334 78.0613 428.27 78.3547 428.142 78.632C428.024 78.9093 427.859 79.1547 427.646 79.368C427.432 79.5707 427.187 79.736 426.91 79.864C426.632 79.9813 426.334 80.04 426.014 80.04C425.704 80.04 425.411 79.9813 425.134 79.864C424.867 79.736 424.627 79.5707 424.414 79.368C424.211 79.1547 424.051 78.9093 423.934 78.632C423.816 78.3547 423.758 78.0613 423.758 77.752C423.758 77.432 423.816 77.1333 423.934 76.856C424.051 76.5787 424.211 76.3387 424.414 76.136C424.627 75.9227 424.867 75.7573 425.134 75.64C425.411 75.512 425.704 75.448 426.014 75.448C426.334 75.448 426.632 75.512 426.91 75.64C427.187 75.7573 427.432 75.9227 427.646 76.136C427.859 76.3387 428.024 76.5787 428.142 76.856C428.27 77.1333 428.334 77.432 428.334 77.752ZM439.152 82.424C440.357 82.424 441.445 82.6213 442.416 83.016C443.397 83.4107 444.229 83.9707 444.912 84.696C445.605 85.4213 446.139 86.3013 446.512 87.336C446.885 88.3707 447.072 89.5333 447.072 90.824C447.072 92.1147 446.885 93.2773 446.512 94.312C446.139 95.3467 445.605 96.232 444.912 96.968C444.229 97.6933 443.397 98.2533 442.416 98.648C441.445 99.0427 440.357 99.24 439.152 99.24C437.936 99.24 436.837 99.0427 435.856 98.648C434.885 98.2533 434.053 97.6933 433.36 96.968C432.667 96.232 432.133 95.3467 431.76 94.312C431.387 93.2773 431.2 92.1147 431.2 90.824C431.2 89.5333 431.387 88.3707 431.76 87.336C432.133 86.3013 432.667 85.4213 433.36 84.696C434.053 83.9707 434.885 83.4107 435.856 83.016C436.837 82.6213 437.936 82.424 439.152 82.424ZM439.152 96.552C440.624 96.552 441.717 96.0613 442.432 95.08C443.157 94.088 443.52 92.6747 443.52 90.84C443.52 89.0053 443.157 87.592 442.432 86.6C441.717 85.5973 440.624 85.096 439.152 85.096C437.659 85.096 436.549 85.5973 435.824 86.6C435.099 87.592 434.736 89.0053 434.736 90.84C434.736 92.6747 435.099 94.088 435.824 95.08C436.549 96.0613 437.659 96.552 439.152 96.552ZM453.817 94.904C454.297 95.5227 454.82 95.96 455.385 96.216C455.961 96.4613 456.585 96.584 457.257 96.584C458.612 96.584 459.668 96.0933 460.425 95.112C461.183 94.1307 461.561 92.6107 461.561 90.552C461.561 88.6747 461.231 87.304 460.569 86.44C459.919 85.576 458.985 85.144 457.769 85.144C456.927 85.144 456.191 85.336 455.561 85.72C454.943 86.0933 454.361 86.632 453.817 87.336V94.904ZM453.817 84.84C454.489 84.104 455.241 83.5173 456.073 83.08C456.905 82.6427 457.855 82.424 458.921 82.424C459.871 82.424 460.724 82.6107 461.481 82.984C462.249 83.3467 462.9 83.8747 463.433 84.568C463.967 85.2613 464.377 86.104 464.665 87.096C464.953 88.0773 465.097 89.1867 465.097 90.424C465.097 91.7467 464.932 92.952 464.601 94.04C464.281 95.1173 463.817 96.0453 463.209 96.824C462.601 97.592 461.865 98.1893 461.001 98.616C460.137 99.032 459.172 99.24 458.105 99.24C457.583 99.24 457.108 99.1867 456.681 99.08C456.255 98.984 455.86 98.84 455.497 98.648C455.135 98.456 454.799 98.2267 454.489 97.96C454.191 97.6933 453.903 97.3893 453.625 97.048L453.481 98.312C453.428 98.5573 453.332 98.7333 453.193 98.84C453.055 98.9467 452.863 99 452.617 99H450.377V75.32H453.817V84.84ZM478.184 85.64C478.098 85.7893 478.002 85.896 477.896 85.96C477.789 86.024 477.656 86.056 477.496 86.056C477.314 86.056 477.117 86.0027 476.904 85.896C476.69 85.7787 476.44 85.6507 476.152 85.512C475.864 85.3733 475.522 85.2507 475.128 85.144C474.744 85.0267 474.29 84.968 473.768 84.968C473.341 84.968 472.952 85.0213 472.6 85.128C472.258 85.224 471.965 85.368 471.72 85.56C471.485 85.7413 471.304 85.96 471.176 86.216C471.048 86.4613 470.984 86.728 470.984 87.016C470.984 87.4 471.101 87.72 471.336 87.976C471.57 88.232 471.88 88.456 472.264 88.648C472.648 88.8293 473.085 88.9947 473.576 89.144C474.066 89.2933 474.568 89.4533 475.08 89.624C475.592 89.7947 476.093 89.992 476.584 90.216C477.074 90.44 477.512 90.7173 477.896 91.048C478.28 91.368 478.589 91.7627 478.824 92.232C479.058 92.6907 479.176 93.2507 479.176 93.912C479.176 94.68 479.037 95.3893 478.76 96.04C478.482 96.6907 478.077 97.256 477.544 97.736C477.01 98.216 476.344 98.5893 475.544 98.856C474.754 99.1227 473.848 99.256 472.824 99.256C472.258 99.256 471.709 99.2027 471.176 99.096C470.653 99 470.152 98.8667 469.672 98.696C469.202 98.5147 468.76 98.3013 468.344 98.056C467.938 97.8107 467.576 97.544 467.256 97.256L468.056 95.944C468.152 95.784 468.269 95.6613 468.408 95.576C468.557 95.48 468.738 95.432 468.952 95.432C469.176 95.432 469.394 95.5067 469.608 95.656C469.832 95.7947 470.088 95.9493 470.376 96.12C470.674 96.2907 471.032 96.4507 471.448 96.6C471.864 96.7387 472.381 96.808 473 96.808C473.512 96.808 473.954 96.7493 474.328 96.632C474.701 96.504 475.01 96.3333 475.256 96.12C475.501 95.9067 475.682 95.6667 475.8 95.4C475.917 95.1227 475.976 94.8293 475.976 94.52C475.976 94.104 475.858 93.7627 475.624 93.496C475.389 93.2293 475.074 93 474.68 92.808C474.296 92.616 473.853 92.4453 473.352 92.296C472.861 92.1467 472.36 91.9867 471.848 91.816C471.336 91.6453 470.829 91.448 470.328 91.224C469.837 91 469.394 90.7173 469 90.376C468.616 90.024 468.306 89.6027 468.072 89.112C467.837 88.6107 467.72 88.0027 467.72 87.288C467.72 86.6373 467.848 86.0187 468.104 85.432C468.37 84.8453 468.754 84.328 469.256 83.88C469.768 83.432 470.392 83.08 471.128 82.824C471.874 82.5573 472.733 82.424 473.704 82.424C474.802 82.424 475.8 82.6 476.696 82.952C477.592 83.304 478.344 83.784 478.952 84.392L478.184 85.64ZM493.961 82.68V99H490.521V82.68H493.961ZM494.537 77.752C494.537 78.0613 494.473 78.3547 494.345 78.632C494.228 78.9093 494.063 79.1547 493.849 79.368C493.636 79.5707 493.385 79.736 493.097 79.864C492.82 79.9813 492.521 80.04 492.201 80.04C491.892 80.04 491.599 79.9813 491.321 79.864C491.055 79.736 490.82 79.5707 490.617 79.368C490.415 79.1547 490.249 78.9093 490.121 78.632C490.004 78.3547 489.945 78.0613 489.945 77.752C489.945 77.432 490.004 77.1333 490.121 76.856C490.249 76.5787 490.415 76.3387 490.617 76.136C490.82 75.9227 491.055 75.7573 491.321 75.64C491.599 75.512 491.892 75.448 492.201 75.448C492.521 75.448 492.82 75.512 493.097 75.64C493.385 75.7573 493.636 75.9227 493.849 76.136C494.063 76.3387 494.228 76.5787 494.345 76.856C494.473 77.1333 494.537 77.432 494.537 77.752ZM501.5 84.84C501.852 84.4773 502.214 84.152 502.588 83.864C502.972 83.5653 503.377 83.3093 503.804 83.096C504.23 82.8827 504.684 82.7173 505.164 82.6C505.644 82.4827 506.166 82.424 506.732 82.424C507.628 82.424 508.412 82.5733 509.084 82.872C509.766 83.1707 510.337 83.592 510.796 84.136C511.265 84.68 511.617 85.336 511.852 86.104C512.086 86.8613 512.204 87.6987 512.204 88.616V99H508.78V88.616C508.78 87.5173 508.524 86.664 508.012 86.056C507.51 85.448 506.742 85.144 505.708 85.144C504.94 85.144 504.225 85.32 503.564 85.672C502.913 86.024 502.3 86.504 501.724 87.112V99H498.284V82.68H500.364C500.833 82.68 501.132 82.8987 501.26 83.336L501.5 84.84ZM528.59 99H524.83V75.96H528.59V99ZM536.375 84.84C536.727 84.4773 537.089 84.152 537.463 83.864C537.847 83.5653 538.252 83.3093 538.679 83.096C539.105 82.8827 539.559 82.7173 540.039 82.6C540.519 82.4827 541.041 82.424 541.607 82.424C542.503 82.424 543.287 82.5733 543.959 82.872C544.641 83.1707 545.212 83.592 545.671 84.136C546.14 84.68 546.492 85.336 546.727 86.104C546.961 86.8613 547.079 87.6987 547.079 88.616V99H543.655V88.616C543.655 87.5173 543.399 86.664 542.887 86.056C542.385 85.448 541.617 85.144 540.583 85.144C539.815 85.144 539.1 85.32 538.439 85.672C537.788 86.024 537.175 86.504 536.599 87.112V99H533.159V82.68H535.239C535.708 82.68 536.007 82.8987 536.135 83.336L536.375 84.84ZM561.512 86.696C561.032 86.0773 560.504 85.6453 559.928 85.4C559.352 85.1547 558.728 85.032 558.056 85.032C556.712 85.032 555.661 85.528 554.904 86.52C554.147 87.5013 553.768 88.9573 553.768 90.888C553.768 91.8907 553.853 92.7493 554.024 93.464C554.195 94.168 554.44 94.744 554.76 95.192C555.08 95.64 555.469 95.9653 555.928 96.168C556.387 96.3707 556.904 96.472 557.48 96.472C558.355 96.472 559.107 96.2853 559.736 95.912C560.376 95.528 560.968 94.9893 561.512 94.296V86.696ZM564.952 75.32V99H562.872C562.413 99 562.12 98.7813 561.992 98.344L561.688 96.568C561.005 97.368 560.227 98.0133 559.352 98.504C558.488 98.9947 557.48 99.24 556.328 99.24C555.411 99.24 554.579 99.0587 553.832 98.696C553.085 98.3227 552.445 97.784 551.912 97.08C551.379 96.376 550.963 95.5067 550.664 94.472C550.376 93.4267 550.232 92.232 550.232 90.888C550.232 89.672 550.392 88.5467 550.712 87.512C551.043 86.4773 551.512 85.5813 552.12 84.824C552.728 84.056 553.464 83.4587 554.328 83.032C555.203 82.5947 556.179 82.376 557.256 82.376C558.216 82.376 559.032 82.5307 559.704 82.84C560.376 83.1387 560.979 83.56 561.512 84.104V75.32H564.952ZM572.743 82.68V99H569.303V82.68H572.743ZM573.319 77.752C573.319 78.0613 573.255 78.3547 573.127 78.632C573.009 78.9093 572.844 79.1547 572.631 79.368C572.417 79.5707 572.167 79.736 571.879 79.864C571.601 79.9813 571.303 80.04 570.983 80.04C570.673 80.04 570.38 79.9813 570.103 79.864C569.836 79.736 569.601 79.5707 569.399 79.368C569.196 79.1547 569.031 78.9093 568.903 78.632C568.785 78.3547 568.727 78.0613 568.727 77.752C568.727 77.432 568.785 77.1333 568.903 76.856C569.031 76.5787 569.196 76.3387 569.399 76.136C569.601 75.9227 569.836 75.7573 570.103 75.64C570.38 75.512 570.673 75.448 570.983 75.448C571.303 75.448 571.601 75.512 571.879 75.64C572.167 75.7573 572.417 75.9227 572.631 76.136C572.844 76.3387 573.009 76.5787 573.127 76.856C573.255 77.1333 573.319 77.432 573.319 77.752ZM585.785 91.864C584.558 91.9067 583.523 92.008 582.681 92.168C581.838 92.3173 581.155 92.5147 580.633 92.76C580.11 92.9947 579.731 93.2773 579.497 93.608C579.273 93.9387 579.161 94.3013 579.161 94.696C579.161 95.08 579.219 95.4107 579.337 95.688C579.465 95.9547 579.635 96.1787 579.849 96.36C580.073 96.5307 580.329 96.6587 580.617 96.744C580.915 96.8187 581.241 96.856 581.593 96.856C582.489 96.856 583.257 96.6907 583.897 96.36C584.547 96.0187 585.177 95.528 585.785 94.888V91.864ZM576.665 84.952C578.51 83.2347 580.707 82.376 583.257 82.376C584.195 82.376 585.027 82.5307 585.753 82.84C586.489 83.1387 587.102 83.5653 587.593 84.12C588.094 84.6747 588.473 85.336 588.729 86.104C588.995 86.8613 589.129 87.704 589.129 88.632V99H587.593C587.262 99 587.011 98.952 586.841 98.856C586.67 98.7493 586.526 98.5413 586.409 98.232L586.073 96.904C585.657 97.2773 585.246 97.6133 584.841 97.912C584.435 98.2 584.014 98.4453 583.577 98.648C583.15 98.8507 582.686 99 582.185 99.096C581.694 99.2027 581.15 99.256 580.553 99.256C579.891 99.256 579.273 99.1653 578.697 98.984C578.131 98.8027 577.641 98.5307 577.225 98.168C576.809 97.7947 576.478 97.336 576.233 96.792C575.998 96.248 575.881 95.608 575.881 94.872C575.881 94.2427 576.046 93.6293 576.377 93.032C576.718 92.4347 577.273 91.9013 578.041 91.432C578.819 90.952 579.838 90.5573 581.097 90.248C582.366 89.9387 583.929 89.7627 585.785 89.72V88.632C585.785 87.4587 585.534 86.584 585.033 86.008C584.531 85.432 583.795 85.144 582.825 85.144C582.163 85.144 581.609 85.2293 581.161 85.4C580.713 85.56 580.323 85.736 579.993 85.928C579.662 86.12 579.369 86.3013 579.113 86.472C578.857 86.632 578.585 86.712 578.297 86.712C578.062 86.712 577.859 86.6533 577.689 86.536C577.529 86.408 577.395 86.2533 577.289 86.072L576.665 84.952ZM595.441 75.96V80.568L595.137 83.064C595.073 83.4693 594.956 83.7893 594.785 84.024C594.614 84.248 594.332 84.36 593.937 84.36C593.596 84.36 593.334 84.248 593.153 84.024C592.972 83.7893 592.844 83.4693 592.769 83.064L592.465 80.568V75.96H595.441ZM608.778 85.64C608.692 85.7893 608.596 85.896 608.49 85.96C608.383 86.024 608.25 86.056 608.09 86.056C607.908 86.056 607.711 86.0027 607.498 85.896C607.284 85.7787 607.034 85.6507 606.746 85.512C606.458 85.3733 606.116 85.2507 605.722 85.144C605.338 85.0267 604.884 84.968 604.362 84.968C603.935 84.968 603.546 85.0213 603.194 85.128C602.852 85.224 602.559 85.368 602.314 85.56C602.079 85.7413 601.898 85.96 601.77 86.216C601.642 86.4613 601.578 86.728 601.578 87.016C601.578 87.4 601.695 87.72 601.93 87.976C602.164 88.232 602.474 88.456 602.858 88.648C603.242 88.8293 603.679 88.9947 604.17 89.144C604.66 89.2933 605.162 89.4533 605.674 89.624C606.186 89.7947 606.687 89.992 607.178 90.216C607.668 90.44 608.106 90.7173 608.49 91.048C608.874 91.368 609.183 91.7627 609.418 92.232C609.652 92.6907 609.77 93.2507 609.77 93.912C609.77 94.68 609.631 95.3893 609.354 96.04C609.076 96.6907 608.671 97.256 608.138 97.736C607.604 98.216 606.938 98.5893 606.138 98.856C605.348 99.1227 604.442 99.256 603.418 99.256C602.852 99.256 602.303 99.2027 601.77 99.096C601.247 99 600.746 98.8667 600.266 98.696C599.796 98.5147 599.354 98.3013 598.938 98.056C598.532 97.8107 598.17 97.544 597.85 97.256L598.65 95.944C598.746 95.784 598.863 95.6613 599.002 95.576C599.151 95.48 599.332 95.432 599.546 95.432C599.77 95.432 599.988 95.5067 600.202 95.656C600.426 95.7947 600.682 95.9493 600.97 96.12C601.268 96.2907 601.626 96.4507 602.042 96.6C602.458 96.7387 602.975 96.808 603.594 96.808C604.106 96.808 604.548 96.7493 604.922 96.632C605.295 96.504 605.604 96.3333 605.85 96.12C606.095 95.9067 606.276 95.6667 606.394 95.4C606.511 95.1227 606.57 94.8293 606.57 94.52C606.57 94.104 606.452 93.7627 606.218 93.496C605.983 93.2293 605.668 93 605.274 92.808C604.89 92.616 604.447 92.4453 603.946 92.296C603.455 92.1467 602.954 91.9867 602.442 91.816C601.93 91.6453 601.423 91.448 600.922 91.224C600.431 91 599.988 90.7173 599.594 90.376C599.21 90.024 598.9 89.6027 598.666 89.112C598.431 88.6107 598.314 88.0027 598.314 87.288C598.314 86.6373 598.442 86.0187 598.698 85.432C598.964 84.8453 599.348 84.328 599.85 83.88C600.362 83.432 600.986 83.08 601.722 82.824C602.468 82.5573 603.327 82.424 604.298 82.424C605.396 82.424 606.394 82.6 607.29 82.952C608.186 83.304 608.938 83.784 609.546 84.392L608.778 85.64ZM626.203 99.256C624.848 99.256 623.803 98.8773 623.067 98.12C622.342 97.352 621.979 96.2747 621.979 94.888V85.384H620.187C619.995 85.384 619.83 85.3253 619.691 85.208C619.552 85.08 619.483 84.8933 619.483 84.648V83.256L622.123 82.872L622.875 78.152C622.928 77.9707 623.019 77.8267 623.147 77.72C623.275 77.6027 623.446 77.544 623.659 77.544H625.419V82.904H629.947V85.384H625.419V94.648C625.419 95.2347 625.563 95.6827 625.851 95.992C626.139 96.3013 626.523 96.456 627.003 96.456C627.27 96.456 627.499 96.424 627.691 96.36C627.883 96.2853 628.048 96.2107 628.187 96.136C628.326 96.0507 628.443 95.976 628.539 95.912C628.646 95.8373 628.747 95.8 628.843 95.8C629.035 95.8 629.19 95.9067 629.307 96.12L630.331 97.8C629.798 98.2693 629.168 98.632 628.443 98.888C627.718 99.1333 626.971 99.256 626.203 99.256ZM639.59 82.424C640.795 82.424 641.883 82.6213 642.854 83.016C643.835 83.4107 644.667 83.9707 645.35 84.696C646.043 85.4213 646.576 86.3013 646.95 87.336C647.323 88.3707 647.51 89.5333 647.51 90.824C647.51 92.1147 647.323 93.2773 646.95 94.312C646.576 95.3467 646.043 96.232 645.35 96.968C644.667 97.6933 643.835 98.2533 642.854 98.648C641.883 99.0427 640.795 99.24 639.59 99.24C638.374 99.24 637.275 99.0427 636.294 98.648C635.323 98.2533 634.491 97.6933 633.798 96.968C633.104 96.232 632.571 95.3467 632.198 94.312C631.824 93.2773 631.638 92.1147 631.638 90.824C631.638 89.5333 631.824 88.3707 632.198 87.336C632.571 86.3013 633.104 85.4213 633.798 84.696C634.491 83.9707 635.323 83.4107 636.294 83.016C637.275 82.6213 638.374 82.424 639.59 82.424ZM639.59 96.552C641.062 96.552 642.155 96.0613 642.87 95.08C643.595 94.088 643.958 92.6747 643.958 90.84C643.958 89.0053 643.595 87.592 642.87 86.6C642.155 85.5973 641.062 85.096 639.59 85.096C638.096 85.096 636.987 85.5973 636.262 86.6C635.536 87.592 635.174 89.0053 635.174 90.84C635.174 92.6747 635.536 94.088 636.262 95.08C636.987 96.0613 638.096 96.552 639.59 96.552ZM654.255 94.904C654.735 95.5227 655.257 95.96 655.823 96.216C656.399 96.4613 657.033 96.584 657.727 96.584C659.071 96.584 660.116 96.0933 660.863 95.112C661.62 94.1307 661.999 92.6693 661.999 90.728C661.999 89.7253 661.913 88.872 661.743 88.168C661.572 87.4533 661.327 86.872 661.007 86.424C660.687 85.976 660.297 85.6507 659.839 85.448C659.38 85.2453 658.863 85.144 658.287 85.144C657.412 85.144 656.655 85.336 656.015 85.72C655.385 86.0933 654.799 86.632 654.255 87.336V94.904ZM654.079 85.048C654.761 84.248 655.535 83.6027 656.399 83.112C657.273 82.6213 658.287 82.376 659.439 82.376C660.356 82.376 661.188 82.5627 661.935 82.936C662.681 83.2987 663.321 83.832 663.855 84.536C664.388 85.24 664.799 86.1147 665.087 87.16C665.385 88.1947 665.535 89.384 665.535 90.728C665.535 91.9333 665.369 93.0587 665.039 94.104C664.719 95.1387 664.255 96.04 663.647 96.808C663.039 97.5653 662.303 98.1627 661.439 98.6C660.575 99.0267 659.599 99.24 658.511 99.24C657.551 99.24 656.735 99.0853 656.063 98.776C655.401 98.4667 654.799 98.04 654.255 97.496V104.424H650.815V82.68H652.895C653.364 82.68 653.663 82.8987 653.791 83.336L654.079 85.048ZM371.38 129.904C371.86 130.523 372.382 130.96 372.948 131.216C373.524 131.461 374.158 131.584 374.852 131.584C376.196 131.584 377.241 131.093 377.988 130.112C378.745 129.131 379.124 127.669 379.124 125.728C379.124 124.725 379.038 123.872 378.868 123.168C378.697 122.453 378.452 121.872 378.132 121.424C377.812 120.976 377.422 120.651 376.964 120.448C376.505 120.245 375.988 120.144 375.412 120.144C374.537 120.144 373.78 120.336 373.14 120.72C372.51 121.093 371.924 121.632 371.38 122.336V129.904ZM371.204 120.048C371.886 119.248 372.66 118.603 373.524 118.112C374.398 117.621 375.412 117.376 376.564 117.376C377.481 117.376 378.313 117.563 379.06 117.936C379.806 118.299 380.446 118.832 380.98 119.536C381.513 120.24 381.924 121.115 382.212 122.16C382.51 123.195 382.66 124.384 382.66 125.728C382.66 126.933 382.494 128.059 382.164 129.104C381.844 130.139 381.38 131.04 380.772 131.808C380.164 132.565 379.428 133.163 378.564 133.6C377.7 134.027 376.724 134.24 375.636 134.24C374.676 134.24 373.86 134.085 373.188 133.776C372.526 133.467 371.924 133.04 371.38 132.496V139.424H367.94V117.68H370.02C370.489 117.68 370.788 117.899 370.916 118.336L371.204 120.048ZM389.25 120.704C389.762 119.669 390.381 118.859 391.106 118.272C391.832 117.675 392.701 117.376 393.714 117.376C394.066 117.376 394.397 117.419 394.706 117.504C395.016 117.579 395.293 117.696 395.538 117.856L395.298 120.448C395.256 120.629 395.186 120.757 395.09 120.832C395.005 120.896 394.888 120.928 394.738 120.928C394.578 120.928 394.349 120.901 394.05 120.848C393.752 120.784 393.437 120.752 393.106 120.752C392.626 120.752 392.2 120.821 391.826 120.96C391.464 121.099 391.133 121.301 390.834 121.568C390.546 121.835 390.29 122.16 390.066 122.544C389.842 122.928 389.634 123.365 389.442 123.856V134H386.002V117.68H388.002C388.365 117.68 388.616 117.749 388.754 117.888C388.893 118.016 388.989 118.245 389.042 118.576L389.25 120.704ZM401.399 117.68V134H397.959V117.68H401.399ZM401.975 112.752C401.975 113.061 401.911 113.355 401.783 113.632C401.665 113.909 401.5 114.155 401.287 114.368C401.073 114.571 400.823 114.736 400.535 114.864C400.257 114.981 399.959 115.04 399.639 115.04C399.329 115.04 399.036 114.981 398.759 114.864C398.492 114.736 398.257 114.571 398.055 114.368C397.852 114.155 397.687 113.909 397.559 113.632C397.441 113.355 397.383 113.061 397.383 112.752C397.383 112.432 397.441 112.133 397.559 111.856C397.687 111.579 397.852 111.339 398.055 111.136C398.257 110.923 398.492 110.757 398.759 110.64C399.036 110.512 399.329 110.448 399.639 110.448C399.959 110.448 400.257 110.512 400.535 110.64C400.823 110.757 401.073 110.923 401.287 111.136C401.5 111.339 401.665 111.579 401.783 111.856C401.911 112.133 401.975 112.432 401.975 112.752ZM420.089 117.68L413.529 134H410.425L403.865 117.68H406.697C406.964 117.68 407.182 117.749 407.353 117.888C407.534 118.016 407.652 118.171 407.705 118.352L411.321 127.856C411.47 128.304 411.604 128.747 411.721 129.184C411.838 129.621 411.94 130.064 412.025 130.512C412.11 130.064 412.212 129.627 412.329 129.2C412.457 128.763 412.596 128.315 412.745 127.856L416.425 118.352C416.489 118.16 416.606 118 416.777 117.872C416.948 117.744 417.156 117.68 417.401 117.68H420.089ZM430.785 126.864C429.558 126.907 428.523 127.008 427.681 127.168C426.838 127.317 426.155 127.515 425.633 127.76C425.11 127.995 424.731 128.277 424.497 128.608C424.273 128.939 424.161 129.301 424.161 129.696C424.161 130.08 424.219 130.411 424.337 130.688C424.465 130.955 424.635 131.179 424.849 131.36C425.073 131.531 425.329 131.659 425.617 131.744C425.915 131.819 426.241 131.856 426.593 131.856C427.489 131.856 428.257 131.691 428.897 131.36C429.547 131.019 430.177 130.528 430.785 129.888V126.864ZM421.665 119.952C423.51 118.235 425.707 117.376 428.257 117.376C429.195 117.376 430.027 117.531 430.753 117.84C431.489 118.139 432.102 118.565 432.593 119.12C433.094 119.675 433.473 120.336 433.729 121.104C433.995 121.861 434.129 122.704 434.129 123.632V134H432.593C432.262 134 432.011 133.952 431.841 133.856C431.67 133.749 431.526 133.541 431.409 133.232L431.073 131.904C430.657 132.277 430.246 132.613 429.841 132.912C429.435 133.2 429.014 133.445 428.577 133.648C428.15 133.851 427.686 134 427.185 134.096C426.694 134.203 426.15 134.256 425.553 134.256C424.891 134.256 424.273 134.165 423.697 133.984C423.131 133.803 422.641 133.531 422.225 133.168C421.809 132.795 421.478 132.336 421.233 131.792C420.998 131.248 420.881 130.608 420.881 129.872C420.881 129.243 421.046 128.629 421.377 128.032C421.718 127.435 422.273 126.901 423.041 126.432C423.819 125.952 424.838 125.557 426.097 125.248C427.366 124.939 428.929 124.763 430.785 124.72V123.632C430.785 122.459 430.534 121.584 430.033 121.008C429.531 120.432 428.795 120.144 427.825 120.144C427.163 120.144 426.609 120.229 426.161 120.4C425.713 120.56 425.323 120.736 424.993 120.928C424.662 121.12 424.369 121.301 424.113 121.472C423.857 121.632 423.585 121.712 423.297 121.712C423.062 121.712 422.859 121.653 422.689 121.536C422.529 121.408 422.395 121.253 422.289 121.072L421.665 119.952ZM443.172 134.256C441.817 134.256 440.772 133.877 440.036 133.12C439.31 132.352 438.948 131.275 438.948 129.888V120.384H437.156C436.964 120.384 436.798 120.325 436.66 120.208C436.521 120.08 436.452 119.893 436.452 119.648V118.256L439.092 117.872L439.844 113.152C439.897 112.971 439.988 112.827 440.116 112.72C440.244 112.603 440.414 112.544 440.628 112.544H442.388V117.904H446.916V120.384H442.388V129.648C442.388 130.235 442.532 130.683 442.82 130.992C443.108 131.301 443.492 131.456 443.972 131.456C444.238 131.456 444.468 131.424 444.66 131.36C444.852 131.285 445.017 131.211 445.156 131.136C445.294 131.051 445.412 130.976 445.508 130.912C445.614 130.837 445.716 130.8 445.812 130.8C446.004 130.8 446.158 130.907 446.276 131.12L447.3 132.8C446.766 133.269 446.137 133.632 445.412 133.888C444.686 134.133 443.94 134.256 443.172 134.256ZM460.206 124C460.206 123.424 460.121 122.891 459.95 122.4C459.79 121.899 459.55 121.467 459.23 121.104C458.91 120.731 458.51 120.443 458.03 120.24C457.561 120.027 457.017 119.92 456.398 119.92C455.15 119.92 454.169 120.277 453.454 120.992C452.74 121.707 452.286 122.709 452.094 124H460.206ZM451.998 126.112C452.041 127.04 452.185 127.845 452.43 128.528C452.676 129.2 453.001 129.76 453.406 130.208C453.822 130.656 454.313 130.992 454.878 131.216C455.454 131.429 456.094 131.536 456.798 131.536C457.47 131.536 458.052 131.461 458.542 131.312C459.033 131.152 459.46 130.981 459.822 130.8C460.185 130.608 460.494 130.437 460.75 130.288C461.006 130.128 461.241 130.048 461.454 130.048C461.732 130.048 461.945 130.155 462.094 130.368L463.07 131.632C462.665 132.112 462.206 132.517 461.694 132.848C461.182 133.179 460.638 133.451 460.062 133.664C459.486 133.867 458.894 134.011 458.286 134.096C457.678 134.192 457.086 134.24 456.51 134.24C455.38 134.24 454.329 134.053 453.358 133.68C452.398 133.296 451.561 132.736 450.846 132C450.142 131.264 449.588 130.352 449.182 129.264C448.788 128.176 448.59 126.923 448.59 125.504C448.59 124.373 448.766 123.317 449.118 122.336C449.481 121.355 449.993 120.501 450.654 119.776C451.326 119.051 452.137 118.48 453.086 118.064C454.046 117.637 455.129 117.424 456.334 117.424C457.337 117.424 458.265 117.589 459.118 117.92C459.972 118.24 460.708 118.715 461.326 119.344C461.945 119.973 462.425 120.747 462.766 121.664C463.118 122.571 463.294 123.605 463.294 124.768C463.294 125.301 463.236 125.659 463.118 125.84C463.001 126.021 462.788 126.112 462.478 126.112H451.998ZM477.911 129.904C478.391 130.523 478.914 130.96 479.479 131.216C480.055 131.461 480.679 131.584 481.351 131.584C482.706 131.584 483.762 131.093 484.519 130.112C485.276 129.131 485.655 127.611 485.655 125.552C485.655 123.675 485.324 122.304 484.663 121.44C484.012 120.576 483.079 120.144 481.863 120.144C481.02 120.144 480.284 120.336 479.655 120.72C479.036 121.093 478.455 121.632 477.911 122.336V129.904ZM477.911 119.84C478.583 119.104 479.335 118.517 480.167 118.08C480.999 117.643 481.948 117.424 483.015 117.424C483.964 117.424 484.818 117.611 485.575 117.984C486.343 118.347 486.994 118.875 487.527 119.568C488.06 120.261 488.471 121.104 488.759 122.096C489.047 123.077 489.191 124.187 489.191 125.424C489.191 126.747 489.026 127.952 488.695 129.04C488.375 130.117 487.911 131.045 487.303 131.824C486.695 132.592 485.959 133.189 485.095 133.616C484.231 134.032 483.266 134.24 482.199 134.24C481.676 134.24 481.202 134.187 480.775 134.08C480.348 133.984 479.954 133.84 479.591 133.648C479.228 133.456 478.892 133.227 478.583 132.96C478.284 132.693 477.996 132.389 477.719 132.048L477.575 133.312C477.522 133.557 477.426 133.733 477.287 133.84C477.148 133.947 476.956 134 476.711 134H474.471V110.32H477.911V119.84ZM501.254 126.864C500.027 126.907 498.992 127.008 498.15 127.168C497.307 127.317 496.624 127.515 496.102 127.76C495.579 127.995 495.2 128.277 494.966 128.608C494.742 128.939 494.63 129.301 494.63 129.696C494.63 130.08 494.688 130.411 494.806 130.688C494.934 130.955 495.104 131.179 495.318 131.36C495.542 131.531 495.798 131.659 496.086 131.744C496.384 131.819 496.71 131.856 497.062 131.856C497.958 131.856 498.726 131.691 499.366 131.36C500.016 131.019 500.646 130.528 501.254 129.888V126.864ZM492.134 119.952C493.979 118.235 496.176 117.376 498.726 117.376C499.664 117.376 500.496 117.531 501.222 117.84C501.958 118.139 502.571 118.565 503.062 119.12C503.563 119.675 503.942 120.336 504.198 121.104C504.464 121.861 504.598 122.704 504.598 123.632V134H503.062C502.731 134 502.48 133.952 502.31 133.856C502.139 133.749 501.995 133.541 501.878 133.232L501.542 131.904C501.126 132.277 500.715 132.613 500.31 132.912C499.904 133.2 499.483 133.445 499.046 133.648C498.619 133.851 498.155 134 497.654 134.096C497.163 134.203 496.619 134.256 496.022 134.256C495.36 134.256 494.742 134.165 494.166 133.984C493.6 133.803 493.11 133.531 492.694 133.168C492.278 132.795 491.947 132.336 491.702 131.792C491.467 131.248 491.35 130.608 491.35 129.872C491.35 129.243 491.515 128.629 491.846 128.032C492.187 127.435 492.742 126.901 493.51 126.432C494.288 125.952 495.307 125.557 496.566 125.248C497.835 124.939 499.398 124.763 501.254 124.72V123.632C501.254 122.459 501.003 121.584 500.502 121.008C500 120.432 499.264 120.144 498.294 120.144C497.632 120.144 497.078 120.229 496.63 120.4C496.182 120.56 495.792 120.736 495.462 120.928C495.131 121.12 494.838 121.301 494.582 121.472C494.326 121.632 494.054 121.712 493.766 121.712C493.531 121.712 493.328 121.653 493.158 121.536C492.998 121.408 492.864 121.253 492.758 121.072L492.134 119.952ZM511.843 119.84C512.195 119.477 512.558 119.152 512.931 118.864C513.315 118.565 513.721 118.309 514.147 118.096C514.574 117.883 515.027 117.717 515.507 117.6C515.987 117.483 516.51 117.424 517.075 117.424C517.971 117.424 518.755 117.573 519.427 117.872C520.11 118.171 520.681 118.592 521.139 119.136C521.609 119.68 521.961 120.336 522.195 121.104C522.43 121.861 522.547 122.699 522.547 123.616V134H519.123V123.616C519.123 122.517 518.867 121.664 518.355 121.056C517.854 120.448 517.086 120.144 516.051 120.144C515.283 120.144 514.569 120.32 513.907 120.672C513.257 121.024 512.643 121.504 512.067 122.112V134H508.627V117.68H510.707C511.177 117.68 511.475 117.899 511.603 118.336L511.843 119.84ZM530.005 110.32V124.048H530.741C530.975 124.048 531.167 124.016 531.317 123.952C531.466 123.888 531.621 123.755 531.781 123.552L536.357 118.32C536.517 118.107 536.693 117.947 536.885 117.84C537.077 117.733 537.322 117.68 537.621 117.68H540.741L535.237 123.888C534.917 124.304 534.565 124.635 534.181 124.88C534.394 125.029 534.581 125.2 534.741 125.392C534.901 125.573 535.055 125.781 535.205 126.016L541.077 134H538.005C537.727 134 537.487 133.957 537.285 133.872C537.093 133.776 536.922 133.605 536.773 133.36L532.053 126.96C531.893 126.715 531.733 126.56 531.573 126.496C531.413 126.421 531.173 126.384 530.853 126.384H530.005V134H526.565V110.32H530.005ZM553.028 120.64C552.942 120.789 552.846 120.896 552.74 120.96C552.633 121.024 552.5 121.056 552.34 121.056C552.158 121.056 551.961 121.003 551.748 120.896C551.534 120.779 551.284 120.651 550.996 120.512C550.708 120.373 550.366 120.251 549.972 120.144C549.588 120.027 549.134 119.968 548.612 119.968C548.185 119.968 547.796 120.021 547.444 120.128C547.102 120.224 546.809 120.368 546.564 120.56C546.329 120.741 546.148 120.96 546.02 121.216C545.892 121.461 545.828 121.728 545.828 122.016C545.828 122.4 545.945 122.72 546.18 122.976C546.414 123.232 546.724 123.456 547.108 123.648C547.492 123.829 547.929 123.995 548.42 124.144C548.91 124.293 549.412 124.453 549.924 124.624C550.436 124.795 550.937 124.992 551.428 125.216C551.918 125.44 552.356 125.717 552.74 126.048C553.124 126.368 553.433 126.763 553.668 127.232C553.902 127.691 554.02 128.251 554.02 128.912C554.02 129.68 553.881 130.389 553.604 131.04C553.326 131.691 552.921 132.256 552.388 132.736C551.854 133.216 551.188 133.589 550.388 133.856C549.598 134.123 548.692 134.256 547.668 134.256C547.102 134.256 546.553 134.203 546.02 134.096C545.497 134 544.996 133.867 544.516 133.696C544.046 133.515 543.604 133.301 543.188 133.056C542.782 132.811 542.42 132.544 542.1 132.256L542.9 130.944C542.996 130.784 543.113 130.661 543.252 130.576C543.401 130.48 543.582 130.432 543.796 130.432C544.02 130.432 544.238 130.507 544.452 130.656C544.676 130.795 544.932 130.949 545.22 131.12C545.518 131.291 545.876 131.451 546.292 131.6C546.708 131.739 547.225 131.808 547.844 131.808C548.356 131.808 548.798 131.749 549.172 131.632C549.545 131.504 549.854 131.333 550.1 131.12C550.345 130.907 550.526 130.667 550.644 130.4C550.761 130.123 550.82 129.829 550.82 129.52C550.82 129.104 550.702 128.763 550.468 128.496C550.233 128.229 549.918 128 549.524 127.808C549.14 127.616 548.697 127.445 548.196 127.296C547.705 127.147 547.204 126.987 546.692 126.816C546.18 126.645 545.673 126.448 545.172 126.224C544.681 126 544.238 125.717 543.844 125.376C543.46 125.024 543.15 124.603 542.916 124.112C542.681 123.611 542.564 123.003 542.564 122.288C542.564 121.637 542.692 121.019 542.948 120.432C543.214 119.845 543.598 119.328 544.1 118.88C544.612 118.432 545.236 118.08 545.972 117.824C546.718 117.557 547.577 117.424 548.548 117.424C549.646 117.424 550.644 117.6 551.54 117.952C552.436 118.304 553.188 118.784 553.796 119.392L553.028 120.64Z" fill="white"/>
<path d="M58.7967 146.104H86.7483V99.4065H58.7967L58.7967 146.104Z" fill="#B2B2B2"/>
<path d="M86.6376 146.104H114.589V99.4065H86.6376V146.104Z" fill="#D1D1D1"/>
<path d="M89.1486 55.249L92.515 71.3683L82.0005 72.7221C82.0005 72.7221 81.0889 55.971 82.0005 55.8807C82.912 55.7995 89.1486 55.249 89.1486 55.249Z" fill="#A8754B"/>
<path d="M79.3109 39.0574C79.3109 39.0574 89.8164 40.5376 91.7027 56.5215C91.7027 56.5215 88.3543 60.1227 84.0853 59.0126L79.3109 39.0574Z" fill="#FFD686"/>
<path d="M74.7531 38.5069C74.7531 38.5069 64.5183 37.4961 60.9172 44.7073C57.307 51.9186 67.8306 59.4277 64.2205 75.9532L86.9103 74.7528V60.1768C86.9103 60.1768 91.0439 54.1479 85.1864 47.6857C85.1864 47.6857 84.8344 37.8661 74.7531 38.5069Z" fill="#FFD686"/>
<path d="M108.508 78.2908C108.508 78.2908 115.864 75.5651 117.84 82.7042C119.817 89.8342 128.012 136.45 128.012 136.45H121.441L117.578 117.921C117.578 117.921 112.127 111.847 110.457 98.9498L87.533 96.2152L108.508 78.2908Z" fill="#B5845B"/>
<path d="M93.4718 95.3487C93.4718 95.3487 97.3707 95.2404 104.293 93.0382C111.216 90.827 116.153 93.1645 113.427 100.962C110.701 108.751 96.9285 144.853 96.9285 144.853L91.7118 143.291L96.2155 119.916C96.2155 119.916 97.2714 108.318 102.163 101.522C102.163 101.522 91.8743 102.036 88.3544 101.495C84.8525 100.962 93.4718 95.3487 93.4718 95.3487Z" fill="#A8754B"/>
<path d="M64.2205 75.9531C64.2205 75.9531 55.8991 86.4135 65.9082 96.6844C65.9082 96.6844 71.0617 102.686 93.7786 101.748C93.7786 101.748 99.7353 81.6391 112.407 76.2329L86.1792 72.722L64.2205 75.9531Z" fill="#0C2C40"/>
<path d="M75.3127 11.8008C75.3127 11.8008 78.0203 0.780829 68.643 0.717652C61.7024 0.672525 59.6356 8.96682 68.1466 14.5174L75.3127 11.8008Z" fill="#190D08"/>
<path d="M67.8306 16.5211C67.8306 16.5211 66.1339 12.1889 70.9715 9.99577C75.8091 7.8026 77.3524 12.9922 77.3524 12.9922L67.8306 16.5211Z" fill="#FD6C75"/>
<path d="M86.2063 26.3769C86.2063 26.3769 93.192 22.2432 85.6377 13.9399C80.9174 8.75031 72.6502 9.03911 68.0473 14.1836C63.4443 19.328 67.7855 28.3985 67.7855 28.3985L70.9173 23.1909L73.661 19.1475L77.5871 17.5771L80.6647 17.7937L83.2731 18.1277L85.376 19.0122L86.2063 26.3769Z" fill="#27160C"/>
<path d="M80.5005 29.7169L72.6494 28.7085L71.0603 41.0805L78.9115 42.0889L80.5005 29.7169Z" fill="#B5845B"/>
<path d="M71.8289 32.3878C71.8289 32.3878 72.6773 36.8914 76.2965 37.803C77.4246 38.0828 78.6521 37.7578 79.338 36.8282C79.5276 36.5755 79.6629 36.2867 79.7081 35.9618C79.8795 34.6621 76.4499 32.3878 76.4499 32.3878H71.8289Z" fill="#A8754B"/>
<path d="M77.3614 35.5917L76.9553 35.5375C72.4516 34.9599 69.2657 30.8353 69.8433 26.3316L70.3036 22.7576C70.8812 18.2539 75.0058 15.068 79.5095 15.6456L79.9156 15.6997C84.4193 16.2774 87.6052 20.402 87.0276 24.9056L86.5673 28.4797C85.9897 32.9833 81.8651 36.1693 77.3614 35.5917Z" fill="#B5845B"/>
<path d="M70.7278 25.4382C70.7278 25.4382 76.3777 23.597 76.2333 17.2522C76.2333 17.2522 76.5943 12.5229 71.6484 16.9002C66.7025 21.2775 70.7278 25.4382 70.7278 25.4382Z" fill="#27160C"/>
<path d="M71.9733 27.1711C71.7748 28.6873 70.3939 29.7613 68.8686 29.5628C67.3523 29.3642 66.2783 27.9834 66.4769 26.4671C66.6754 24.9508 68.0563 23.8768 69.5816 24.0753C71.0979 24.2649 72.1719 25.6548 71.9733 27.1711Z" fill="#B5845B"/>
<path d="M73.7874 22.2613L73.5347 24.2649C72.9571 27.0899 71.7657 26.2324 71.3325 25.014L73.7874 22.2613Z" fill="#27160C"/>
<path d="M87.8941 21.2414C87.8941 21.2414 82.1268 25.5645 73.6701 19.1565C67.8397 14.7431 76.6575 13.1547 76.6575 13.1547L84.8796 14.8514L87.8941 21.2414Z" fill="#27160C"/>
<path d="M71.0708 41.0701C71.0708 41.0701 76.0077 49.8788 79.5095 47.1712C83.2911 44.247 74.7531 38.5069 74.7531 38.5069L71.0708 41.0701Z" fill="#B5845B"/>
<path d="M73.2549 59.0125C73.2549 59.0125 76.3055 64.6353 78.3903 69.0487L100.629 67.767C100.629 67.767 105.042 64.1569 108.499 67.2075L105.087 71.305L77.2441 77.4693C76.1791 77.704 75.069 77.3971 74.2838 76.657C71.8199 74.3285 66.4588 68.9043 63.8595 63.3717L73.2549 59.0125Z" fill="#B5845B"/>
<path d="M134.979 50.3391H107.651C106.748 50.3391 105.972 50.9709 105.791 51.8464L100.647 75.9892C100.394 77.1716 101.297 78.2907 102.506 78.2907H130.295C131.207 78.2907 131.992 77.6409 132.164 76.7474L136.857 52.6045C137.073 51.4312 136.171 50.3391 134.979 50.3391Z" fill="#B2B2B2"/>
<path d="M136.55 50.3391H109.221C108.318 50.3391 107.542 50.9709 107.362 51.8464L102.217 75.9892C101.965 77.1716 102.867 78.2907 104.077 78.2907H131.866C132.777 78.2907 133.562 77.6409 133.734 76.7474L138.427 52.6045C138.644 51.4312 137.75 50.3391 136.55 50.3391Z" fill="#D1D1D1"/>
<path d="M101.369 76.2329H82.6954C82.1268 76.2329 81.6665 76.6932 81.6665 77.2618C81.6665 77.8304 82.1268 78.2907 82.6954 78.2907H101.73L101.369 76.2329Z" fill="#B2B2B2"/>
<path d="M119.627 63.6876C119.627 65.3302 120.963 66.666 122.606 66.666C124.248 66.666 125.584 65.3302 125.584 63.6876C125.584 62.045 124.248 60.7092 122.606 60.7092C120.963 60.7092 119.627 62.036 119.627 63.6876Z" fill="white"/>
<path d="M63.8595 41.1965C63.4894 41.3589 51.242 47.3789 63.2909 66.0343C63.2909 66.0343 70.9895 66.1606 75.4481 60.4295C75.4571 60.4295 73.9769 36.756 63.8595 41.1965Z" fill="#FFD686"/>
<path d="M90.2948 142.272C90.4573 141.784 90.9898 141.604 91.3508 141.92C92.0548 142.542 93.3183 143.309 95.1775 143.12C97.118 142.93 97.84 141.784 98.1198 140.963C98.2642 140.53 98.6794 140.313 99.0494 140.494L110.8 146.396C111.513 146.757 112.073 147.425 112.344 148.255C112.606 149.041 112.082 149.88 111.342 149.862L91.0439 149.302C90.2407 149.284 89.636 148.499 89.6991 147.587L90.0331 143.111C90.0421 143.039 90.0511 142.966 90.0782 142.894L90.2948 142.272Z" fill="#FD6C75"/>
<path d="M119.925 134.546C119.961 134.031 120.422 133.716 120.846 133.932C121.685 134.347 123.102 134.753 124.853 134.086C126.667 133.391 127.073 132.1 127.127 131.234C127.154 130.782 127.497 130.457 127.904 130.539L140.792 133.165C141.577 133.327 142.29 133.824 142.777 134.555C143.238 135.241 142.949 136.188 142.236 136.36L122.497 141.134C121.721 141.324 120.927 140.728 120.755 139.826L119.907 135.421C119.889 135.349 119.889 135.277 119.889 135.196L119.925 134.546Z" fill="#FD6C75"/>
<rect x="752" y="78" width="173" height="51" rx="10" fill="url(#paint1_linear_19_552)"/>
<path d="M794.809 109.666C794.98 109.666 795.128 109.734 795.254 109.869L796.51 111.232C795.718 112.186 794.746 112.924 793.594 113.446C792.442 113.96 791.065 114.216 789.463 114.216C788.041 114.216 786.754 113.973 785.602 113.487C784.459 112.992 783.482 112.308 782.672 111.435C781.862 110.553 781.237 109.504 780.796 108.289C780.364 107.074 780.148 105.738 780.148 104.28C780.148 102.822 780.377 101.485 780.836 100.27C781.304 99.0465 781.957 97.998 782.794 97.125C783.64 96.243 784.648 95.559 785.817 95.073C786.997 94.587 788.293 94.344 789.706 94.344C791.11 94.344 792.347 94.5735 793.418 95.0325C794.498 95.4825 795.434 96.0855 796.226 96.8415L795.187 98.313C795.115 98.412 795.029 98.4975 794.93 98.5695C794.831 98.6415 794.696 98.6775 794.525 98.6775C794.345 98.6775 794.138 98.5965 793.904 98.4345C793.679 98.2635 793.387 98.079 793.027 97.881C792.676 97.674 792.23 97.4895 791.69 97.3275C791.159 97.1565 790.493 97.071 789.692 97.071C788.765 97.071 787.915 97.233 787.141 97.557C786.367 97.881 785.701 98.3535 785.143 98.9745C784.585 99.5955 784.148 100.351 783.833 101.242C783.527 102.133 783.374 103.146 783.374 104.28C783.374 105.423 783.536 106.444 783.86 107.344C784.184 108.235 784.63 108.991 785.197 109.612C785.764 110.224 786.43 110.692 787.195 111.016C787.96 111.34 788.783 111.502 789.665 111.502C790.205 111.502 790.687 111.475 791.11 111.421C791.542 111.358 791.938 111.264 792.298 111.138C792.658 111.003 792.995 110.836 793.31 110.638C793.634 110.44 793.954 110.197 794.269 109.909C794.449 109.747 794.629 109.666 794.809 109.666ZM801.655 94.02V114H798.752V94.02H801.655ZM808.261 100.23V114H805.359V100.23H808.261ZM808.747 96.072C808.747 96.333 808.693 96.5805 808.585 96.8145C808.486 97.0485 808.347 97.2555 808.167 97.4355C807.987 97.6065 807.775 97.746 807.532 97.854C807.298 97.953 807.046 98.0025 806.776 98.0025C806.515 98.0025 806.268 97.953 806.034 97.854C805.809 97.746 805.611 97.6065 805.44 97.4355C805.269 97.2555 805.129 97.0485 805.021 96.8145C804.922 96.5805 804.873 96.333 804.873 96.072C804.873 95.802 804.922 95.55 805.021 95.316C805.129 95.082 805.269 94.8795 805.44 94.7085C805.611 94.5285 805.809 94.389 806.034 94.29C806.268 94.182 806.515 94.128 806.776 94.128C807.046 94.128 807.298 94.182 807.532 94.29C807.775 94.389 807.987 94.5285 808.167 94.7085C808.347 94.8795 808.486 95.082 808.585 95.316C808.693 95.55 808.747 95.802 808.747 96.072ZM821.642 102.93C821.552 103.047 821.466 103.137 821.385 103.2C821.304 103.263 821.187 103.294 821.034 103.294C820.881 103.294 820.719 103.24 820.548 103.132C820.386 103.024 820.188 102.907 819.954 102.781C819.729 102.646 819.455 102.525 819.131 102.417C818.807 102.309 818.402 102.255 817.916 102.255C817.286 102.255 816.732 102.367 816.255 102.592C815.787 102.817 815.391 103.141 815.067 103.564C814.752 103.978 814.514 104.487 814.352 105.09C814.199 105.684 814.122 106.354 814.122 107.101C814.122 107.875 814.208 108.564 814.379 109.167C814.55 109.77 814.793 110.278 815.108 110.692C815.432 111.106 815.819 111.421 816.269 111.637C816.728 111.853 817.241 111.961 817.808 111.961C818.366 111.961 818.82 111.894 819.171 111.759C819.522 111.624 819.815 111.475 820.049 111.313C820.283 111.151 820.481 111.003 820.643 110.868C820.814 110.733 820.994 110.665 821.183 110.665C821.417 110.665 821.597 110.755 821.723 110.935L822.546 112.002C822.213 112.407 821.844 112.749 821.439 113.028C821.034 113.307 820.607 113.536 820.157 113.716C819.707 113.887 819.239 114.009 818.753 114.081C818.267 114.162 817.776 114.203 817.281 114.203C816.426 114.203 815.625 114.045 814.878 113.73C814.14 113.406 813.492 112.942 812.934 112.339C812.385 111.727 811.949 110.985 811.625 110.112C811.31 109.23 811.152 108.226 811.152 107.101C811.152 106.084 811.296 105.144 811.584 104.28C811.872 103.407 812.291 102.655 812.84 102.025C813.398 101.395 814.086 100.905 814.905 100.554C815.724 100.194 816.669 100.014 817.74 100.014C818.739 100.014 819.617 100.176 820.373 100.5C821.138 100.824 821.817 101.283 822.411 101.877L821.642 102.93ZM827.783 94.02V105.603H828.404C828.602 105.603 828.764 105.576 828.89 105.522C829.016 105.468 829.147 105.355 829.282 105.184L833.143 100.77C833.278 100.59 833.426 100.455 833.588 100.365C833.75 100.275 833.957 100.23 834.209 100.23H836.842L832.198 105.468C831.928 105.819 831.631 106.098 831.307 106.305C831.487 106.431 831.644 106.575 831.779 106.737C831.914 106.89 832.045 107.065 832.171 107.263L837.125 114H834.533C834.299 114 834.097 113.964 833.926 113.892C833.764 113.811 833.62 113.667 833.494 113.46L829.511 108.06C829.376 107.853 829.241 107.722 829.106 107.668C828.971 107.605 828.769 107.574 828.499 107.574H827.783V114H824.881V94.02H827.783ZM848.613 101.863C849.18 101.305 849.801 100.86 850.476 100.527C851.151 100.185 851.939 100.014 852.839 100.014C853.595 100.014 854.256 100.14 854.823 100.392C855.399 100.644 855.881 100.999 856.268 101.458C856.664 101.917 856.961 102.471 857.159 103.119C857.357 103.758 857.456 104.464 857.456 105.238V114H854.567V105.238C854.567 104.311 854.351 103.591 853.919 103.078C853.496 102.565 852.848 102.309 851.975 102.309C851.327 102.309 850.724 102.457 850.166 102.754C849.617 103.051 849.099 103.456 848.613 103.969V114H845.711V94.02H848.613V101.863ZM869.877 105.562C869.877 105.076 869.805 104.626 869.661 104.212C869.526 103.789 869.324 103.425 869.054 103.119C868.784 102.804 868.446 102.561 868.041 102.39C867.645 102.21 867.186 102.12 866.664 102.12C865.611 102.12 864.783 102.421 864.18 103.024C863.577 103.627 863.195 104.473 863.033 105.562H869.877ZM862.952 107.344C862.988 108.127 863.109 108.807 863.316 109.383C863.523 109.95 863.798 110.422 864.14 110.8C864.491 111.178 864.905 111.462 865.382 111.651C865.868 111.831 866.408 111.921 867.002 111.921C867.569 111.921 868.059 111.858 868.473 111.732C868.887 111.597 869.247 111.453 869.553 111.3C869.859 111.138 870.12 110.994 870.336 110.868C870.552 110.733 870.75 110.665 870.93 110.665C871.164 110.665 871.344 110.755 871.47 110.935L872.294 112.002C871.952 112.407 871.565 112.749 871.133 113.028C870.701 113.307 870.242 113.536 869.756 113.716C869.27 113.887 868.77 114.009 868.257 114.081C867.744 114.162 867.245 114.203 866.759 114.203C865.805 114.203 864.918 114.045 864.099 113.73C863.289 113.406 862.583 112.933 861.98 112.312C861.386 111.691 860.918 110.922 860.576 110.004C860.243 109.086 860.076 108.028 860.076 106.831C860.076 105.877 860.225 104.986 860.522 104.158C860.828 103.33 861.26 102.61 861.818 101.998C862.385 101.386 863.069 100.905 863.87 100.554C864.68 100.194 865.593 100.014 866.61 100.014C867.456 100.014 868.239 100.153 868.959 100.433C869.679 100.702 870.3 101.103 870.822 101.634C871.344 102.165 871.749 102.817 872.037 103.591C872.334 104.356 872.483 105.229 872.483 106.21C872.483 106.66 872.433 106.962 872.334 107.115C872.235 107.268 872.055 107.344 871.794 107.344H862.952ZM877.93 102.781C878.362 101.908 878.884 101.224 879.496 100.729C880.108 100.225 880.841 99.9735 881.696 99.9735C881.993 99.9735 882.272 100.009 882.533 100.081C882.794 100.144 883.028 100.243 883.235 100.378L883.033 102.565C882.997 102.718 882.938 102.826 882.857 102.889C882.785 102.943 882.686 102.97 882.56 102.97C882.425 102.97 882.232 102.948 881.98 102.903C881.728 102.849 881.462 102.822 881.183 102.822C880.778 102.822 880.418 102.88 880.103 102.997C879.797 103.114 879.518 103.285 879.266 103.51C879.023 103.735 878.807 104.01 878.618 104.334C878.429 104.658 878.254 105.027 878.092 105.441V114H875.189V100.23H876.877C877.183 100.23 877.394 100.288 877.511 100.405C877.628 100.513 877.709 100.707 877.754 100.986L877.93 102.781ZM893.713 105.562C893.713 105.076 893.641 104.626 893.497 104.212C893.362 103.789 893.16 103.425 892.89 103.119C892.62 102.804 892.282 102.561 891.877 102.39C891.481 102.21 891.022 102.12 890.5 102.12C889.447 102.12 888.619 102.421 888.016 103.024C887.413 103.627 887.031 104.473 886.869 105.562H893.713ZM886.788 107.344C886.824 108.127 886.945 108.807 887.152 109.383C887.359 109.95 887.634 110.422 887.976 110.8C888.327 111.178 888.741 111.462 889.218 111.651C889.704 111.831 890.244 111.921 890.838 111.921C891.405 111.921 891.895 111.858 892.309 111.732C892.723 111.597 893.083 111.453 893.389 111.3C893.695 111.138 893.956 110.994 894.172 110.868C894.388 110.733 894.586 110.665 894.766 110.665C895 110.665 895.18 110.755 895.306 110.935L896.13 112.002C895.788 112.407 895.401 112.749 894.969 113.028C894.537 113.307 894.078 113.536 893.592 113.716C893.106 113.887 892.606 114.009 892.093 114.081C891.58 114.162 891.081 114.203 890.595 114.203C889.641 114.203 888.754 114.045 887.935 113.73C887.125 113.406 886.419 112.933 885.816 112.312C885.222 111.691 884.754 110.922 884.412 110.004C884.079 109.086 883.912 108.028 883.912 106.831C883.912 105.877 884.061 104.986 884.358 104.158C884.664 103.33 885.096 102.61 885.654 101.998C886.221 101.386 886.905 100.905 887.706 100.554C888.516 100.194 889.429 100.014 890.446 100.014C891.292 100.014 892.075 100.153 892.795 100.433C893.515 100.702 894.136 101.103 894.658 101.634C895.18 102.165 895.585 102.817 895.873 103.591C896.17 104.356 896.319 105.229 896.319 106.21C896.319 106.66 896.269 106.962 896.17 107.115C896.071 107.268 895.891 107.344 895.63 107.344H886.788Z" fill="#0381EF"/>
<defs>
<filter id="filter0_d_19_552" x="0" y="59" width="998" height="98" filterUnits="userSpaceOnUse" color-interpolation-filters="sRGB">
<feFlood flood-opacity="0" result="BackgroundImageFix"/>
<feColorMatrix in="SourceAlpha" type="matrix" values="0 0 0 0 0 0 0 0 0 0 0 0 0 0 0 0 0 0 127 0" result="hardAlpha"/>
<feOffset dy="4"/>
<feGaussianBlur stdDeviation="2"/>
<feComposite in2="hardAlpha" operator="out"/>
<feColorMatrix type="matrix" values="0 0 0 0 0 0 0 0 0 0 0 0 0 0 0 0 0 0 0.25 0"/>
<feBlend mode="normal" in2="BackgroundImageFix" result="effect1_dropShadow_19_552"/>
<feBlend mode="normal" in="SourceGraphic" in2="effect1_dropShadow_19_552" result="shape"/>
</filter>
<linearGradient id="paint0_linear_19_552" x1="499" y1="59" x2="499" y2="149" gradientUnits="userSpaceOnUse">
<stop stop-color="#0381EF"/>
<stop offset="1" stop-color="#003B6F"/>
</linearGradient>
<linearGradient id="paint1_linear_19_552" x1="838.5" y1="78" x2="838.5" y2="129" gradientUnits="userSpaceOnUse">
<stop stop-color="white"/>
<stop offset="1" stop-color="#D9D9D9"/>
</linearGradient>
</defs>
</svg>
