<svg width="1060" height="742" viewBox="0 0 1060 742" fill="none" xmlns="http://www.w3.org/2000/svg">
<path d="M947.956 726.609H93.8496C93.8496 726.609 28.9106 670.119 69.1536 568.483C102.852 483.376 163.993 463.376 209.137 468.012C388.633 486.445 483.083 416.373 525.081 297.936C562.04 193.708 706.654 155.447 819.216 180.336C1118.87 246.596 947.956 726.609 947.956 726.609Z" fill="#C1FFE7"/>
<path d="M963.858 729.753H72.4503C70.0783 729.753 68.1543 727.83 68.1543 725.457C68.1543 723.085 70.0773 721.161 72.4503 721.161H963.859C966.231 721.161 968.155 723.084 968.155 725.457C968.154 727.83 966.231 729.753 963.858 729.753Z" fill="#FFDE38"/>
<path d="M964 111.5C936.964 115.402 933.845 118.566 930 146C926.154 118.566 923.036 115.402 896 111.5C923.036 107.598 926.154 104.434 930 77C933.845 104.434 936.962 107.598 964 111.5Z" fill="#00C276"/>
<path d="M94 476C84.4579 477.358 83.3577 478.458 82 488C80.6429 478.458 79.5421 477.358 70 476C79.5421 474.643 80.6423 473.542 82 464C83.3577 473.543 84.4579 474.643 94 476Z" fill="#00C276"/>
<path d="M369.965 398.262L380.174 545.656L492.7 552.674L489.585 402.284L369.965 398.262Z" fill="#A1ADC6"/>
<path d="M482.303 394.483C473.204 391.743 452.445 473.816 455.681 486.988C457.9 496.025 534.469 492.746 534.469 492.746L535.274 476.997C535.274 476.997 486.694 471.491 486.942 467.515C487.19 463.537 501.299 437.29 501.299 437.29C501.299 437.29 491.496 397.253 482.303 394.483Z" fill="#FED44E"/>
<path d="M446.301 346.078L425.67 349.291C425.67 349.291 431.471 367.628 422.576 383.278C422.576 383.278 437.405 399.342 447.748 395.095C458.803 390.556 454.681 379.393 454.681 379.393C454.681 379.393 443.425 370.472 446.301 346.078Z" fill="#F38B00"/>
<path d="M422.326 314.435C422.326 314.435 454.473 310.752 456.7 316.158C458.928 321.563 459.409 336.784 461.492 339.997C463.575 343.21 467.341 347.057 465.934 349.129C464.529 351.202 462.978 350.696 462.088 353.025C461.2 355.352 461.539 368.511 457.293 370.472C453.048 372.434 431.39 371.277 423.549 358.94C415.703 346.603 406.795 315.573 422.326 314.435Z" fill="#FFAE02"/>
<path d="M414.261 317.454L435.58 327.324C435.58 327.324 434.914 339.733 441.044 350.621C441.044 350.621 439.125 353.558 437.116 351.892C435.107 350.226 433.81 349.332 433.34 346.238C432.869 343.143 431.01 334.833 425.424 338.932C419.837 343.031 425.737 347.897 428.584 349.105C428.584 349.105 433.102 365.291 424.51 364.14C424.51 364.14 416.584 359.115 409.753 339.674C402.924 320.233 408.948 313.809 414.261 317.454Z" fill="#002164"/>
<path d="M466.008 310.382C466.008 310.382 473.63 321.346 455.916 328.679C438.2 336.014 412.719 316.698 412.719 316.698C412.719 316.698 413.369 307.08 427.504 302.964C438.064 299.889 447.962 300.324 453.352 306.438C462.507 316.834 466.008 310.382 466.008 310.382Z" fill="#002164"/>
<path d="M396.047 560.57H389.898V722.512H396.047V560.57Z" fill="#383838"/>
<path d="M509.859 560.57H503.711V722.512H509.859V560.57Z" fill="#383838"/>
<path d="M526.35 545.656H373.404V566.846H526.35V545.656Z" fill="#FFAE02"/>
<path d="M424.797 377.873C424.797 377.873 396.022 385.882 394.837 386.599C394.837 386.599 398.018 428.225 397.544 439.437C397.069 450.648 392.555 498.633 392.555 498.633H481.974C481.974 498.633 480.901 449.809 481.376 439.074C481.376 439.074 478.508 402.831 482.3 394.483C482.3 394.483 463.514 382.712 454.68 379.391C454.68 379.391 454.814 391.189 448.534 394.411C442.254 397.63 424.797 377.873 424.797 377.873Z" fill="#FED44E"/>
<path d="M481.376 439.073C481.376 439.073 481.158 434.088 481.058 427.355C479.367 433.211 477.411 439.063 474.622 444.819C468.787 456.87 454.352 473.543 438.997 471.767C423.587 469.984 411.296 456.293 407.45 441.358C404.555 430.115 405.977 417.843 402.194 406.873C400.555 402.126 398.146 398.173 395.412 394.481C396.304 407.111 397.887 431.291 397.544 439.436C397.069 450.647 392.555 498.632 392.555 498.632H481.974C481.974 498.632 480.903 449.808 481.376 439.073Z" fill="#FFC104"/>
<path d="M480.268 490.071L459.958 455.635C459.958 455.635 455.116 452.786 455.086 458.693L478.531 491.423C478.531 491.423 483.935 498.095 480.268 490.071Z" fill="black"/>
<path d="M472.286 481.274C470.717 479.069 468.842 475.405 465.523 473.701C462.206 471.997 447.285 478.08 446.243 478.338C445.698 478.474 436.269 481.312 434.325 480.665C433.868 484.103 433.225 487.507 432.344 490.906C435.813 492.212 447.018 490.035 448.421 489.825C451.126 489.423 453.805 490.34 456.147 492C458.489 493.657 460.718 495.045 462.382 494.713C463.933 494.403 462.278 492.347 461.335 491.241C461.36 491.271 461.392 491.298 461.415 491.328C465.569 496.364 467.718 495.607 468.539 494.552C469.581 493.21 464.037 488.513 463.503 487.869C462.967 487.225 458.3 483.603 458.3 483.603C459.934 483.887 463.755 487.242 464.279 487.78C464.802 488.318 470.389 496.8 472.298 494.215C474.208 491.627 469.541 487.282 467.678 484.584C465.815 481.886 461.464 479.546 461.464 479.546C463.745 479.243 467.636 483.535 468.937 485.04C470.238 486.545 473.629 493.659 476.325 491.866C479.023 490.075 473.856 483.476 472.286 481.274ZM460.926 490.8C459.805 489.69 456.467 487.481 456.467 487.481C456.467 487.481 459.211 489.043 460.926 490.8Z" fill="#FFAE02"/>
<path d="M471.537 475.244C471.537 475.244 477.06 477.366 478.022 479.833C478.985 482.3 477.469 483.773 476.159 483.194L471.537 475.244Z" fill="#FFAE02"/>
<path d="M394.839 386.6C394.839 386.6 385.393 393.218 380.933 401.609C376.474 410 352.163 473.816 355.399 486.988C357.618 496.025 434.187 492.747 434.187 492.747L434.993 476.998C434.993 476.998 386.412 471.492 386.66 467.516C386.908 463.537 401.017 437.291 401.017 437.291C401.017 437.291 408.71 405 394.839 386.6Z" fill="#FED44E"/>
<path d="M518.515 696.59C518.515 696.59 544.153 703.495 554.758 706.892C563.573 709.715 562.445 717.631 552.997 721.304C543.549 724.975 535.406 723.746 532.948 720.857C530.489 717.968 525.163 719.558 523.19 720.713C521.219 721.87 502.852 719.369 501.632 715.7C500.411 712.032 502.187 697.382 502.187 697.382L518.515 696.59Z" fill="black"/>
<path d="M477.075 698.322C477.075 698.322 502.054 707.32 512.344 711.583C520.894 715.124 519.118 722.919 509.398 725.799C499.679 728.677 491.665 726.779 489.455 723.697C487.244 720.615 481.804 721.758 479.744 722.747C477.684 723.737 459.586 719.729 458.675 715.97C457.761 712.212 462.528 694.534 462.528 694.534L477.075 698.322Z" fill="black"/>
<path d="M532.986 548.779C530.161 538.288 477.935 506.568 473.675 497.018H431.497C427.229 503.255 421.875 513.856 420.332 529.287C417.653 556.083 442.418 546.897 466.967 547.792C491.516 548.684 501.42 563.787 502.06 570.486C502.7 577.185 498.317 698.779 498.317 698.779L531.651 698.592C531.651 698.592 534.667 555.025 532.986 548.779Z" fill="#303030"/>
<path d="M509.248 698.694C509.248 698.694 520.316 553.459 517.838 549.699C510.221 538.142 473.227 510.959 460.522 498.344L431.503 497.018C427.235 503.255 421.881 513.856 420.338 529.287C417.659 556.083 442.424 546.899 466.973 547.792C491.522 548.684 501.426 563.787 502.066 570.486C502.706 577.185 498.323 698.779 498.323 698.779L509.248 698.694Z" fill="#464646"/>
<path d="M511.694 552.176C509.721 542.959 455.242 510.723 443.823 498.396L399.134 495.323C393.674 501.436 388.215 510.988 388.306 521.186C388.533 546.918 407.925 553.121 432.48 553.856C460.791 554.704 475.332 558.349 475.292 565.079C475.251 571.808 457.843 698.216 457.843 698.216L490.865 699.916C490.865 699.916 513.048 558.502 511.694 552.176Z" fill="#303030"/>
<path d="M748.002 350.318C748.002 350.318 755.589 337.599 758.325 330.735C761.064 323.87 772.059 300.076 775.569 302.57C779.081 305.065 769.232 325.025 769.232 325.025C769.232 325.025 777.919 300.042 782.616 301.426C787.312 302.81 774.588 326.082 774.588 326.082C774.588 326.082 785.055 304.149 787.798 306.264C790.538 308.379 788.38 313.267 779.375 329.497C779.375 329.497 787.058 315.564 789.961 318.83C792.863 322.096 783.502 334.884 780.1 337.902C776.698 340.92 760.636 353.681 756.793 359.069C756.793 359.069 748.178 356.065 748.002 350.318Z" fill="#FFAE02"/>
<path d="M763.471 333.925C763.471 333.925 774.994 327.378 778.207 329.911C781.42 332.441 778.176 335.092 766.233 338.95C766.233 338.95 762.013 344.305 759.324 344.725C759.324 344.725 756.003 337.381 763.471 333.925Z" fill="#FFAE02"/>
<path d="M524.388 339.344C524.388 339.344 519.922 330.472 519.922 327.885C519.922 325.297 521.226 322.506 521.319 318.97C521.412 315.435 526.157 307.248 525.134 304.923C524.11 302.598 521.226 303.156 518.436 308.738C515.645 314.321 516.576 317.762 514.344 316.181C512.112 314.6 506.623 307.714 504.855 304.832C503.088 301.948 497.505 296.274 496.018 297.204C494.53 298.135 494.11 299.623 503.999 313.57C503.999 313.57 492.8 296.781 489.505 299.809C487.203 301.926 498.139 314.215 499.72 316.169C499.72 316.169 489.594 303.461 486.576 306.46C483.74 309.276 497.671 319.856 497.671 319.856C497.671 319.856 487.275 311.623 485.878 314.043C484.484 316.461 490.531 321.81 496.484 325.159C502.437 328.508 503.967 329.391 505.483 331.625C506.996 333.859 510.718 342.788 510.718 342.788C510.718 342.788 520.202 345.113 524.388 339.344Z" fill="#FFAE02"/>
<path d="M649.661 281.875L628.49 285.105C628.49 285.105 627.28 324.642 610.535 327.806C610.535 327.806 604.581 392.556 626.723 387.16C648.864 381.764 660.773 325.572 660.773 325.572C660.773 325.572 641.249 320.174 649.661 281.875Z" fill="#F38B00"/>
<path d="M651.315 252.414C651.315 252.414 628.47 243.008 619.399 248.719C610.328 254.431 611.072 274.127 609.72 283.153C607.607 297.262 613.687 311.036 617.384 312.382C621.08 313.725 649.634 305.998 654.17 285.338C658.705 264.674 656.69 255.94 651.315 252.414Z" fill="#FFAE02"/>
<path d="M616.626 683.494C616.626 683.494 619.711 702.501 617.418 706.909C615 711.561 566.886 709.319 564.008 706.184C561.132 703.05 565.926 697.599 568.443 696.338C570.961 695.077 597.108 683.617 597.108 683.617L616.626 683.494Z" fill="black"/>
<path d="M678.862 683.494H662.071C662.071 683.494 660.954 697.607 662.071 700.769C663.188 703.933 679.049 723.523 687.234 723.523C691.7 723.523 697.21 723.544 698.073 719.568C698.791 716.256 695.523 709.274 692.816 705.527C686.863 697.287 678.862 683.494 678.862 683.494Z" fill="black"/>
<path d="M647.198 288.319C647.198 288.319 639.009 292.854 633.719 293.231C628.429 293.609 625.169 287.333 617.719 288.948C610.27 290.563 609.32 290.828 609.32 290.828C609.32 290.828 605.374 317.545 615.452 316.791C625.529 316.034 642.662 305.452 648.711 298.271C648.711 298.271 655.01 298.271 659.041 292.098C663.072 285.924 668.489 266.775 664.963 255.186C661.436 243.596 645.814 239.06 639.263 244.477C639.263 244.477 634.265 240.321 624.775 240.823C615.284 241.328 613.317 246.366 609.284 249.39C605.253 252.414 601.305 252.414 599.961 249.81C599.961 249.81 597.106 254.597 602.229 262.827C607.351 271.056 613.267 269.797 621.246 267.949C629.226 266.101 639.136 258.207 639.136 258.207C639.136 258.207 638.716 274.668 642.83 280.714C642.83 280.714 644.341 281.386 644.93 280.714C645.517 280.043 645.098 271.476 649.718 273.407C654.338 275.342 651.314 285.085 647.198 288.319Z" fill="#002164"/>
<path d="M615.959 296.254C615.959 296.254 622.006 298.354 628.557 296.841C628.557 296.841 624.841 301.732 620.747 301.042C616.148 300.264 615.959 296.254 615.959 296.254Z" fill="white"/>
<path d="M654.411 319.623L634.821 330.22L619.591 321.079C619.591 321.079 611.834 344.369 614.068 370.791C616.3 397.212 620.581 416.191 638.443 391.629C656.303 367.068 662.937 328.181 654.411 319.623Z" fill="white"/>
<path d="M654.411 319.623L634.821 330.22L619.591 321.079C619.591 321.079 611.834 344.369 614.068 370.791C616.3 397.212 620.581 416.191 638.443 391.629C656.303 367.068 662.937 328.181 654.411 319.623Z" fill="#8494B4"/>
<path d="M631.139 342.321C631.139 342.321 620.62 399.28 621.51 400.374C622.087 399.644 628.491 415.82 632.192 400.374C635.07 388.355 635.422 343.633 635.882 343.091C635.882 343.091 641.375 337.178 644.586 334.264C646.691 332.352 648.727 330.396 650.694 328.37C651.207 327.439 651.705 326.5 652.137 325.498C651.851 326.176 651.565 326.854 651.279 327.535C652.487 325.182 653.884 322.972 655.42 320.897C655.111 320.422 654.776 319.992 654.409 319.625L634.82 330.222L619.59 321.081C619.59 321.081 619.139 322.448 618.492 324.847C620.094 327.077 621.54 329.334 622.79 331.496C624.393 334.261 631.139 342.321 631.139 342.321Z" fill="#1D3B66"/>
<path d="M590.967 425.636L651.075 424.502C651.075 424.502 660.218 439.488 662.263 482.738C663.664 512.35 664.874 520.55 667.818 559.691C669.817 586.264 679.244 688.107 679.244 688.107H647.298C647.298 688.107 633.775 571.89 633.086 565.56C632.842 563.322 624.93 501.874 624.93 501.874C624.93 501.874 626.225 557.534 626.225 564.006C626.225 570.479 627.622 684.824 627.622 684.824H593.975C593.975 684.824 590.194 587.601 589.874 565.348C589.354 529.322 586.275 437.269 590.967 425.636Z" fill="#002152"/>
<path d="M619.592 321.077C619.592 321.077 598.439 325.172 590.251 327.885C590.251 327.885 592.856 376.743 584.669 389.022L580.947 495.449C580.947 495.449 627.277 494.892 628.765 437.213C630.255 379.534 630.159 376.929 630.159 376.929L619.592 321.077Z" fill="#1D3B66"/>
<path d="M626.145 383.584C626.126 384.565 625.316 385.347 624.333 385.33C623.349 385.311 622.569 384.502 622.586 383.518C622.605 382.535 623.415 381.755 624.398 381.772C625.382 381.791 626.164 382.6 626.145 383.584Z" fill="#002152"/>
<path d="M625.01 401.057C624.991 402.041 624.181 402.821 623.198 402.804C622.214 402.785 621.434 401.975 621.451 400.992C621.468 400.008 622.28 399.228 623.263 399.245C624.247 399.262 625.027 400.074 625.01 401.057Z" fill="#002152"/>
<path d="M623.871 418.527C623.852 419.511 623.042 420.29 622.059 420.274C621.076 420.254 620.296 419.443 620.313 418.461C620.332 417.478 621.141 416.698 622.125 416.715C623.108 416.734 623.888 417.546 623.871 418.527Z" fill="#002152"/>
<path d="M622.736 436C622.717 436.981 621.908 437.763 620.924 437.746C619.943 437.727 619.161 436.918 619.178 435.934C619.197 434.951 620.009 434.171 620.99 434.188C621.973 434.207 622.756 435.019 622.736 436Z" fill="#002152"/>
<path d="M683.283 333.128L654.411 319.623L630.163 376.929L627.333 444.046C627.333 444.046 625.604 502.721 675.84 495.451L671.754 387.484C671.754 387.484 671.376 347.934 683.283 333.128Z" fill="#1D3B66"/>
<path d="M764.035 357.022L746.545 344.369C746.545 344.369 714.17 395.474 712.311 393.925C710.45 392.373 695.006 338.611 683.286 333.128C683.286 333.128 677.362 337.365 673.982 349.765C671.591 358.539 671.242 372.682 671.757 386.625C671.757 386.625 702.263 431.819 713.055 430.329C723.845 428.841 764.035 357.022 764.035 357.022Z" fill="#1D3B66"/>
<path d="M525.276 333.126L505.473 341.019C505.473 341.019 532.573 438.96 548.204 430.363C563.834 421.769 584.593 391.252 584.593 391.252C584.593 391.252 590.365 381.683 592.63 366.881C594.633 353.798 593.395 335.864 590.252 327.885C590.252 327.885 576.483 336.267 564.947 359.294C553.411 382.323 549.882 388.917 548.856 387.48C547.831 386.045 525.276 333.126 525.276 333.126Z" fill="#1D3B66"/>
<path d="M634.823 328.737L621.202 318.352L618.852 323.544L623.186 340.06L634.823 331.341L645.304 341.143L655.305 319.621L651.967 314.306L634.823 328.737Z" fill="white"/>
<path d="M591.646 487.818H489.699V494.026H591.646V487.818Z" fill="#919191"/>
<path d="M592.96 490.921H488.389C485.03 490.921 482.307 488.197 482.307 484.838V412.752C482.307 409.392 485.03 406.669 488.389 406.669H592.96C596.319 406.669 599.042 409.392 599.042 412.752V484.838C599.042 488.197 596.319 490.921 592.96 490.921Z" fill="#8494B4"/>
<path d="M485.596 484.838V412.752C485.596 409.392 488.32 406.669 491.679 406.669H486.292C482.932 406.669 480.209 409.392 480.209 412.752V484.838C480.209 488.197 482.932 490.921 486.292 490.921H491.679C488.32 490.921 485.596 488.197 485.596 484.838Z" fill="#919191"/>
<path d="M546.528 448.794C546.528 452.029 543.906 454.65 540.672 454.65C537.438 454.65 534.816 452.029 534.816 448.794C534.816 445.56 537.438 442.938 540.672 442.938C543.906 442.938 546.528 445.56 546.528 448.794Z" fill="#E0E0E0"/>
<path d="M732.837 483.047H656.043V494.025H732.837V483.047Z" fill="#002164"/>
<path d="M635.275 411.769L660.155 488.932L664.042 487.505L639.162 410.343L635.275 411.769Z" fill="#002164"/>
<path d="M772.901 681.823C772.901 681.823 752.455 691.894 741.498 696.43C732.391 700.198 734.279 708.5 744.63 711.571C754.979 714.639 763.514 712.622 765.869 709.339C768.225 706.058 774.018 707.277 776.211 708.332C778.405 709.385 795.678 705.405 796.651 701.404C797.623 697.402 793.34 679.773 793.34 679.773L772.901 681.823Z" fill="black"/>
<path d="M879.483 491.972L844.738 492.427C844.738 492.427 759.731 524.138 748.626 532.467C737.522 540.794 766.876 685.94 766.876 685.94L795.719 682.92C795.719 682.92 788.915 553.052 794.468 547.499C800.021 541.947 890.008 533.734 895.677 532.032C901.228 530.366 893.312 510.425 879.483 491.972Z" fill="#9070CF"/>
<path d="M879.483 491.972L844.738 492.427C844.738 492.427 759.731 524.138 748.626 532.467C737.522 540.794 766.876 685.94 766.876 685.94L795.719 682.92C795.719 682.92 788.915 553.052 794.468 547.499C800.021 541.947 890.008 533.734 895.677 532.032C901.228 530.366 893.312 510.425 879.483 491.972Z" fill="#404040"/>
<path d="M950 414.52L914.71 555.603L900.104 551.95L930.453 409.631L950 414.52Z" fill="#A1ADC6"/>
<path d="M794.804 559.711H788.959V713.697H794.804V559.711Z" fill="#383838"/>
<path d="M903.027 559.711H897.182V713.697H903.027V559.711Z" fill="#383838"/>
<path d="M918.705 545.529H773.275V565.678H918.705V545.529Z" fill="#FFAE02"/>
<path d="M870.23 344.008L850.289 348.264C850.289 348.264 856.026 372.785 850.289 386.294C850.289 386.294 861.162 390.564 879.484 376.684C879.484 376.684 868.194 367.141 870.23 344.008Z" fill="#F38B00"/>
<path d="M873.501 315.534C873.501 315.534 851.317 307.175 845.368 310.229C839.419 313.283 832.185 317.784 833.311 322.286C834.436 326.788 835.28 340.087 833.834 344.266C832.387 348.446 829.896 351.341 830.498 352.786C831.1 354.234 834.597 353.093 835.562 354.869C836.526 356.645 841.71 368.34 844.726 370.027C847.74 371.716 864.943 365.651 872.899 346.962C880.857 328.273 878.445 318.708 873.501 315.534Z" fill="#FFAE02"/>
<path d="M748.018 684.06C748.018 684.06 721.32 693.374 710.319 697.802C701.176 701.481 702.984 709.802 713.303 712.972C723.622 716.143 732.174 714.208 734.562 710.948C736.951 707.689 742.73 708.967 744.913 710.041C747.096 711.118 764.408 707.303 765.421 703.312C766.434 699.319 763.977 687.629 763.977 687.629L748.018 684.06Z" fill="black"/>
<path d="M860.361 308.864C860.361 308.864 867.957 300.424 876.517 305.367C885.077 310.309 881.724 318.183 883.511 321.644C887.65 329.666 887.008 336.435 882.837 343.789C878.191 351.981 880.985 357.292 873.289 358.137C865.594 358.981 863.254 356.732 863.254 356.732C863.254 356.732 866.268 350.944 866.268 344.675C866.268 344.675 872.859 341.019 871.975 335.312C871.091 329.604 864.097 328.881 862.249 334.75C860.401 340.619 863.697 344.637 859.356 347.449C859.356 347.449 856.783 348.172 856.783 341.661C856.783 335.151 857.989 329.67 857.989 329.67C857.989 329.67 842.412 337.935 830.408 329.67C818.404 321.406 826.699 308.395 835.418 305.426C849.389 300.664 860.361 308.864 860.361 308.864Z" fill="#002164"/>
<path d="M889.095 486.83L850.291 494.559C850.291 494.559 762.124 526.403 751.019 534.732C739.915 543.059 737.93 685.942 737.93 685.942L766.872 688.737C766.872 688.737 779.262 552.917 786.038 548.949C791.881 545.529 886.734 545.528 892.653 545.528C901.201 545.528 908.561 506.473 889.095 486.83Z" fill="#303030"/>
<path d="M728.027 476.791C728.027 476.791 722.178 477.505 720.934 477.488C719.692 477.474 703.637 467.748 701.882 469.034C700.128 470.319 683.592 482.132 684.063 484.487C684.533 486.843 689.139 485.483 697.932 477.866C697.932 477.866 686.237 486.341 688.452 488.456C690.667 490.571 700.88 481.04 700.88 481.04C700.88 481.04 690.351 489.088 692.816 490.947C695.283 492.803 704.585 483.168 704.585 483.168C704.585 483.168 697.296 490.391 698.277 491.623C699.259 492.852 703.839 490.819 708.864 486.004C708.864 486.004 709.781 485.493 712.416 487.004C715.05 488.516 731.323 485.841 731.323 485.841L728.027 476.791Z" fill="#FFAE02"/>
<path d="M723.875 472.008L728.826 490.608C728.826 490.608 809.123 472.476 817.242 466.457C825.36 460.438 873.989 407.789 866.853 393.122C859.717 378.458 850.468 382.068 844.652 390.395C838.839 398.722 811.088 434.255 807.124 438.42C803.161 442.582 723.875 472.008 723.875 472.008Z" fill="#4CA832"/>
<path d="M737.092 485.462C737.092 485.462 730.946 486.174 729.642 486.159C728.337 486.144 711.475 476.42 709.633 477.705C707.791 478.989 690.421 490.803 690.915 493.157C691.411 495.514 696.247 494.153 705.483 486.534C705.483 486.534 693.199 495.012 695.526 497.127C697.851 499.242 708.58 489.711 708.58 489.711C708.58 489.711 697.521 497.758 700.111 499.617C702.701 501.476 712.473 491.837 712.473 491.837C712.473 491.837 704.818 499.062 705.848 500.291C706.878 501.522 711.689 499.488 716.966 494.675C716.966 494.675 717.928 494.164 720.698 495.675C723.468 497.186 740.557 494.511 740.557 494.511L737.092 485.462Z" fill="#FFAE02"/>
<path d="M878.001 375.283C878.001 375.283 860.02 384.39 849.856 383.816C849.856 383.816 833.399 418.404 832.288 427.657C831.178 436.911 834.17 497.277 834.17 497.277C834.17 497.277 873.989 505.926 897.463 494.081C897.463 494.081 891.139 454.675 893.731 435.058C896.321 415.441 894.267 389.824 878.001 375.283Z" fill="#6ABE52"/>
<path opacity="0.32" d="M870.312 439.576C874.291 430.405 889.857 415.625 882.022 405.327C875.719 397.044 871.205 396.476 864.278 404.369C857.791 411.763 851.861 419.73 844.49 426.264C840.622 429.691 836.281 432.451 832.047 435.367C832.049 454.382 834.175 497.278 834.175 497.278C834.175 497.278 847.095 500.08 862.551 500.307C854.275 482.248 861.962 458.828 870.312 439.576Z" fill="#006B98"/>
<path d="M732.725 480.679L737.926 499.279C737.926 499.279 822.269 481.145 830.795 475.128C839.321 469.109 890.4 416.459 882.904 401.793C875.41 387.129 865.693 390.739 859.587 399.066C853.481 407.393 824.333 442.926 820.168 447.089C816.004 451.253 732.725 480.679 732.725 480.679Z" fill="#6ABE52"/>
<path d="M331.971 384.194C331.971 384.194 337.53 372.932 339.384 366.945C341.239 360.958 348.934 340.105 352.071 341.978C355.208 343.852 348.222 361.386 348.222 361.386C348.222 361.386 353.889 339.683 357.95 340.537C362.013 341.393 352.819 361.92 352.819 361.92C352.819 361.92 360.197 342.676 362.655 344.278C365.114 345.882 363.617 350.157 357.096 364.484C357.096 364.484 362.655 352.19 365.328 354.754C368 357.321 360.945 368.759 358.272 371.54C355.6 374.32 342.877 386.187 339.99 390.998C339.99 390.998 332.507 389.041 331.971 384.194Z" fill="#FFAE02"/>
<path d="M343.945 369.296C343.945 369.296 353.247 362.989 356.134 364.913C359.02 366.837 356.454 369.296 346.618 373.359C346.618 373.359 343.411 378.17 341.165 378.704C341.165 378.704 337.865 372.719 343.945 369.296Z" fill="#FFAE02"/>
<path d="M331.036 378.452C331.036 378.452 298.028 433.959 296.318 433.571C294.606 433.183 246.71 418.706 230.274 406.443C225.615 402.967 225.624 440.936 230.274 443.261C234.924 445.586 304.683 457.988 307.784 456.049C310.885 454.112 346.297 387.502 346.297 387.502L331.036 378.452Z" fill="#FFAE02"/>
<path d="M312.611 446.186C288.801 461.484 233.04 417.354 226.619 415.87C225.663 426.264 227.212 441.729 230.273 443.261C234.922 445.586 304.682 457.989 307.783 456.049C308.569 455.558 311.447 450.878 315.285 444.208C314.461 444.897 313.586 445.561 312.611 446.186Z" fill="#FED44E"/>
<path d="M230.816 382.314C228.711 381.875 218.627 360.603 214.31 356.464C212.242 370.994 203.459 405.451 203.459 405.451C214.117 416.883 235.373 409.879 235.373 409.879C231.884 402.321 230.21 387.25 230.816 382.314Z" fill="#F38B00"/>
<path d="M226.591 325.42C226.591 325.42 247.272 330.075 251.238 336.106C255.203 342.138 255.188 357.834 257.378 361.98C258.704 364.493 259.891 366.517 260.555 367.99C261.137 369.283 259.671 370.042 257.869 370.678C256.947 371.004 256.237 371.748 255.936 372.681C254.714 376.478 251.295 386.164 247.876 387.51C243.61 389.191 222.541 388.544 216.206 370.188C209.874 351.832 213.341 321.485 226.591 325.42Z" fill="#FFAE02"/>
<path d="M309.343 683.671L295.453 681.378C295.453 681.378 294.747 694.577 293.59 697.602C293.59 697.602 309.169 705.056 325.141 699.157C325.141 699.157 314.96 694.77 312.291 691.657C309.623 688.544 309.343 683.671 309.343 683.671Z" fill="#FFAE02"/>
<path d="M294.811 691.395C294.811 691.395 305.37 698.742 321.755 697.556C321.755 697.556 341.692 708.225 342.977 710.897C344.776 714.636 336.042 714.871 322.414 714.424C310.789 714.042 311.641 713.169 309.31 710.889C306.979 708.608 304.067 706.071 304.067 706.071C304.067 706.071 302.999 707.508 301.797 714.15L296.6 713.4C296.6 713.4 297.204 707.017 294.701 703.617C292.942 701.22 290.92 695.652 294.811 691.395Z" fill="black"/>
<path d="M253.332 680.259L242.839 677.394C242.839 677.394 236.682 687.662 234.885 690.354C234.885 690.354 248.428 701.071 265.309 698.859C265.309 698.859 256.352 692.327 254.438 688.698C252.527 685.072 253.332 680.259 253.332 680.259Z" fill="#FFAE02"/>
<path d="M236.053 687.932C236.053 687.932 245.889 696.221 262.314 696.551C262.314 696.551 281.181 709.013 282.215 711.794C283.66 715.683 274.943 715.111 261.415 713.409C249.875 711.957 250.806 711.166 248.695 708.68C246.584 706.194 243.92 703.399 243.92 703.399C243.92 703.399 242.724 704.732 240.915 711.234L235.811 710.007C235.811 710.007 237.002 703.706 234.821 700.091C233.285 697.543 231.786 691.814 236.053 687.932Z" fill="black"/>
<path d="M204.941 488.557L232.331 507.945C232.331 507.945 321.184 525.067 332.46 533.524C343.735 541.98 260.727 691.892 260.727 691.892L234.885 683.311C234.885 683.311 296.898 550.576 291.261 544.939C285.623 539.301 194.255 530.961 188.498 529.234C182.861 527.543 190.9 507.294 204.941 488.557Z" fill="#7AE5C9"/>
<path d="M204.941 488.557L232.331 507.945C232.331 507.945 321.184 525.067 332.46 533.524C343.735 541.98 260.727 691.892 260.727 691.892L234.885 683.311C234.885 683.311 296.898 550.576 291.261 544.939C285.623 539.301 194.255 530.961 188.498 529.234C182.861 527.543 190.9 507.294 204.941 488.557Z" fill="#4CA832"/>
<path d="M196.529 497.359L232.334 500.375C232.334 500.375 324.107 523.515 335.38 531.971C346.655 540.427 318.934 690.37 318.934 690.37L290.892 683.278C290.892 683.278 306.703 550.435 299.823 546.408C293.891 542.935 197.58 542.935 191.57 542.935C182.893 542.935 176.763 517.305 196.529 497.359Z" fill="#6ABE52"/>
<path d="M206.631 398.262C206.631 398.262 221.333 404.948 235.029 409.039C235.029 409.039 251.73 442.01 252.857 451.208C253.985 460.406 261.248 510.655 261.248 510.655C261.248 510.655 209.721 525.486 185.887 513.711C185.887 513.711 193.101 478.069 190.471 458.565C187.841 439.066 190.115 412.718 206.631 398.262Z" fill="#FFAE02"/>
<path d="M213.03 454.355C213.087 470.856 223.699 478.935 234.618 489.609C241.067 495.914 247.232 503.995 250.964 513.214C256.816 511.496 261.25 510.656 261.25 510.656C261.25 510.656 257.359 483.732 254.83 465.691C243.877 460.796 238.066 450.324 234.156 439.184C231.892 432.733 230.661 428.564 226.57 423.764C214.45 424.092 213.712 438.275 213.025 451.53C213.025 452.481 213.025 453.433 213.03 454.355Z" fill="#FED44E"/>
<path d="M132 409.915L167.832 553.166L182.662 549.455L151.846 404.949L132 409.915Z" fill="#A1ADC6"/>
<path d="M295.512 557.335H289.578V713.686H295.512V557.335Z" fill="#383838"/>
<path d="M185.628 557.335H179.693V713.686H185.628V557.335Z" fill="#383838"/>
<path d="M311.435 542.936H163.771V563.394H311.435V542.936Z" fill="#FFAE02"/>
<path d="M253.73 342.849C260.415 340.23 257.418 329.866 252.84 326.676C244.787 321.062 234.325 316.895 224.409 317.097C212.301 317.343 201.227 326.712 194.199 335.79C189.1 342.375 189.447 349.35 185.768 356.435C182.419 362.884 175.18 366.112 170.839 371.917C166.759 377.372 166.732 384.481 168.33 390.906C169.576 395.921 170.975 400.478 170.148 405.634C169.122 412.043 163.989 416.759 162.245 422.941C160.668 428.53 161.37 434.824 161.946 440.521C162.682 447.789 166.24 454.274 172.496 458.426C185.206 466.861 202.401 456.639 204.361 442.452C205.249 436.026 203.369 430.397 202.746 424.238C201.954 416.405 204.66 411.924 211.243 407.669C216.8 404.076 219.432 401.737 219.002 394.785C218.71 390.057 218.173 385.241 219.064 380.543C220.081 375.174 222.344 374.142 218.129 370.204C215.179 367.447 212.697 364.478 215.041 360.315C216.948 356.933 220.011 355.937 222.656 359.116C223.347 359.947 226.831 366.949 227.723 363.009C227.973 361.905 226.5 359.773 226.363 358.548C226.153 356.668 226.488 355.451 227.768 354.097C229.853 351.889 232.931 350.704 235.082 348.476C237.776 345.689 238.123 342.01 242.019 340.474C243.947 339.715 246.255 339.656 248.243 340.209C249.163 340.463 253.097 343.1 253.73 342.849Z" fill="#002164"/>
<path d="M430.581 483.047H353.785V494.025H430.581V483.047Z" fill="#002164"/>
<path d="M451.346 411.769L426.467 488.932L422.58 487.505L447.459 410.343L451.346 411.769Z" fill="#002164"/>
<path d="M323.782 494.028H318.672V719.789H323.782V494.028Z" fill="#383838"/>
<path d="M831.256 494.028H826.146V719.789H831.256V494.028Z" fill="#383838"/>
<path d="M831.26 494.026H318.672V500.012H831.26V494.026Z" fill="#383838"/>
<path d="M344.587 479.206C344.587 479.206 351.24 478.761 352.621 478.49C354.003 478.218 369.977 464.612 372.183 465.614C374.387 466.617 395.113 475.745 395.047 478.339C394.984 480.933 389.59 480.437 378.308 474.166C378.308 474.166 392.987 480.751 390.936 483.449C388.884 486.147 375.646 478.14 375.646 478.14C375.646 478.14 388.946 484.511 386.563 486.986C384.181 489.462 371.935 481.156 371.935 481.156C371.935 481.156 381.464 487.319 380.612 488.824C379.76 490.328 374.262 489.114 367.726 485.041C367.726 485.041 366.605 484.687 363.966 486.831C361.328 488.974 342.684 489.479 342.684 489.479L344.587 479.206Z" fill="#FFAE02"/>
<path d="M348.947 475.489L348.765 493.217C348.765 493.217 286.633 496.998 269.193 491.185C251.752 485.372 214.99 438.474 211.844 430.615C208.065 421.169 222.454 398.205 236.696 419.134C250.938 440.061 276.75 468.224 278.202 469.095C279.656 469.966 348.947 475.489 348.947 475.489Z" fill="#FFAE02"/>
<path d="M434.861 225.776H510.735L551.414 258.991L533.126 225.776H551.766C554.994 225.776 557.611 223.159 557.611 219.931V144.629C557.611 141.402 554.994 138.784 551.766 138.784H434.861C431.633 138.784 429.016 141.402 429.016 144.629V219.931C429.014 223.161 431.631 225.776 434.861 225.776Z" fill="#239E00"/>
<path d="M511.735 170.64C511.735 180.381 499.481 183.248 499.481 187.046V188.551H487.227V184.967C487.227 179.736 496.546 176.727 496.546 170.926C496.546 168.275 494.823 165.909 491.817 165.909C487.945 165.909 487.157 168.919 487.157 171.928C487.157 172.573 487.157 173.219 487.227 173.863H474.046C473.972 172.929 473.83 172.07 473.83 171.14C473.83 161.827 482.142 156.022 493.392 156.022C504.353 156.022 511.735 161.755 511.735 170.64ZM500.556 206.173H486.371V192.921H500.556V206.173Z" fill="white"/>
<path d="M824.624 249.522H796.752L814.464 274.183L780.128 249.522H737.823C735.426 249.522 733.482 247.579 733.482 245.182V189.27C733.482 186.873 735.426 184.93 737.823 184.93H824.624C827.021 184.93 828.965 186.873 828.965 189.27V245.182C828.963 247.579 827.021 249.522 824.624 249.522Z" fill="#FED44E"/>
<path d="M769.435 232.181H758.891V222.283H769.435V232.181Z" fill="#002164"/>
<path d="M785.997 232.181H775.453V222.283H785.997V232.181Z" fill="#002164"/>
<path d="M802.567 232.181H792.023V222.283H802.567V232.181Z" fill="#002164"/>
<path d="M346.269 286.461H318.397L281.331 319.052L301.772 286.461H259.467C257.07 286.461 255.127 284.517 255.127 282.12V226.209C255.127 223.812 257.07 221.868 259.467 221.868H346.269C348.666 221.868 350.609 223.812 350.609 226.209V282.12C350.609 284.517 348.668 286.461 346.269 286.461Z" fill="#FED44E"/>
<path d="M291.083 269.115H280.539V259.218H291.083V269.115Z" fill="#002164"/>
<path d="M307.646 269.115H297.102V259.218H307.646V269.115Z" fill="#002164"/>
<path d="M324.214 269.115H313.67V259.218H324.214V269.115Z" fill="#002164"/>
</svg>
