<svg width="1060" height="742" viewBox="0 0 1060 742" fill="none" xmlns="http://www.w3.org/2000/svg">
<path d="M964.956 726.457H110.85C110.85 726.457 45.9106 669.967 86.1536 568.331C119.852 483.224 180.993 463.224 226.137 467.86C405.633 486.293 500.083 416.221 542.081 297.784C579.04 193.556 723.654 155.295 836.216 180.184C1135.87 246.444 964.956 726.457 964.956 726.457Z" fill="#C1FFE7"/>
<path d="M725.768 387.778L748.104 335.015V274.277C748.104 262.588 757.58 253.112 769.269 253.112H896.865C908.554 253.112 918.03 262.588 918.03 274.277V342.587C918.03 354.276 908.554 363.751 896.865 363.751H773.788L732.183 392.961C728.655 395.438 724.087 391.748 725.768 387.778Z" fill="white"/>
<path d="M873.828 321.108C880.829 321.108 886.504 315.433 886.504 308.432C886.504 301.431 880.829 295.756 873.828 295.756C866.827 295.756 861.152 301.431 861.152 308.432C861.152 315.433 866.827 321.108 873.828 321.108Z" fill="#FFDE38"/>
<path d="M833.067 321.108C840.067 321.108 845.743 315.433 845.743 308.432C845.743 301.431 840.067 295.756 833.067 295.756C826.066 295.756 820.391 301.431 820.391 308.432C820.391 315.433 826.066 321.108 833.067 321.108Z" fill="#FFDE38"/>
<path d="M792.307 321.108C799.308 321.108 804.983 315.433 804.983 308.432C804.983 301.431 799.308 295.756 792.307 295.756C785.306 295.756 779.631 301.431 779.631 308.432C779.631 315.433 785.306 321.108 792.307 321.108Z" fill="#FFDE38"/>
<path d="M205.001 237.425H411.953C424.951 237.425 435.487 247.962 435.487 260.959V401.195L462.956 465.804C464.551 469.948 459.316 473.298 456.221 470.115L411.264 423.884H205.001C192.003 423.884 181.467 413.347 181.467 400.35V260.96C181.466 247.962 192.003 237.425 205.001 237.425Z" fill="#FFDE38"/>
<path d="M270.644 263.704C280.942 261.861 283.257 268.329 281.296 246.246C279.983 231.459 286.336 225.377 291.213 227.261C298.531 230.087 300.014 233.021 299.66 229.6C297.86 212.214 332.479 208.586 339.164 220.148C341.181 223.636 349.993 232.3 341.089 252.05C340.126 254.187 345.998 257.954 347.224 259.977C350.955 266.131 350.955 273.298 345.42 279.971C337.077 290.03 336.915 288.128 311.587 289.791C296.807 290.761 274.335 291.162 267.7 290.472C260.036 289.674 264.425 264.817 270.644 263.704Z" fill="#090909"/>
<path d="M411.396 393.909C405.08 381.564 388.458 347.668 378.751 334.883C370.682 332.087 345.369 355.719 345.369 355.719L376.219 404.687C387.762 419.433 414.622 400.216 411.396 393.909Z" fill="#FF9E7C"/>
<path d="M258.632 347.557C258.632 347.557 247.337 410.893 240.402 411.339C237.532 411.523 233.379 411.11 228.811 410.194C217.966 408.019 211.46 396.087 214.991 384.967C220.979 366.107 229.293 341.119 229.293 341.119L258.632 347.557Z" fill="#FF9E7C"/>
<path d="M367.117 314.822C352.183 299.379 330.806 293.237 302.954 295.263C291.791 296.075 255.138 299.278 241.632 315.598C211.828 351.612 219.025 361.412 219.025 361.412C219.025 361.412 235.51 377.216 255.535 372.56C255.818 383.737 251.813 423.369 251.813 423.369L362.95 423.884L355.457 386.973L364.292 372.56L360.007 362.686L389.732 351.881C389.732 351.881 377.475 325.533 367.117 314.822Z" fill="#090909"/>
<path d="M285.317 251.333C286.108 267.774 307.991 280.556 320.579 279.951C333.167 279.346 335.295 265.751 334.504 249.309C333.713 232.868 328.315 226.496 315.587 224.659C303.114 222.86 284.526 234.891 285.317 251.333Z" fill="#FF9E7C"/>
<path d="M319.778 270.581L321.971 298.48C322.273 302.015 313.432 309.116 304.851 309.117C289.433 309.118 287.473 299.631 287.739 296.311L291.131 265.152L319.778 270.581Z" fill="#FF9E7C"/>
<path d="M325.733 251.408C325.714 252.51 326.335 253.414 327.12 253.428C327.905 253.442 328.557 252.56 328.576 251.458C328.595 250.356 327.974 249.452 327.189 249.438C326.404 249.424 325.752 250.306 325.733 251.408Z" fill="#090909"/>
<path d="M312.227 251.173C312.208 252.275 312.829 253.179 313.614 253.193C314.399 253.207 315.051 252.324 315.07 251.223C315.089 250.121 314.468 249.217 313.683 249.203C312.898 249.189 312.247 250.071 312.227 251.173Z" fill="#090909"/>
<path d="M315.662 265.319C322.75 267.044 325.48 264.639 325.48 264.639C325.48 264.639 326 269.254 321.19 269.709C316.38 270.163 315.662 265.319 315.662 265.319Z" stroke="#090909" stroke-miterlimit="10" stroke-linecap="round"/>
<path d="M321.766 251.374C322.809 253.864 325.372 258.427 323.853 260.066C322.334 261.704 319.223 260.864 319.223 260.864" stroke="#090909" stroke-miterlimit="10" stroke-linecap="round"/>
<path d="M329.98 247.532C329.98 247.532 327.058 245.509 324.643 247.497" stroke="#090909" stroke-miterlimit="10" stroke-linecap="round"/>
<path d="M317.053 247.43C317.053 247.43 312.104 245.128 310.537 247.559" stroke="#090909" stroke-miterlimit="10" stroke-linecap="round"/>
<path d="M320.578 279.951C320.578 279.951 310.536 282.069 300.916 273.298" stroke="#090909" stroke-miterlimit="10" stroke-linecap="round"/>
<path d="M336.639 237.425C336.423 238.661 312.927 237.563 307.531 231.097C303.451 226.207 298.334 241.126 298.45 243.106C298.913 250.974 289.218 282.73 288.446 289.82C283.996 292.071 260.684 255.416 278.884 222.194C282.039 216.434 293.786 207.688 307.531 210.403C320.579 212.979 339.433 221.459 336.639 237.425Z" fill="#090909"/>
<path d="M295.549 261.117C299.112 260.982 301.888 257.883 301.748 254.195C301.608 250.507 298.606 247.627 295.042 247.762C291.479 247.897 288.703 250.996 288.843 254.684C288.983 258.372 291.985 261.252 295.549 261.117Z" fill="#FF9E7C"/>
<path d="M298.463 252.194C298.463 252.194 292.558 249.691 291.418 254.003" stroke="#090909" stroke-miterlimit="10" stroke-linecap="round"/>
<path d="M296.44 254.807L294.545 251.726" stroke="#090909" stroke-miterlimit="10" stroke-linecap="round"/>
<path d="M353.945 348.753L359.623 362.685" stroke="#EEEEEE" stroke-miterlimit="10" stroke-linecap="round"/>
<path d="M303.45 351.88L309.972 373.344L295.578 390.098" stroke="#EEEEEE" stroke-miterlimit="10" stroke-linecap="round"/>
<path d="M268.568 347.424L261.389 371.557L255.15 372.56" stroke="#EEEEEE" stroke-miterlimit="10" stroke-linecap="round"/>
<path d="M328.641 301.007C328.641 301.007 321.765 327.862 286.418 311.408" stroke="#EEEEEE" stroke-miterlimit="10" stroke-linecap="round"/>
<path d="M228.201 354.119C228.201 354.119 232.779 364.91 263.634 362.685" stroke="#EEEEEE" stroke-miterlimit="10" stroke-linecap="round"/>
<path d="M297.402 412.674C297.402 412.674 269.641 391.665 246.163 383.39C237.887 385.494 220.344 405.363 220.344 405.363L286.552 435.01L297.402 412.674Z" fill="#FF9E7C"/>
<path d="M278.596 431.483C278.596 431.483 293.109 445.248 303.73 450.442C308.495 452.772 316.394 455.147 317.305 452.241C317.775 450.743 316.66 448.79 316.66 448.79C316.66 448.79 322.75 449.99 323.553 448.035C324.59 445.509 322.054 442.782 322.054 442.782C322.054 442.782 326.876 442.88 327.247 441.435C327.963 438.644 322.612 435.772 322.612 435.772C322.612 435.772 326.553 435.586 326.54 432.934C326.533 431.383 306.045 419.705 306.045 419.705C306.045 419.705 319.068 423.684 318.132 420.274C316.79 415.388 306.628 412.733 299.881 411.773C293.002 410.794 285.53 408.653 285.53 408.653L278.596 431.483Z" fill="#FF9E7C"/>
<path d="M322.612 435.771L312.999 432.089L306.98 427.688" stroke="#090909" stroke-miterlimit="10" stroke-linecap="round"/>
<path d="M322.053 442.782L315.073 440.398L305.574 434.811" stroke="#090909" stroke-miterlimit="10" stroke-linecap="round"/>
<path d="M316.66 448.79L310.318 446.157L303.285 441.285" stroke="#090909" stroke-miterlimit="10" stroke-linecap="round"/>
<path d="M416.987 326.477C416.987 326.477 389.42 351.881 379.791 376.25C364.389 405.518 406.561 404.737 411.662 397.021L437.811 344.172L416.987 326.477Z" fill="#FF9E7C"/>
<path d="M470.633 314.611C468.478 313.285 455.237 322.362 453.38 322.433C451.523 322.504 451.733 321.486 452.446 320.985C460.371 315.408 465.76 309.951 468.084 307.233C469.306 305.804 467.52 303.179 466.087 304.054C460.012 307.766 450.837 316.375 450.043 316.557C449.25 316.739 448.885 315.564 449.148 315.291C454.537 309.695 463.378 302.735 464.197 298.785C464.422 297.7 461.394 297.435 460.855 297.744C455.172 300.992 448.109 308.644 444.964 311.287C443.954 311.428 443.362 311.574 443.003 310.87C442.644 310.166 452.988 295.324 453.196 294.352C453.404 293.38 451.642 293.081 450.134 293.649C446.413 295.05 439.437 302.629 436.76 306.965C436.051 308.113 430.022 315.328 426.706 316.358C423.391 317.388 426.203 306.91 426.013 305.05C425.823 303.19 423.391 301.22 421.955 302.176C420.518 303.132 415.443 318.391 415.258 320.444C415.073 322.498 417.309 334.651 417.309 334.651L413.322 344.104L433.004 351.239C433.004 351.239 437.966 344.299 439.77 343.078C441.56 341.867 453.288 330.433 453.939 329.588C454.59 328.742 467.545 320.271 468.787 319.273C470.029 318.275 472.789 315.936 470.633 314.611Z" fill="#FF9E7C"/>
<path d="M391.815 355.458L378.25 379.523" stroke="#090909" stroke-miterlimit="10" stroke-linecap="round"/>
<path d="M437.367 555.529C437.367 555.529 429.919 539.49 428.004 537.245C426.089 535 407.536 521.385 405.068 521.459C402.6 521.532 401.39 525.845 402.708 528.173C404.025 530.502 415.979 540.407 411.257 541.948C406.534 543.489 393.525 540.055 391.746 539.301C385.032 536.454 370.616 533.378 365.112 534.822C362.881 535.407 361.071 537.214 362.12 538.177C363.167 539.14 386.875 546.357 387.039 547.476C387.203 548.595 387.841 547.99 386.545 548.661C381.367 548.234 369.382 543.58 360.229 543.643C358.55 545.799 358.274 547.374 364.507 551.352C366.333 551.623 382.408 556.723 384.058 557.036C384.365 557.094 384.665 557.672 384.669 558.237L359.823 555.308C359.823 555.308 356.828 562.68 363.443 563.469C369.576 564.201 396.316 572.488 396.435 572.525C396.469 572.536 396.498 572.545 396.498 572.545L396.497 572.544C405.073 575.169 430.892 590.589 430.892 590.589L447.062 567.276C444.019 564.435 437.367 555.529 437.367 555.529Z" fill="#FF9E7C"/>
<path d="M532.308 556.024C508.762 579.95 475.465 656.588 475.465 656.588L509.388 686.821C520.58 695.685 536.603 695.089 542.346 679.597L585.375 563.538C585.375 563.538 541.728 546.452 532.308 556.024Z" fill="#6ABE52"/>
<path d="M490.122 671.869L403.107 598.238C403.107 598.238 436.563 576.704 449.725 554.707C471.691 579.676 539.754 633.786 539.754 633.786L490.122 671.869Z" fill="#6ABE52"/>
<path d="M750.84 707.108L722.837 725.823L516.482 726.675C516.482 726.675 515.072 612.87 516.482 591.112C518.651 557.645 555.012 530.471 588.426 527.611L640.092 523.19L691.758 527.611C725.173 530.47 750.84 558.428 750.84 591.965V707.108Z" fill="#6ABE52"/>
<path d="M589.333 457.409C597.387 457.409 603.916 448.437 603.916 437.37C603.916 426.303 597.387 417.331 589.333 417.331C581.279 417.331 574.75 426.303 574.75 437.37C574.75 448.437 581.279 457.409 589.333 457.409Z" fill="#090909"/>
<path d="M660.59 456.027C659.368 481.443 625.54 501.201 606.081 500.266C586.622 499.33 583.333 478.315 584.555 452.899C585.777 427.483 594.121 417.634 613.798 414.795C633.079 412.013 661.812 430.611 660.59 456.027Z" fill="#FF9E7C"/>
<path d="M607.32 485.782L603.93 528.91C603.463 534.375 617.129 545.352 630.395 545.352C654.228 545.353 657.259 530.688 656.847 525.555L651.603 477.389L607.32 485.782Z" fill="#FF9E7C"/>
<path d="M598.112 457.459C598.142 459.162 597.182 460.56 595.968 460.581C594.754 460.602 593.747 459.238 593.717 457.535C593.687 455.832 594.647 454.434 595.861 454.413C597.075 454.392 598.083 455.756 598.112 457.459Z" fill="#090909"/>
<path d="M618.989 457.098C619.019 458.801 618.059 460.199 616.845 460.22C615.631 460.241 614.624 458.877 614.594 457.174C614.564 455.471 615.524 454.073 616.738 454.052C617.952 454.031 618.96 455.395 618.989 457.098Z" fill="#090909"/>
<path d="M611.847 479.953C600.89 482.619 596.67 478.901 596.67 478.901C596.67 478.901 595.866 486.035 603.301 486.738C610.736 487.442 611.847 479.953 611.847 479.953Z" fill="white"/>
<path d="M604.246 457.408C602.634 461.257 598.673 468.311 601.02 470.844C603.368 473.377 608.176 472.077 608.176 472.077" stroke="#090909" stroke-miterlimit="10" stroke-linecap="round"/>
<path d="M591.547 451.469C591.547 451.469 596.064 448.341 599.797 451.416" stroke="#090909" stroke-miterlimit="10" stroke-linecap="round"/>
<path d="M611.529 451.311C611.529 451.311 619.179 447.752 621.602 451.51" stroke="#090909" stroke-miterlimit="10" stroke-linecap="round"/>
<path d="M606.08 500.266C606.08 500.266 621.603 503.538 636.473 489.981" stroke="#090909" stroke-miterlimit="10" stroke-linecap="round"/>
<path d="M601.845 427.648C607.54 421.953 607.54 412.719 601.845 407.024C596.15 401.329 586.917 401.329 581.222 407.024C575.527 412.719 575.527 421.953 581.222 427.648C586.917 433.342 596.15 433.342 601.845 427.648Z" fill="#090909"/>
<path d="M643.36 420.778C645.211 412.94 640.358 405.085 632.519 403.234C624.681 401.384 616.827 406.237 614.976 414.075C613.125 421.914 617.979 429.768 625.817 431.619C633.655 433.47 641.51 428.616 643.36 420.778Z" fill="#090909"/>
<path d="M658.669 434.681C665.074 428.744 665.453 418.739 659.516 412.334C653.58 405.929 643.574 405.55 637.17 411.487C630.765 417.424 630.385 427.429 636.322 433.834C642.259 440.239 652.264 440.618 658.669 434.681Z" fill="#090909"/>
<path d="M625.252 420.081C627.474 410.67 621.646 401.24 612.235 399.017C602.825 396.795 593.394 402.623 591.172 412.034C588.95 421.444 594.777 430.875 604.188 433.097C613.599 435.319 623.029 429.492 625.252 420.081Z" fill="#090909"/>
<path d="M633.768 429.072C633.768 429.072 636.475 442.472 643.714 454.756C649.932 465.305 641.269 486.948 648.798 486.786C656.327 486.624 659.22 478.903 661.422 467.458C663.624 456.013 663.735 423.729 663.735 423.729L633.768 429.072Z" fill="#090909"/>
<path d="M659.762 437.712C659.762 448.779 655.987 456.074 647.934 456.074C639.88 456.074 633.768 442.981 633.768 431.914C633.768 420.847 637.125 417.673 645.179 417.673C653.233 417.673 659.762 426.645 659.762 437.712Z" fill="#090909"/>
<path d="M655.472 458.288C655.256 463.989 650.614 468.441 645.106 468.232C639.598 468.023 635.307 463.232 635.523 457.531C635.739 451.83 640.381 447.378 645.889 447.587C651.397 447.796 655.689 452.588 655.472 458.288Z" fill="#FF9E7C"/>
<path d="M640.586 454.498C640.586 454.498 649.714 450.629 651.477 457.294" stroke="#090909" stroke-miterlimit="10" stroke-linecap="round"/>
<path d="M643.713 458.533L646.644 453.771" stroke="#090909" stroke-miterlimit="10" stroke-linecap="round"/>
<path d="M693.121 598.897L701.873 713.531L732.148 726.168C769.671 733.803 782.432 699.549 778.483 682.729L745.864 567.08L693.121 598.897Z" fill="#6ABE52"/>
<path d="M550.41 661.041L539.754 701.684" stroke="#090909" stroke-miterlimit="10" stroke-linecap="round"/>
<path d="M690.814 600.59L700.399 652.183" stroke="#090909" stroke-miterlimit="10" stroke-linecap="round"/>
<path d="M558.674 653.77C560.668 651.066 581.487 655.653 583.808 654.817C586.129 653.981 585.364 652.832 584.237 652.569C571.705 649.646 562.355 645.608 558.141 643.418C555.926 642.267 556.819 638.146 559.018 638.51C568.345 640.057 583.925 646.092 584.992 645.921C586.059 645.75 585.924 644.122 585.464 643.917C576.045 639.709 561.697 635.539 558.723 631.082C557.906 629.859 561.502 628.026 562.32 628.137C570.933 629.308 583.436 635.215 588.623 636.904C589.936 636.576 590.739 636.46 590.83 635.414C590.921 634.368 570.801 621.242 570.061 620.148C569.321 619.054 571.341 617.81 573.481 617.758C578.76 617.631 591.119 623.492 596.573 627.499C598.017 628.56 609.03 634.443 613.625 634.061C618.219 633.679 609.543 622.178 608.852 619.794C608.16 617.41 610.175 613.774 612.419 614.236C614.663 614.698 628.505 630.959 629.754 633.396C631.003 635.833 634.298 651.908 634.298 651.908L643.91 661.563L623.227 680.14C623.227 680.14 613.665 674.064 610.836 673.459C608.03 672.859 587.902 664.617 586.679 663.899C585.457 663.182 565.292 659.197 563.266 658.586C561.239 657.979 556.68 656.475 558.674 653.77Z" fill="#FF9E7C"/>
<path d="M716.379 719.586L605.342 678.465C605.342 678.465 632.634 656.59 632.107 630.077C662.916 642.596 746.627 661.669 746.627 661.669L716.379 719.586Z" fill="#6ABE52"/>
<path d="M716.379 657.456L634.747 630.863C634.747 630.863 629.211 666.407 606.525 678.903C618.958 687.731 681.912 706.822 681.912 706.822" stroke="#090909" stroke-miterlimit="10" stroke-linecap="round" stroke-linejoin="round"/>
<path d="M888.077 652.417H832.666V721.223H888.077V652.417Z" fill="#FFDE38"/>
<path d="M896.735 701.538C904.863 701.538 911.452 694.948 911.452 686.82C911.452 678.693 904.863 672.104 896.735 672.104C888.607 672.104 882.018 678.693 882.018 686.82C882.018 694.948 888.607 701.538 896.735 701.538Z" stroke="#FFDE38" stroke-width="4.4677" stroke-miterlimit="10" stroke-linecap="round" stroke-linejoin="round"/>
<path d="M529.497 482.844C518.65 484.387 517.399 485.638 515.856 496.485C514.313 485.638 513.062 484.387 502.215 482.844C513.062 481.301 514.313 480.05 515.856 469.203C517.399 480.05 518.65 481.301 529.497 482.844Z" fill="#2478FF"/>
<path d="M744.919 69.644C727.708 72.092 725.723 74.077 723.275 91.288C720.827 74.077 718.842 72.092 701.631 69.644C718.842 67.196 720.827 65.211 723.275 48C725.723 65.211 727.707 67.196 744.919 69.644Z" fill="#00C276"/>
<path d="M125.228 437.369C108.663 439.726 106.753 441.636 104.396 458.201C102.04 441.636 100.129 439.726 83.5645 437.369C100.129 435.013 102.039 433.102 104.396 416.537C106.753 433.103 108.663 435.013 125.228 437.369Z" fill="#00C276"/>
<path d="M544.704 721.152H391.879L361.739 621.771C360.23 616.796 363.953 611.776 369.152 611.776H505.787C509.199 611.776 512.21 614.009 513.2 617.274L544.704 721.152Z" fill="#090909"/>
<path d="M600.384 721.153H395.432V704.973H589.909C595.694 704.973 600.383 709.663 600.383 715.447L600.384 721.153Z" fill="#090909"/>
<path d="M981.858 729.753H90.4503C88.0783 729.753 86.1543 727.83 86.1543 725.457C86.1543 723.085 88.0773 721.161 90.4503 721.161H981.859C984.231 721.161 986.155 723.084 986.155 725.457C986.154 727.83 984.231 729.753 981.858 729.753Z" fill="#FFDE38"/>
</svg>
