<svg width="21" height="22" viewBox="0 0 21 22" fill="none" xmlns="http://www.w3.org/2000/svg">
<path d="M5.90527 9.77136V5.96846C5.90527 4.70773 6.43206 3.49862 7.36974 2.60715C8.30742 1.71567 9.57919 1.21484 10.9053 1.21484C12.2314 1.21484 13.5031 1.71567 14.4408 2.60715C15.3785 3.49862 15.9053 4.70773 15.9053 5.96846V9.77136M3.90527 9.77136H17.9053C19.0098 9.77136 19.9053 10.6227 19.9053 11.6728V18.3279C19.9053 19.378 19.0098 20.2293 17.9053 20.2293H3.90527C2.8007 20.2293 1.90527 19.378 1.90527 18.3279V11.6728C1.90527 10.6227 2.8007 9.77136 3.90527 9.77136Z" stroke="#0E7C61" stroke-width="2" stroke-linecap="round" stroke-linejoin="round"/>
</svg>
