<svg width="839" height="305" viewBox="0 0 839 305" fill="none" xmlns="http://www.w3.org/2000/svg">
<path d="M62.1992 219.215C62.1992 220.061 62.0365 221.103 61.7109 222.34C61.4505 223.512 60.7669 224.651 59.6602 225.758C58.6185 226.799 57.0885 227.678 55.0703 228.395C53.0521 229.176 50.3177 229.566 46.8672 229.566C43.4167 229.566 40.7148 229.143 38.7617 228.297C36.8086 227.516 35.3438 226.572 34.3672 225.465C33.3906 224.358 32.7721 223.219 32.5117 222.047C32.3164 220.875 32.2188 219.931 32.2188 219.215V143.824C32.2188 141.936 31.763 140.309 30.8516 138.941C30.0052 137.509 28.5404 136.793 26.457 136.793C25.3503 136.793 24.4062 136.988 23.625 137.379C22.8438 137.77 21.9974 138.323 21.0859 139.039L19.0352 136.598C20.5326 135.361 22.1927 134.156 24.0156 132.984C25.9036 131.747 27.9219 130.673 30.0703 129.762C32.2188 128.85 34.5299 128.102 37.0039 127.516C39.4779 126.93 42.082 126.637 44.8164 126.637C49.0482 126.637 52.3359 127.223 54.6797 128.395C57.0234 129.501 58.7487 130.901 59.8555 132.594C60.9622 134.221 61.6133 135.979 61.8086 137.867C62.069 139.755 62.1992 141.415 62.1992 142.848V219.215ZM29.1914 104.371C29.1914 102.548 29.582 100.823 30.3633 99.1953C31.2096 97.5026 32.349 96.0378 33.7812 94.8008C35.2786 93.5638 36.9714 92.5872 38.8594 91.8711C40.8125 91.1549 42.9284 90.7969 45.207 90.7969C47.4206 90.7969 49.4714 91.1549 51.3594 91.8711C53.3125 92.5872 55.0052 93.5638 56.4375 94.8008C57.8698 96.0378 58.9766 97.5026 59.7578 99.1953C60.6042 100.823 61.0273 102.548 61.0273 104.371C61.0273 106.259 60.6042 108.017 59.7578 109.645C58.9766 111.272 57.8698 112.704 56.4375 113.941C55.0052 115.113 53.3125 116.057 51.3594 116.773C49.4714 117.49 47.4206 117.848 45.207 117.848C42.9284 117.848 40.8125 117.49 38.8594 116.773C36.9714 116.057 35.2786 115.113 33.7812 113.941C32.349 112.704 31.2096 111.272 30.3633 109.645C29.582 108.017 29.1914 106.259 29.1914 104.371ZM130.461 163.16L141.301 147.047C142.212 145.615 142.961 144.182 143.547 142.75C144.198 141.253 144.719 139.82 145.109 138.453C145.565 137.021 145.923 135.719 146.184 134.547C146.509 133.31 146.802 132.268 147.062 131.422C147.583 129.729 148.462 128.525 149.699 127.809C150.936 127.027 152.857 126.637 155.461 126.637C156.958 126.637 158.26 126.897 159.367 127.418C160.539 127.939 161.125 128.785 161.125 129.957C161.125 131.845 160.474 134.189 159.172 136.988C157.87 139.723 156.112 142.652 153.898 145.777L135.734 171.852L161.125 214.234C161.776 215.406 162.362 216.35 162.883 217.066C163.469 217.783 164.022 218.336 164.543 218.727C165.064 219.117 165.585 219.41 166.105 219.605C166.626 219.736 167.212 219.801 167.863 219.801C168.579 219.801 169.296 219.638 170.012 219.312C170.728 218.922 171.542 218.368 172.453 217.652L174.504 219.996C173.007 221.233 171.444 222.47 169.816 223.707C168.189 224.879 166.366 225.921 164.348 226.832C162.395 227.743 160.214 228.492 157.805 229.078C155.461 229.664 152.824 229.957 149.895 229.957C146.574 229.957 143.71 229.371 141.301 228.199C138.892 227.092 136.776 225.693 134.953 224C133.195 222.307 131.665 220.484 130.363 218.531C129.126 216.578 128.052 214.788 127.141 213.16L112.883 189.43L99.6992 209.156C98.7878 210.589 98.0065 212.053 97.3555 213.551C96.7695 214.983 96.2487 216.415 95.793 217.848C95.4023 219.215 95.0443 220.517 94.7188 221.754C94.4583 222.926 94.1979 223.935 93.9375 224.781C93.4167 226.474 92.5378 227.678 91.3008 228.395C90.0638 229.176 88.1432 229.566 85.5391 229.566C84.0417 229.566 82.707 229.306 81.5352 228.785C80.4284 228.264 79.875 227.418 79.875 226.246C79.875 224.358 80.4609 222.177 81.6328 219.703C82.8047 217.164 84.6276 214.072 87.1016 210.426L107.902 180.836L84.4648 141.383C83.6836 140.081 82.9349 139.007 82.2188 138.16C81.5677 137.249 80.5911 136.793 79.2891 136.793C78.0521 136.793 76.5221 137.542 74.6992 139.039L72.7461 136.598C74.2435 135.361 75.8711 134.156 77.6289 132.984C79.3867 131.747 81.2747 130.673 83.293 129.762C85.3763 128.85 87.6224 128.102 90.0312 127.516C92.4401 126.93 95.0117 126.637 97.7461 126.637C100.806 126.637 103.378 127.125 105.461 128.102C107.609 129.013 109.4 130.185 110.832 131.617C112.329 133.049 113.599 134.645 114.641 136.402C115.682 138.16 116.691 139.82 117.668 141.383L130.461 163.16ZM227.141 177.418C227.141 175.79 226.62 174.553 225.578 173.707C224.536 172.861 223.202 172.438 221.574 172.438C219.296 172.438 217.115 172.958 215.031 174C213.013 175.042 211.223 176.572 209.66 178.59C208.098 180.608 206.861 183.115 205.949 186.109C205.038 189.039 204.582 192.457 204.582 196.363C204.582 200.139 204.842 203.264 205.363 205.738C205.949 208.212 206.698 210.198 207.609 211.695C208.586 213.128 209.693 214.137 210.93 214.723C212.167 215.309 213.469 215.602 214.836 215.602C216.529 215.602 218.124 215.178 219.621 214.332C221.118 213.421 222.421 212.281 223.527 210.914C224.634 209.547 225.513 208.017 226.164 206.324C226.815 204.632 227.141 202.939 227.141 201.246V177.418ZM211.613 134.645C209.4 134.645 207.349 134.905 205.461 135.426C203.573 135.947 201.945 136.598 200.578 137.379C199.211 138.16 198.137 139.039 197.355 140.016C196.574 140.927 196.184 141.806 196.184 142.652C196.184 143.629 196.672 144.345 197.648 144.801C198.69 145.191 199.829 145.68 201.066 146.266C202.303 146.786 203.41 147.568 204.387 148.609C205.428 149.586 205.949 151.116 205.949 153.199C205.949 154.566 205.656 155.836 205.07 157.008C204.549 158.115 203.801 159.124 202.824 160.035C201.913 160.882 200.806 161.565 199.504 162.086C198.267 162.542 196.965 162.77 195.598 162.77C191.952 162.77 188.99 161.533 186.711 159.059C184.497 156.585 183.391 153.297 183.391 149.195C183.391 145.224 184.432 141.839 186.516 139.039C188.599 136.174 191.301 133.831 194.621 132.008C198.007 130.185 201.815 128.85 206.047 128.004C210.279 127.092 214.51 126.637 218.742 126.637C223.82 126.637 228.671 127.19 233.293 128.297C237.915 129.404 241.984 131.161 245.5 133.57C249.081 135.979 251.913 139.039 253.996 142.75C256.145 146.461 257.219 150.953 257.219 156.227V211.402C257.219 211.988 257.251 212.639 257.316 213.355C257.382 214.072 257.544 214.723 257.805 215.309C258.065 215.895 258.456 216.383 258.977 216.773C259.497 217.164 260.246 217.359 261.223 217.359C262.395 217.359 263.469 216.936 264.445 216.09C265.487 215.178 266.398 214.267 267.18 213.355L269.621 215.406C268.645 216.773 267.473 218.271 266.105 219.898C264.738 221.526 263.078 223.056 261.125 224.488C259.172 225.921 256.893 227.125 254.289 228.102C251.685 229.078 248.723 229.566 245.402 229.566C241.301 229.566 237.655 228.362 234.465 225.953C231.275 223.479 229.191 219.703 228.215 214.625C226.132 217.424 223.951 219.768 221.672 221.656C219.458 223.544 217.18 225.074 214.836 226.246C212.492 227.418 210.116 228.264 207.707 228.785C205.363 229.306 202.987 229.566 200.578 229.566C197.453 229.566 194.426 229.078 191.496 228.102C188.566 227.125 185.93 225.595 183.586 223.512C181.307 221.363 179.452 218.596 178.02 215.211C176.652 211.826 175.969 207.691 175.969 202.809C175.969 196.884 177.141 192.034 179.484 188.258C181.828 184.482 184.888 181.324 188.664 178.785C192.505 176.181 196.835 173.967 201.652 172.145C206.535 170.322 211.516 168.401 216.594 166.383C220.37 164.885 223.104 162.672 224.797 159.742C226.555 156.747 227.434 153.688 227.434 150.562C227.434 145.745 226.001 141.904 223.137 139.039C220.337 136.109 216.496 134.645 211.613 134.645ZM366.203 219.41C366.203 220.257 366.073 221.266 365.812 222.438C365.552 223.609 364.901 224.716 363.859 225.758C362.883 226.799 361.385 227.678 359.367 228.395C357.349 229.176 354.615 229.566 351.164 229.566C347.714 229.566 344.979 229.143 342.961 228.297C341.008 227.516 339.51 226.572 338.469 225.465C337.492 224.358 336.874 223.219 336.613 222.047C336.353 220.875 336.223 219.931 336.223 219.215V150.172C336.223 149.26 336.092 148.349 335.832 147.438C335.572 146.461 335.181 145.582 334.66 144.801C334.139 144.02 333.488 143.401 332.707 142.945C331.926 142.424 331.014 142.164 329.973 142.164C328.215 142.164 326.49 142.685 324.797 143.727C323.104 144.703 321.509 145.842 320.012 147.145C318.579 148.447 317.31 149.749 316.203 151.051C315.161 152.353 314.413 153.329 313.957 153.98V219.41C313.957 220.257 313.827 221.266 313.566 222.438C313.306 223.609 312.655 224.716 311.613 225.758C310.637 226.799 309.139 227.678 307.121 228.395C305.168 229.176 302.466 229.566 299.016 229.566C295.565 229.566 292.831 229.143 290.812 228.297C288.859 227.516 287.362 226.572 286.32 225.465C285.279 224.358 284.628 223.219 284.367 222.047C284.107 220.875 283.977 219.931 283.977 219.215V143.824C283.977 141.936 283.521 140.309 282.609 138.941C281.763 137.509 280.298 136.793 278.215 136.793C277.108 136.793 276.164 136.988 275.383 137.379C274.602 137.77 273.755 138.323 272.844 139.039L270.793 136.598C272.29 135.361 273.951 134.156 275.773 132.984C277.661 131.747 279.68 130.673 281.828 129.762C283.977 128.85 286.288 128.102 288.762 127.516C291.236 126.93 293.84 126.637 296.574 126.637C300.806 126.637 304.094 127.353 306.438 128.785C308.781 130.152 310.507 131.812 311.613 133.766C312.72 135.719 313.371 137.77 313.566 139.918C313.827 142.001 313.957 143.759 313.957 145.191C317.017 141.741 320.305 138.648 323.82 135.914C325.253 134.742 326.815 133.603 328.508 132.496C330.266 131.389 332.056 130.413 333.879 129.566C335.702 128.655 337.59 127.939 339.543 127.418C341.496 126.897 343.449 126.637 345.402 126.637C349.178 126.637 352.401 127.32 355.07 128.688C357.74 130.055 359.888 131.715 361.516 133.668C363.143 135.556 364.315 137.574 365.031 139.723C365.812 141.806 366.203 143.629 366.203 145.191C369.328 141.741 372.616 138.648 376.066 135.914C377.499 134.742 379.061 133.603 380.754 132.496C382.447 131.389 384.204 130.413 386.027 129.566C387.915 128.655 389.803 127.939 391.691 127.418C393.645 126.897 395.598 126.637 397.551 126.637C401.327 126.637 404.549 127.353 407.219 128.785C409.888 130.152 412.036 131.975 413.664 134.254C415.292 136.533 416.464 139.104 417.18 141.969C417.961 144.833 418.352 147.698 418.352 150.562V211.012C418.352 211.598 418.384 212.249 418.449 212.965C418.514 213.616 418.677 214.267 418.938 214.918C419.198 215.504 419.589 215.992 420.109 216.383C420.695 216.773 421.444 216.969 422.355 216.969C423.592 216.969 424.699 216.546 425.676 215.699C426.652 214.788 427.564 213.876 428.41 212.965L430.754 215.016C429.842 216.383 428.638 217.913 427.141 219.605C425.643 221.233 423.853 222.796 421.77 224.293C419.751 225.79 417.375 227.027 414.641 228.004C411.971 229.046 408.944 229.566 405.559 229.566C402.694 229.566 400.188 229.176 398.039 228.395C395.956 227.678 394.165 226.702 392.668 225.465C391.236 224.163 390.161 222.665 389.445 220.973C388.729 219.215 388.371 217.359 388.371 215.406V150.172C388.371 149.26 388.241 148.349 387.98 147.438C387.72 146.461 387.329 145.582 386.809 144.801C386.353 144.02 385.734 143.401 384.953 142.945C384.172 142.424 383.26 142.164 382.219 142.164C380.461 142.164 378.703 142.685 376.945 143.727C375.253 144.703 373.658 145.842 372.16 147.145C370.728 148.447 369.491 149.749 368.449 151.051C367.408 152.353 366.659 153.329 366.203 153.98V219.41ZM514.152 210.621C514.152 212.118 514.283 213.551 514.543 214.918C514.868 216.22 515.454 217.359 516.301 218.336C517.212 219.312 518.417 220.094 519.914 220.68C521.477 221.266 523.495 221.559 525.969 221.559C529.549 221.559 532.837 220.549 535.832 218.531C538.827 216.448 541.398 213.811 543.547 210.621C545.695 207.366 547.355 203.753 548.527 199.781C549.699 195.745 550.285 191.741 550.285 187.77C550.285 181.845 549.471 176.637 547.844 172.145C546.281 167.587 544.068 163.746 541.203 160.621C538.339 157.496 534.953 155.087 531.047 153.395C527.141 151.637 522.909 150.628 518.352 150.367L520.305 145.387C523.169 145.517 525.904 145.126 528.508 144.215C531.112 143.303 533.391 141.708 535.344 139.43C537.362 137.151 538.957 134.091 540.129 130.25C541.301 126.344 541.887 121.461 541.887 115.602C541.887 111.63 541.398 108.049 540.422 104.859C539.445 101.669 538.143 99 536.516 96.8516C534.953 94.638 533.098 92.9453 530.949 91.7734C528.866 90.6016 526.717 90.0156 524.504 90.0156C523.137 90.0156 521.802 90.1784 520.5 90.5039C519.263 90.8294 518.156 91.3828 517.18 92.1641C516.268 92.9453 515.52 93.987 514.934 95.2891C514.413 96.526 514.152 98.0885 514.152 99.9766V210.621ZM516.105 82.0078C534.986 82.0078 548.853 84.9701 557.707 90.8945C566.626 96.7539 571.086 105.315 571.086 116.578C571.086 119.378 570.76 121.949 570.109 124.293C569.523 126.637 568.742 128.785 567.766 130.738C566.789 132.626 565.682 134.319 564.445 135.816C563.208 137.314 561.939 138.616 560.637 139.723C557.577 142.392 554.126 144.475 550.285 145.973V147.438C556.34 148.154 561.776 149.977 566.594 152.906C568.612 154.143 570.598 155.706 572.551 157.594C574.504 159.417 576.229 161.663 577.727 164.332C579.289 166.936 580.526 169.996 581.438 173.512C582.414 176.962 582.902 180.934 582.902 185.426C582.902 192.262 581.665 198.414 579.191 203.883C576.717 209.352 573.039 214.007 568.156 217.848C563.273 221.624 557.186 224.521 549.895 226.539C542.603 228.557 534.139 229.566 524.504 229.566C515.585 229.566 508.326 229.013 502.727 227.906C497.128 226.799 492.766 225.204 489.641 223.121C486.516 220.973 484.367 218.401 483.195 215.406C482.089 212.411 481.535 209.026 481.535 205.25V98.4141C481.535 94.8333 479.061 93.043 474.113 93.043C470.533 93.043 466.887 93.5964 463.176 94.7031C459.53 95.7448 456.21 97.2096 453.215 99.0977C450.285 100.921 447.876 103.134 445.988 105.738C444.1 108.277 443.156 111.044 443.156 114.039C443.156 116.122 443.417 117.783 443.938 119.02C444.523 120.257 445.174 121.201 445.891 121.852C446.607 122.438 447.323 122.828 448.039 123.023C448.82 123.154 449.374 123.219 449.699 123.219C451.327 123.219 452.661 122.958 453.703 122.438C454.745 121.852 455.689 121.266 456.535 120.68C457.382 120.029 458.163 119.443 458.879 118.922C459.66 118.336 460.539 118.043 461.516 118.043C462.297 118.043 463.111 118.238 463.957 118.629C464.868 118.954 465.682 119.508 466.398 120.289C467.18 121.07 467.831 122.112 468.352 123.414C468.872 124.651 469.133 126.181 469.133 128.004C469.133 130.608 468.612 132.854 467.57 134.742C466.594 136.63 465.292 138.225 463.664 139.527C462.102 140.764 460.279 141.708 458.195 142.359C456.177 142.945 454.159 143.238 452.141 143.238C449.016 143.238 446.184 142.717 443.645 141.676C441.171 140.569 439.055 139.072 437.297 137.184C435.539 135.296 434.204 133.082 433.293 130.543C432.382 128.004 431.926 125.302 431.926 122.438C431.926 117.034 432.935 112.281 434.953 108.18C436.971 104.013 439.803 100.432 443.449 97.4375C447.16 94.4427 451.587 91.9688 456.73 90.0156C461.874 87.9974 467.57 86.4023 473.82 85.2305C480.07 84.0586 486.743 83.2448 493.84 82.7891C501.001 82.2682 508.423 82.0078 516.105 82.0078ZM626.359 183.18C626.359 185.263 626.652 187.542 627.238 190.016C627.889 192.424 628.801 194.866 629.973 197.34C631.145 199.814 632.577 202.19 634.27 204.469C636.027 206.682 638.013 208.668 640.227 210.426C642.505 212.184 645.012 213.583 647.746 214.625C650.48 215.667 653.475 216.188 656.73 216.188C659.009 216.188 661.125 215.927 663.078 215.406C665.031 214.885 666.854 214.169 668.547 213.258C670.24 212.346 671.867 211.305 673.43 210.133C674.992 208.896 676.555 207.594 678.117 206.227L680.559 208.57C679.061 210.589 677.141 212.802 674.797 215.211C672.453 217.62 669.621 219.898 666.301 222.047C662.98 224.13 659.107 225.888 654.68 227.32C650.253 228.688 645.207 229.371 639.543 229.371C633.879 229.371 628.345 228.362 622.941 226.344C617.603 224.26 612.85 221.168 608.684 217.066C604.517 212.965 601.164 207.854 598.625 201.734C596.151 195.615 594.914 188.453 594.914 180.25C594.914 174.326 595.663 168.889 597.16 163.941C598.658 158.993 600.676 154.534 603.215 150.562C605.819 146.591 608.814 143.108 612.199 140.113C615.65 137.118 619.263 134.645 623.039 132.691C626.815 130.673 630.656 129.176 634.562 128.199C638.534 127.158 642.342 126.637 645.988 126.637C650.806 126.637 655.005 127.158 658.586 128.199C662.167 129.241 665.129 130.641 667.473 132.398C669.882 134.156 671.672 136.207 672.844 138.551C674.016 140.829 674.602 143.238 674.602 145.777C674.602 148.837 673.723 151.604 671.965 154.078C670.207 156.487 667.863 158.603 664.934 160.426L626.359 183.18ZM645.988 163.355C646.835 162.835 647.518 162.346 648.039 161.891C648.625 161.37 649.081 160.784 649.406 160.133C649.732 159.417 649.96 158.57 650.09 157.594C650.285 156.552 650.383 155.283 650.383 153.785C650.383 152.158 650.188 150.367 649.797 148.414C649.471 146.396 648.885 144.508 648.039 142.75C647.193 140.992 646.118 139.527 644.816 138.355C643.514 137.184 641.952 136.598 640.129 136.598C637.785 136.598 635.767 137.314 634.074 138.746C632.447 140.113 631.079 141.904 629.973 144.117C628.931 146.331 628.085 148.87 627.434 151.734C626.848 154.534 626.392 157.366 626.066 160.23C625.741 163.095 625.546 165.862 625.48 168.531C625.415 171.135 625.383 173.349 625.383 175.172L645.988 163.355ZM716.984 183.18C716.984 185.263 717.277 187.542 717.863 190.016C718.514 192.424 719.426 194.866 720.598 197.34C721.77 199.814 723.202 202.19 724.895 204.469C726.652 206.682 728.638 208.668 730.852 210.426C733.13 212.184 735.637 213.583 738.371 214.625C741.105 215.667 744.1 216.188 747.355 216.188C749.634 216.188 751.75 215.927 753.703 215.406C755.656 214.885 757.479 214.169 759.172 213.258C760.865 212.346 762.492 211.305 764.055 210.133C765.617 208.896 767.18 207.594 768.742 206.227L771.184 208.57C769.686 210.589 767.766 212.802 765.422 215.211C763.078 217.62 760.246 219.898 756.926 222.047C753.605 224.13 749.732 225.888 745.305 227.32C740.878 228.688 735.832 229.371 730.168 229.371C724.504 229.371 718.97 228.362 713.566 226.344C708.228 224.26 703.475 221.168 699.309 217.066C695.142 212.965 691.789 207.854 689.25 201.734C686.776 195.615 685.539 188.453 685.539 180.25C685.539 174.326 686.288 168.889 687.785 163.941C689.283 158.993 691.301 154.534 693.84 150.562C696.444 146.591 699.439 143.108 702.824 140.113C706.275 137.118 709.888 134.645 713.664 132.691C717.44 130.673 721.281 129.176 725.188 128.199C729.159 127.158 732.967 126.637 736.613 126.637C741.431 126.637 745.63 127.158 749.211 128.199C752.792 129.241 755.754 130.641 758.098 132.398C760.507 134.156 762.297 136.207 763.469 138.551C764.641 140.829 765.227 143.238 765.227 145.777C765.227 148.837 764.348 151.604 762.59 154.078C760.832 156.487 758.488 158.603 755.559 160.426L716.984 183.18ZM736.613 163.355C737.46 162.835 738.143 162.346 738.664 161.891C739.25 161.37 739.706 160.784 740.031 160.133C740.357 159.417 740.585 158.57 740.715 157.594C740.91 156.552 741.008 155.283 741.008 153.785C741.008 152.158 740.812 150.367 740.422 148.414C740.096 146.396 739.51 144.508 738.664 142.75C737.818 140.992 736.743 139.527 735.441 138.355C734.139 137.184 732.577 136.598 730.754 136.598C728.41 136.598 726.392 137.314 724.699 138.746C723.072 140.113 721.704 141.904 720.598 144.117C719.556 146.331 718.71 148.87 718.059 151.734C717.473 154.534 717.017 157.366 716.691 160.23C716.366 163.095 716.171 165.862 716.105 168.531C716.04 171.135 716.008 173.349 716.008 175.172L736.613 163.355Z" fill="black"/>
<path d="M165.03 272.682C166.43 272.682 167.6 272.482 168.54 272.082C169.5 271.662 170.27 271.082 170.85 270.342C171.45 269.582 171.88 268.682 172.14 267.642C172.4 266.602 172.53 265.462 172.53 264.222C172.53 263.362 172.41 262.572 172.17 261.852C171.95 261.132 171.6 260.512 171.12 259.992C170.64 259.472 170.03 259.072 169.29 258.792C168.57 258.492 167.71 258.342 166.71 258.342H162.09L160.32 272.682H165.03ZM167.67 251.052C170.27 251.052 172.49 251.372 174.33 252.012C176.19 252.632 177.71 253.502 178.89 254.622C180.09 255.722 180.97 257.032 181.53 258.552C182.09 260.052 182.37 261.672 182.37 263.412C182.37 265.792 182 268.002 181.26 270.042C180.54 272.062 179.43 273.812 177.93 275.292C176.43 276.772 174.53 277.932 172.23 278.772C169.93 279.612 167.21 280.032 164.07 280.032H159.42L157.59 294.762H147.87L153.21 251.052H167.67ZM193.998 270.072C194.758 268.732 195.568 267.582 196.428 266.622C197.288 265.662 198.168 264.922 199.068 264.402C199.988 263.862 200.918 263.562 201.858 263.502C202.818 263.422 203.778 263.602 204.738 264.042L203.058 272.652C201.918 272.172 200.848 271.952 199.848 271.992C198.868 272.032 197.958 272.372 197.118 273.012C196.298 273.652 195.548 274.612 194.868 275.892C194.208 277.172 193.638 278.812 193.158 280.812L191.478 294.762H182.358L186.138 263.652H190.938C191.898 263.652 192.648 263.882 193.188 264.342C193.728 264.782 193.998 265.512 193.998 266.532V270.072ZM220.305 269.502C218.765 269.502 217.415 270.122 216.255 271.362C215.095 272.582 214.235 274.262 213.675 276.402C215.595 276.102 217.155 275.782 218.355 275.442C219.555 275.102 220.485 274.742 221.145 274.362C221.805 273.962 222.245 273.542 222.465 273.102C222.705 272.662 222.825 272.182 222.825 271.662C222.825 271.142 222.625 270.652 222.225 270.192C221.825 269.732 221.185 269.502 220.305 269.502ZM230.565 289.002C229.465 290.082 228.385 291.022 227.325 291.822C226.285 292.602 225.205 293.252 224.085 293.772C222.985 294.272 221.805 294.642 220.545 294.882C219.305 295.122 217.945 295.242 216.465 295.242C214.625 295.242 212.935 294.932 211.395 294.312C209.855 293.672 208.525 292.782 207.405 291.642C206.305 290.482 205.445 289.092 204.825 287.472C204.225 285.852 203.925 284.052 203.925 282.072C203.925 280.412 204.105 278.792 204.465 277.212C204.845 275.632 205.375 274.152 206.055 272.772C206.755 271.372 207.605 270.092 208.605 268.932C209.605 267.752 210.725 266.742 211.965 265.902C213.225 265.062 214.595 264.412 216.075 263.952C217.575 263.472 219.165 263.232 220.845 263.232C222.505 263.232 223.975 263.472 225.255 263.952C226.555 264.432 227.645 265.062 228.525 265.842C229.405 266.602 230.075 267.462 230.535 268.422C230.995 269.382 231.225 270.342 231.225 271.302C231.225 272.722 230.945 274.022 230.385 275.202C229.825 276.362 228.845 277.402 227.445 278.322C226.065 279.242 224.195 280.022 221.835 280.662C219.495 281.302 216.545 281.802 212.985 282.162C213.025 284.282 213.485 285.832 214.365 286.812C215.265 287.792 216.585 288.282 218.325 288.282C219.145 288.282 219.855 288.212 220.455 288.072C221.055 287.932 221.575 287.752 222.015 287.532C222.475 287.312 222.885 287.082 223.245 286.842C223.605 286.602 223.945 286.372 224.265 286.152C224.605 285.932 224.955 285.752 225.315 285.612C225.675 285.472 226.085 285.402 226.545 285.402C226.845 285.402 227.135 285.482 227.415 285.642C227.695 285.782 227.945 285.972 228.165 286.212L230.565 289.002ZM243.413 287.112C243.993 287.572 244.633 287.902 245.333 288.102C246.053 288.302 246.733 288.402 247.373 288.402C248.453 288.402 249.443 288.042 250.343 287.322C251.263 286.602 252.053 285.662 252.713 284.502C253.373 283.322 253.883 281.982 254.243 280.482C254.623 278.982 254.813 277.452 254.813 275.892C254.813 273.912 254.523 272.472 253.943 271.572C253.363 270.672 252.593 270.222 251.633 270.222C250.993 270.222 250.323 270.472 249.623 270.972C248.943 271.452 248.273 272.112 247.613 272.952C246.973 273.792 246.363 274.782 245.783 275.922C245.223 277.062 244.743 278.282 244.343 279.582L243.413 287.112ZM245.033 269.352C246.473 267.432 248.053 265.922 249.773 264.822C251.513 263.722 253.373 263.172 255.353 263.172C256.633 263.172 257.803 263.402 258.863 263.862C259.923 264.302 260.833 265.002 261.593 265.962C262.373 266.922 262.973 268.152 263.393 269.652C263.833 271.132 264.053 272.902 264.053 274.962C264.053 277.682 263.633 280.272 262.793 282.732C261.973 285.172 260.863 287.322 259.463 289.182C258.063 291.042 256.443 292.522 254.603 293.622C252.783 294.702 250.873 295.242 248.873 295.242C247.593 295.242 246.433 295.032 245.393 294.612C244.373 294.192 243.473 293.632 242.693 292.932L241.253 304.632H232.193L237.173 263.652H241.973C242.933 263.652 243.683 263.882 244.223 264.342C244.763 264.782 245.033 265.512 245.033 266.532V269.352ZM285.763 269.562C284.243 269.562 282.853 269.902 281.593 270.582C280.353 271.262 279.283 272.192 278.383 273.372C277.483 274.532 276.783 275.892 276.283 277.452C275.803 278.992 275.563 280.642 275.563 282.402C275.563 283.402 275.643 284.252 275.803 284.952C275.963 285.652 276.173 286.222 276.433 286.662C276.713 287.082 277.033 287.392 277.393 287.592C277.773 287.792 278.183 287.892 278.623 287.892C279.303 287.892 279.963 287.642 280.603 287.142C281.243 286.622 281.843 285.922 282.403 285.042C282.983 284.162 283.513 283.132 283.993 281.952C284.473 280.772 284.883 279.512 285.223 278.172L286.333 269.562H285.763ZM284.323 289.572C283.063 291.332 281.643 292.722 280.063 293.742C278.503 294.742 276.783 295.242 274.903 295.242C273.783 295.242 272.703 295.022 271.663 294.582C270.623 294.122 269.703 293.442 268.903 292.542C268.103 291.622 267.463 290.462 266.983 289.062C266.503 287.642 266.263 285.972 266.263 284.052C266.263 281.232 266.773 278.562 267.793 276.042C268.833 273.502 270.273 271.282 272.113 269.382C273.973 267.482 276.173 265.972 278.713 264.852C281.253 263.732 284.043 263.172 287.083 263.172C288.563 263.172 290.063 263.272 291.583 263.472C293.103 263.672 294.603 264.032 296.083 264.552L292.303 294.762H287.323C286.743 294.762 286.253 294.692 285.853 294.552C285.473 294.392 285.163 294.182 284.923 293.922C284.703 293.662 284.543 293.352 284.443 292.992C284.363 292.632 284.323 292.242 284.323 291.822V289.572ZM309.779 270.072C310.539 268.732 311.349 267.582 312.209 266.622C313.069 265.662 313.949 264.922 314.849 264.402C315.769 263.862 316.699 263.562 317.639 263.502C318.599 263.422 319.559 263.602 320.519 264.042L318.839 272.652C317.699 272.172 316.629 271.952 315.629 271.992C314.649 272.032 313.739 272.372 312.899 273.012C312.079 273.652 311.329 274.612 310.649 275.892C309.989 277.172 309.419 278.812 308.939 280.812L307.259 294.762H298.139L301.919 263.652H306.719C307.679 263.652 308.429 263.882 308.969 264.342C309.509 264.782 309.779 265.512 309.779 266.532V270.072ZM336.086 269.502C334.546 269.502 333.196 270.122 332.036 271.362C330.876 272.582 330.016 274.262 329.456 276.402C331.376 276.102 332.936 275.782 334.136 275.442C335.336 275.102 336.266 274.742 336.926 274.362C337.586 273.962 338.026 273.542 338.246 273.102C338.486 272.662 338.606 272.182 338.606 271.662C338.606 271.142 338.406 270.652 338.006 270.192C337.606 269.732 336.966 269.502 336.086 269.502ZM346.346 289.002C345.246 290.082 344.166 291.022 343.106 291.822C342.066 292.602 340.986 293.252 339.866 293.772C338.766 294.272 337.586 294.642 336.326 294.882C335.086 295.122 333.726 295.242 332.246 295.242C330.406 295.242 328.716 294.932 327.176 294.312C325.636 293.672 324.306 292.782 323.186 291.642C322.086 290.482 321.226 289.092 320.606 287.472C320.006 285.852 319.706 284.052 319.706 282.072C319.706 280.412 319.886 278.792 320.246 277.212C320.626 275.632 321.156 274.152 321.836 272.772C322.536 271.372 323.386 270.092 324.386 268.932C325.386 267.752 326.506 266.742 327.746 265.902C329.006 265.062 330.376 264.412 331.856 263.952C333.356 263.472 334.946 263.232 336.626 263.232C338.286 263.232 339.756 263.472 341.036 263.952C342.336 264.432 343.426 265.062 344.306 265.842C345.186 266.602 345.856 267.462 346.316 268.422C346.776 269.382 347.006 270.342 347.006 271.302C347.006 272.722 346.726 274.022 346.166 275.202C345.606 276.362 344.626 277.402 343.226 278.322C341.846 279.242 339.976 280.022 337.616 280.662C335.276 281.302 332.326 281.802 328.766 282.162C328.806 284.282 329.266 285.832 330.146 286.812C331.046 287.792 332.366 288.282 334.106 288.282C334.926 288.282 335.636 288.212 336.236 288.072C336.836 287.932 337.356 287.752 337.796 287.532C338.256 287.312 338.666 287.082 339.026 286.842C339.386 286.602 339.726 286.372 340.046 286.152C340.386 285.932 340.736 285.752 341.096 285.612C341.456 285.472 341.866 285.402 342.326 285.402C342.626 285.402 342.916 285.482 343.196 285.642C343.476 285.782 343.726 285.972 343.946 286.212L346.346 289.002ZM393.369 251.082L392.889 254.772C392.729 256.012 392.199 257.022 391.299 257.802C390.399 258.562 388.999 258.942 387.099 258.942H377.919L375.789 266.502C376.549 266.362 377.279 266.262 377.979 266.202C378.679 266.142 379.349 266.112 379.989 266.112C381.909 266.112 383.589 266.412 385.029 267.012C386.469 267.612 387.669 268.442 388.629 269.502C389.609 270.542 390.339 271.772 390.819 273.192C391.299 274.592 391.539 276.092 391.539 277.692C391.539 280.252 391.089 282.612 390.189 284.772C389.289 286.912 388.049 288.762 386.469 290.322C384.889 291.862 383.019 293.072 380.859 293.952C378.719 294.812 376.409 295.242 373.929 295.242C372.609 295.242 371.369 295.092 370.209 294.792C369.049 294.492 367.969 294.092 366.969 293.592C365.989 293.092 365.089 292.512 364.269 291.852C363.469 291.192 362.749 290.492 362.109 289.752L365.349 286.032C366.029 285.272 366.829 284.892 367.749 284.892C368.309 284.892 368.809 285.052 369.249 285.372C369.709 285.692 370.199 286.052 370.719 286.452C371.259 286.832 371.889 287.182 372.609 287.502C373.349 287.822 374.279 287.982 375.399 287.982C376.719 287.982 377.829 287.722 378.729 287.202C379.649 286.662 380.379 285.962 380.919 285.102C381.479 284.242 381.879 283.262 382.119 282.162C382.359 281.062 382.479 279.942 382.479 278.802C382.479 277.022 382.009 275.642 381.069 274.662C380.149 273.682 378.829 273.192 377.109 273.192C375.329 273.192 373.559 273.562 371.799 274.302L366.429 272.802L372.579 251.082H393.369ZM428.714 268.152C428.714 272.732 428.234 276.722 427.274 280.122C426.334 283.502 425.044 286.312 423.404 288.552C421.764 290.792 419.844 292.472 417.644 293.592C415.444 294.692 413.094 295.242 410.594 295.242C408.734 295.242 407.034 294.882 405.494 294.162C403.954 293.422 402.634 292.322 401.534 290.862C400.434 289.402 399.574 287.582 398.954 285.402C398.354 283.202 398.054 280.642 398.054 277.722C398.054 273.162 398.524 269.182 399.464 265.782C400.404 262.382 401.684 259.562 403.304 257.322C404.924 255.062 406.824 253.382 409.004 252.282C411.204 251.162 413.564 250.602 416.084 250.602C417.944 250.602 419.644 250.972 421.184 251.712C422.744 252.432 424.074 253.522 425.174 254.982C426.294 256.442 427.164 258.272 427.784 260.472C428.404 262.652 428.714 265.212 428.714 268.152ZM419.534 267.672C419.534 265.752 419.404 264.162 419.144 262.902C418.904 261.622 418.584 260.612 418.184 259.872C417.784 259.112 417.314 258.582 416.774 258.282C416.254 257.962 415.714 257.802 415.154 257.802C414.194 257.802 413.234 258.122 412.274 258.762C411.334 259.402 410.484 260.502 409.724 262.062C408.984 263.622 408.384 265.722 407.924 268.362C407.464 270.982 407.234 274.282 407.234 278.262C407.234 280.162 407.354 281.742 407.594 283.002C407.834 284.262 408.144 285.272 408.524 286.032C408.924 286.772 409.374 287.292 409.874 287.592C410.394 287.892 410.934 288.042 411.494 288.042C412.134 288.042 412.774 287.912 413.414 287.652C414.054 287.372 414.674 286.922 415.274 286.302C415.874 285.682 416.434 284.862 416.954 283.842C417.474 282.822 417.924 281.562 418.304 280.062C418.684 278.542 418.984 276.762 419.204 274.722C419.424 272.682 419.534 270.332 419.534 267.672ZM453.738 260.112C453.738 261.972 453.408 263.662 452.748 265.182C452.108 266.702 451.258 268.002 450.198 269.082C449.158 270.162 447.968 271.002 446.628 271.602C445.288 272.182 443.918 272.472 442.518 272.472C441.238 272.472 440.078 272.252 439.038 271.812C437.998 271.352 437.108 270.712 436.368 269.892C435.628 269.072 435.058 268.092 434.658 266.952C434.258 265.812 434.058 264.552 434.058 263.172C434.058 261.312 434.348 259.622 434.928 258.102C435.508 256.562 436.298 255.242 437.298 254.142C438.298 253.042 439.478 252.192 440.838 251.592C442.198 250.992 443.658 250.692 445.218 250.692C446.498 250.692 447.658 250.922 448.698 251.382C449.758 251.822 450.658 252.462 451.398 253.302C452.158 254.122 452.738 255.112 453.138 256.272C453.538 257.432 453.738 258.712 453.738 260.112ZM446.838 260.172C446.838 258.732 446.618 257.722 446.178 257.142C445.758 256.542 445.198 256.242 444.498 256.242C443.958 256.242 443.468 256.372 443.028 256.632C442.588 256.872 442.218 257.272 441.918 257.832C441.618 258.372 441.378 259.082 441.198 259.962C441.038 260.842 440.958 261.912 440.958 263.172C440.958 264.552 441.158 265.512 441.558 266.052C441.978 266.592 442.538 266.862 443.238 266.862C443.758 266.862 444.238 266.752 444.678 266.532C445.118 266.312 445.498 265.942 445.818 265.422C446.138 264.902 446.388 264.212 446.568 263.352C446.748 262.492 446.838 261.432 446.838 260.172ZM467.238 252.432C467.578 252.112 467.968 251.812 468.408 251.532C468.868 251.252 469.478 251.112 470.238 251.112H476.778L441.078 293.502C440.738 293.842 440.338 294.142 439.878 294.402C439.438 294.642 438.898 294.762 438.258 294.762H431.598L467.238 252.432ZM474.198 282.942C474.198 284.802 473.868 286.492 473.208 288.012C472.568 289.532 471.718 290.832 470.658 291.912C469.618 292.992 468.428 293.832 467.088 294.432C465.748 295.012 464.378 295.302 462.978 295.302C461.698 295.302 460.538 295.082 459.498 294.642C458.458 294.182 457.568 293.542 456.828 292.722C456.088 291.902 455.518 290.922 455.118 289.782C454.718 288.642 454.518 287.392 454.518 286.032C454.518 284.152 454.808 282.442 455.388 280.902C455.968 279.362 456.758 278.042 457.758 276.942C458.758 275.842 459.938 274.992 461.298 274.392C462.658 273.792 464.118 273.492 465.678 273.492C466.958 273.492 468.118 273.722 469.158 274.182C470.218 274.642 471.118 275.282 471.858 276.102C472.618 276.922 473.198 277.922 473.598 279.102C473.998 280.262 474.198 281.542 474.198 282.942ZM467.298 283.002C467.298 281.542 467.078 280.532 466.638 279.972C466.218 279.412 465.658 279.132 464.958 279.132C464.418 279.132 463.928 279.252 463.488 279.492C463.048 279.732 462.678 280.132 462.378 280.692C462.078 281.232 461.838 281.942 461.658 282.822C461.498 283.702 461.418 284.772 461.418 286.032C461.418 287.392 461.618 288.352 462.018 288.912C462.438 289.452 462.998 289.722 463.698 289.722C464.218 289.722 464.698 289.612 465.138 289.392C465.578 289.172 465.958 288.802 466.278 288.282C466.598 287.742 466.848 287.042 467.028 286.182C467.208 285.322 467.298 284.262 467.298 283.002ZM505.364 258.582L503.954 270.102H517.454L516.434 277.632H503.024L500.894 294.762H491.054L496.454 251.052H522.494L521.534 258.582H505.364ZM538.185 269.562C536.665 269.562 535.275 269.902 534.015 270.582C532.775 271.262 531.705 272.192 530.805 273.372C529.905 274.532 529.205 275.892 528.705 277.452C528.225 278.992 527.985 280.642 527.985 282.402C527.985 283.402 528.065 284.252 528.225 284.952C528.385 285.652 528.595 286.222 528.855 286.662C529.135 287.082 529.455 287.392 529.815 287.592C530.195 287.792 530.605 287.892 531.045 287.892C531.725 287.892 532.385 287.642 533.025 287.142C533.665 286.622 534.265 285.922 534.825 285.042C535.405 284.162 535.935 283.132 536.415 281.952C536.895 280.772 537.305 279.512 537.645 278.172L538.755 269.562H538.185ZM536.745 289.572C535.485 291.332 534.065 292.722 532.485 293.742C530.925 294.742 529.205 295.242 527.325 295.242C526.205 295.242 525.125 295.022 524.085 294.582C523.045 294.122 522.125 293.442 521.325 292.542C520.525 291.622 519.885 290.462 519.405 289.062C518.925 287.642 518.685 285.972 518.685 284.052C518.685 281.232 519.195 278.562 520.215 276.042C521.255 273.502 522.695 271.282 524.535 269.382C526.395 267.482 528.595 265.972 531.135 264.852C533.675 263.732 536.465 263.172 539.505 263.172C540.985 263.172 542.485 263.272 544.005 263.472C545.525 263.672 547.025 264.032 548.505 264.552L544.725 294.762H539.745C539.165 294.762 538.675 294.692 538.275 294.552C537.895 294.392 537.585 294.182 537.345 293.922C537.125 293.662 536.965 293.352 536.865 292.992C536.785 292.632 536.745 292.242 536.745 291.822V289.572ZM571.921 270.192C571.641 270.552 571.381 270.812 571.141 270.972C570.901 271.132 570.581 271.212 570.181 271.212C569.781 271.212 569.381 271.122 568.981 270.942C568.601 270.762 568.181 270.562 567.721 270.342C567.281 270.102 566.771 269.892 566.191 269.712C565.631 269.532 564.981 269.442 564.241 269.442C562.861 269.442 561.871 269.712 561.271 270.252C560.691 270.772 560.401 271.452 560.401 272.292C560.401 272.832 560.561 273.292 560.881 273.672C561.221 274.052 561.661 274.392 562.201 274.692C562.741 274.992 563.351 275.272 564.031 275.532C564.731 275.772 565.441 276.052 566.161 276.372C566.881 276.672 567.581 277.022 568.261 277.422C568.961 277.822 569.581 278.312 570.121 278.892C570.661 279.472 571.091 280.162 571.411 280.962C571.751 281.762 571.921 282.712 571.921 283.812C571.921 285.372 571.611 286.852 570.991 288.252C570.371 289.632 569.481 290.842 568.321 291.882C567.161 292.902 565.751 293.722 564.091 294.342C562.451 294.942 560.601 295.242 558.541 295.242C557.561 295.242 556.591 295.142 555.631 294.942C554.671 294.742 553.761 294.472 552.901 294.132C552.061 293.792 551.291 293.392 550.591 292.932C549.891 292.452 549.321 291.942 548.881 291.402L551.161 287.982C551.441 287.582 551.761 287.272 552.121 287.052C552.501 286.812 552.961 286.692 553.501 286.692C554.001 286.692 554.431 286.812 554.791 287.052C555.151 287.292 555.541 287.552 555.961 287.832C556.381 288.112 556.881 288.372 557.461 288.612C558.041 288.852 558.801 288.972 559.741 288.972C561.061 288.972 562.041 288.682 562.681 288.102C563.321 287.502 563.641 286.802 563.641 286.002C563.641 285.382 563.471 284.872 563.131 284.472C562.811 284.072 562.381 283.732 561.841 283.452C561.301 283.152 560.691 282.892 560.011 282.672C559.331 282.432 558.631 282.172 557.911 281.892C557.191 281.612 556.491 281.292 555.811 280.932C555.131 280.552 554.521 280.082 553.981 279.522C553.441 278.962 553.001 278.272 552.661 277.452C552.341 276.632 552.181 275.642 552.181 274.482C552.181 273.042 552.441 271.642 552.961 270.282C553.501 268.922 554.291 267.722 555.331 266.682C556.391 265.622 557.701 264.772 559.261 264.132C560.821 263.492 562.641 263.172 564.721 263.172C566.801 263.172 568.651 263.532 570.271 264.252C571.911 264.972 573.261 265.852 574.321 266.892L571.921 270.192ZM577.96 288.042C577.96 287.902 577.96 287.732 577.96 287.532C577.96 287.332 577.97 287.052 577.99 286.692C578.03 286.312 578.08 285.822 578.14 285.222C578.22 284.602 578.32 283.792 578.44 282.792L580.03 270.072H577.54C577.12 270.072 576.77 269.922 576.49 269.622C576.21 269.302 576.12 268.842 576.22 268.242L576.64 264.612L581.35 263.652L583.96 256.062C584.3 255.102 584.98 254.622 586 254.622H591.04L589.9 263.712H596.86L596.08 270.072H589.12L587.62 282.282C587.52 283.102 587.44 283.752 587.38 284.232C587.32 284.692 587.27 285.052 587.23 285.312C587.21 285.552 587.2 285.722 587.2 285.822C587.2 285.902 587.2 285.952 587.2 285.972C587.2 286.552 587.33 287.042 587.59 287.442C587.87 287.822 588.3 288.012 588.88 288.012C589.2 288.012 589.46 287.982 589.66 287.922C589.88 287.842 590.07 287.762 590.23 287.682C590.39 287.582 590.54 287.502 590.68 287.442C590.82 287.362 590.98 287.322 591.16 287.322C591.44 287.322 591.64 287.392 591.76 287.532C591.9 287.652 592.04 287.852 592.18 288.132L594.22 292.542C592.98 293.442 591.65 294.122 590.23 294.582C588.81 295.022 587.38 295.242 585.94 295.242C584.74 295.242 583.66 295.082 582.7 294.762C581.74 294.422 580.91 293.942 580.21 293.322C579.53 292.682 578.99 291.922 578.59 291.042C578.21 290.162 578 289.162 577.96 288.042ZM613.645 269.502C612.105 269.502 610.755 270.122 609.595 271.362C608.435 272.582 607.575 274.262 607.015 276.402C608.935 276.102 610.495 275.782 611.695 275.442C612.895 275.102 613.825 274.742 614.485 274.362C615.145 273.962 615.585 273.542 615.805 273.102C616.045 272.662 616.165 272.182 616.165 271.662C616.165 271.142 615.965 270.652 615.565 270.192C615.165 269.732 614.525 269.502 613.645 269.502ZM623.905 289.002C622.805 290.082 621.725 291.022 620.665 291.822C619.625 292.602 618.545 293.252 617.425 293.772C616.325 294.272 615.145 294.642 613.885 294.882C612.645 295.122 611.285 295.242 609.805 295.242C607.965 295.242 606.275 294.932 604.735 294.312C603.195 293.672 601.865 292.782 600.745 291.642C599.645 290.482 598.785 289.092 598.165 287.472C597.565 285.852 597.265 284.052 597.265 282.072C597.265 280.412 597.445 278.792 597.805 277.212C598.185 275.632 598.715 274.152 599.395 272.772C600.095 271.372 600.945 270.092 601.945 268.932C602.945 267.752 604.065 266.742 605.305 265.902C606.565 265.062 607.935 264.412 609.415 263.952C610.915 263.472 612.505 263.232 614.185 263.232C615.845 263.232 617.315 263.472 618.595 263.952C619.895 264.432 620.985 265.062 621.865 265.842C622.745 266.602 623.415 267.462 623.875 268.422C624.335 269.382 624.565 270.342 624.565 271.302C624.565 272.722 624.285 274.022 623.725 275.202C623.165 276.362 622.185 277.402 620.785 278.322C619.405 279.242 617.535 280.022 615.175 280.662C612.835 281.302 609.885 281.802 606.325 282.162C606.365 284.282 606.825 285.832 607.705 286.812C608.605 287.792 609.925 288.282 611.665 288.282C612.485 288.282 613.195 288.212 613.795 288.072C614.395 287.932 614.915 287.752 615.355 287.532C615.815 287.312 616.225 287.082 616.585 286.842C616.945 286.602 617.285 286.372 617.605 286.152C617.945 285.932 618.295 285.752 618.655 285.612C619.015 285.472 619.425 285.402 619.885 285.402C620.185 285.402 620.475 285.482 620.755 285.642C621.035 285.782 621.285 285.972 621.505 286.212L623.905 289.002ZM638.373 270.072C639.133 268.732 639.943 267.582 640.803 266.622C641.663 265.662 642.543 264.922 643.443 264.402C644.363 263.862 645.293 263.562 646.233 263.502C647.193 263.422 648.153 263.602 649.113 264.042L647.433 272.652C646.293 272.172 645.223 271.952 644.223 271.992C643.243 272.032 642.333 272.372 641.493 273.012C640.673 273.652 639.923 274.612 639.243 275.892C638.583 277.172 638.013 278.812 637.533 280.812L635.853 294.762H626.733L630.513 263.652H635.313C636.273 263.652 637.023 263.882 637.563 264.342C638.103 264.782 638.373 265.512 638.373 266.532V270.072Z" fill="#6ABE52"/>
<line x1="24" y1="277.762" x2="128" y2="277.762" stroke="black" stroke-width="4"/>
<line x1="671" y1="277.762" x2="775" y2="277.762" stroke="black" stroke-width="4"/>
<circle cx="45.5" cy="100.504" r="18.5" fill="#FFB823"/>
<path d="M736.32 20.3299C767.89 45.4952 759.578 96.6156 751.476 119.03C749.486 121.1 738.71 116.233 712.754 99.2365C684.764 80.9081 685.17 52.3133 687.754 41.8538C690.789 24.1936 704.751 -4.83552 736.32 20.3299Z" fill="#FEC106"/>
<path d="M826.664 107.62C812.319 129.397 778.949 127.035 764.057 123.132C762.609 121.973 765.111 114.756 774.529 97.067C784.685 77.9918 803.103 76.5833 809.982 77.6352C821.52 78.5563 841.009 85.8427 826.664 107.62Z" fill="#FEC106"/>
</svg>
